<svg width="1138" height="1342" viewBox="0 0 1138 1342" fill="none" xmlns="http://www.w3.org/2000/svg">
<path d="M1137.3 788.25C1137.3 1093.76 882.58 1341.8 568.83 1341.8C255.09 1341.8 0.369995 1093.76 0.369995 788.25C0.369995 482.73 255.09 255.9 568.83 255.9C882.58 255.9 1137.3 482.73 1137.3 788.25Z" fill="#3E4A79"/>
<path d="M915.1 1165.52C781.33 1235.05 564.4 1227.04 564.4 1227.04C564.4 1227.04 347.49 1235.05 213.73 1165.52C79.97 1095.96 166.26 1016.62 166.26 1016.62C148.78 975.33 166.88 942.53 181.93 924.46C190.23 914.53 197.56 909.04 197.56 909.04C197.56 909.04 290.79 1050.36 564.22 1050.48C564.26 1050.48 564.58 1050.48 564.62 1050.48C838.04 1050.32 931.27 909.04 931.27 909.04C931.27 909.04 938.75 914.63 947.15 924.77C962.13 942.9 979.95 975.58 962.56 1016.62C962.56 1016.62 1048.83 1095.96 915.1 1165.52Z" fill="white"/>
<path d="M564.62 1091.05C539.67 1091.05 516.23 1090.09 494.18 1088.26C494.38 1078.22 492.91 1068.06 489.64 1058.24C513.26 1060.31 537.94 1061.37 563.65 1061.4C563.83 1061.4 564.02 1061.4 564.21 1061.4C564.35 1061.4 564.48 1061.4 564.62 1061.4C590.36 1061.4 615.1 1060.36 638.77 1058.31C635.5 1068.14 634.03 1078.28 634.24 1088.33C612.45 1090.11 589.26 1091.05 564.62 1091.05ZM829.15 1037.12C829.13 1036.22 829.12 1035.31 829.12 1034.42C829.12 1022.76 830.97 1013.64 833.53 1006.58C874.05 985.37 907.44 958.14 933.11 925.36C935.63 927.93 938.49 931.12 941.36 934.87C938.32 939.9 935.09 944.81 931.67 949.62C909.47 980.81 876.9 1012 829.15 1037.12ZM300.02 1037.09C252.3 1011.97 219.76 980.79 197.56 949.62C194.07 944.7 190.78 939.69 187.7 934.57C190.58 930.83 193.44 927.67 195.95 925.13C221.43 957.74 254.55 984.89 294.73 1006.07C297.87 1013.35 300.34 1023.48 300.02 1037.09Z" fill="white"/>
<path d="M544.83 1216.35C489.29 1216.35 325.56 1211.34 218.78 1155.81C176.9 1134.04 153.86 1109.67 150.28 1083.4C149.91 1080.65 149.77 1077.96 149.82 1075.32C160.51 1092.58 180.21 1110.63 213.73 1128.07C322.42 1184.56 486 1189.86 543.51 1189.86C556.78 1189.86 564.4 1189.58 564.4 1189.58C564.4 1189.58 572.02 1189.86 585.29 1189.86C642.82 1189.86 806.42 1184.56 915.1 1128.07C948.64 1110.63 968.32 1092.57 979.03 1075.3C979.07 1077.95 978.92 1080.65 978.55 1083.4C974.99 1109.67 951.94 1134.04 910.06 1155.81C803.25 1211.35 639.45 1216.35 583.96 1216.35C572.11 1216.35 565.2 1216.13 564.82 1216.12C564.69 1216.11 564.55 1216.11 564.42 1216.11C564.29 1216.11 564.15 1216.11 564.01 1216.12C563.64 1216.13 556.71 1216.35 544.83 1216.35Z" fill="white"/>
<path d="M396.31 1177.62C339.63 1177.62 313.75 1143.54 302.02 1115.16C294.71 1097.41 293.59 1077.83 297.42 1059.02C299.08 1050.87 299.87 1043.59 300.03 1037.1C300.04 1037.1 300.06 1037.11 300.09 1037.13C300.01 1040.25 299.81 1043.55 299.46 1047.03C299.11 1050.4 298.94 1053.78 298.94 1057.15C298.94 1071.39 302.08 1085.49 308.83 1098.11C321.12 1121.08 344.84 1147.38 389.07 1147.38C396.86 1147.38 405.27 1146.57 414.37 1144.78C448.46 1138.08 470.99 1114.53 479.33 1086.88C484.21 1087.39 489.17 1087.85 494.19 1088.26C493.34 1131.19 462 1172.07 410.89 1176.91C405.81 1177.4 400.96 1177.62 396.31 1177.62Z" fill="white"/>
<path d="M494.18 1088.26C489.17 1087.84 484.21 1087.38 479.33 1086.88C482.18 1077.44 483.36 1067.5 482.79 1057.61C485.06 1057.82 487.34 1058.04 489.63 1058.24C492.91 1068.06 494.38 1078.22 494.18 1088.26ZM300.09 1037.13C300.07 1037.11 300.04 1037.1 300.03 1037.09C300.35 1023.48 297.87 1013.35 294.73 1006.06C295.05 1006.24 295.38 1006.41 295.7 1006.58C298.27 1013.62 300.12 1022.75 300.12 1034.42C300.12 1035.31 300.11 1036.21 300.09 1037.13Z" fill="white"/>
<path d="M732.12 1177.61C727.46 1177.61 722.61 1177.39 717.53 1176.92C666.46 1172.07 635.12 1131.22 634.24 1088.32C639.54 1087.9 644.76 1087.41 649.9 1086.88C658.24 1114.53 680.78 1138.08 714.87 1144.77C723.97 1146.56 732.37 1147.37 740.16 1147.37C784.39 1147.37 808.12 1121.07 820.4 1098.11C827.15 1085.48 830.29 1071.4 830.3 1057.15C830.3 1056.5 830.29 1055.85 830.28 1055.2C830.49 1056.45 830.74 1057.72 831.01 1059.02C834.84 1077.83 833.72 1097.42 826.4 1115.17C814.67 1143.53 788.79 1177.61 732.12 1177.61Z" fill="white"/>
<path d="M634.24 1088.33C634.03 1078.28 635.5 1068.14 638.76 1058.31C641.34 1058.08 643.91 1057.85 646.46 1057.61C645.87 1067.51 647.06 1077.43 649.91 1086.88C644.76 1087.41 639.55 1087.9 634.24 1088.33Z" fill="white"/>
<path d="M564.42 1216.11C564.55 1216.11 564.68 1216.11 564.82 1216.12C566.96 1216.19 780.45 1223.2 910.06 1155.81C951.94 1134.04 974.98 1109.67 978.54 1083.4C982.95 1050.93 955.44 1024.89 955.16 1024.63C951.79 1021.5 950.73 1016.58 952.52 1012.35C970.22 970.57 946.27 938.66 932.75 925C921.49 938.5 897.22 963.8 856.11 989.07C802.46 1022.03 708.34 1061.33 564.61 1061.4C564.48 1061.4 564.36 1061.4 564.21 1061.4C420.48 1061.33 326.37 1022.03 272.72 989.07C231.61 963.8 207.34 938.5 196.08 925C182.57 938.65 158.61 970.54 176.31 1012.35C178.12 1016.6 177.05 1021.53 173.65 1024.66C173.39 1024.89 145.88 1050.93 150.28 1083.4C153.85 1109.67 176.9 1134.04 218.77 1155.81C348.37 1223.2 561.87 1216.2 564.01 1216.12C564.15 1216.11 564.28 1216.11 564.42 1216.11ZM587.22 1238.29C574.8 1238.29 566.74 1238.05 564.42 1237.96C550.84 1238.43 341.87 1244.45 208.69 1175.2C160.04 1149.9 133.1 1119.93 128.6 1086.13C124.11 1052.26 143.75 1025.24 153.58 1014.07C135.03 960.32 169.37 916.46 191.04 900.28C193.45 898.48 196.48 897.75 199.46 898.27C202.41 898.79 205.04 900.51 206.69 903.02C206.9 903.34 230.06 937.5 285.39 971.21C336.55 1002.37 426.49 1039.51 564.42 1039.55C702.34 1039.51 792.27 1002.37 843.43 971.21C898.78 937.5 921.92 903.34 922.16 903C923.81 900.5 926.43 898.79 929.4 898.28C932.35 897.76 935.38 898.49 937.8 900.28C959.46 916.46 993.81 960.32 975.25 1014.07C985.09 1025.24 1004.72 1052.26 1000.22 1086.13C995.73 1119.93 968.79 1149.9 920.14 1175.2C809.76 1232.59 647.35 1238.29 587.22 1238.29Z" fill="white"/>
<path d="M175.33 1010.53L176.89 1012.69C177.99 1014.16 178.61 1014.98 178.73 1015.15C180.02 1016.78 181.31 1018.46 182.69 1020.08C185.4 1023.36 188.31 1026.53 191.41 1029.58C194.48 1032.65 197.8 1035.51 201.24 1038.38C204.64 1041.36 208.34 1043.96 212.15 1047.1C212.16 1047.11 212.27 1047.2 212.28 1047.21C213.4 1048.14 213.56 1049.78 212.63 1050.9C212.12 1051.52 211.39 1051.84 210.64 1051.85C205.51 1051.91 200.34 1051.16 195.41 1049.65C190.42 1048.24 185.7 1046.03 181.17 1043.49C176.63 1040.96 172.33 1037.98 168.33 1034.6C166.34 1032.89 164.4 1031.12 162.56 1029.2C161.66 1028.22 160.74 1027.26 159.88 1026.21C158.96 1025.14 158.24 1024.2 157.18 1022.69C153.71 1017.77 154.9 1010.96 159.83 1007.48C164.72 1004.05 171.46 1005.19 174.94 1010C174.97 1010.04 175.09 1010.21 175.33 1010.53Z" fill="white"/>
<path d="M971.66 1022.69C970.6 1024.19 969.88 1025.13 968.95 1026.2C968.1 1027.26 967.18 1028.22 966.27 1029.2C964.43 1031.12 962.49 1032.89 960.5 1034.59C956.51 1037.98 952.21 1040.96 947.66 1043.48C943.13 1046.03 938.42 1048.24 933.42 1049.64C928.5 1051.16 923.32 1051.91 918.19 1051.85C916.74 1051.83 915.58 1050.64 915.59 1049.19C915.61 1048.4 915.97 1047.69 916.54 1047.21C916.55 1047.2 916.67 1047.11 916.68 1047.1C920.49 1043.95 924.19 1041.36 927.6 1038.38C931.04 1035.51 934.35 1032.65 937.42 1029.57C940.52 1026.53 943.44 1023.35 946.15 1020.08C947.52 1018.45 948.82 1016.78 950.1 1015.14C950.23 1014.98 950.84 1014.16 951.95 1012.68L953.5 1010.53C953.73 1010.22 953.85 1010.05 953.88 1010.01C957.42 1005.13 964.24 1004.03 969.12 1007.56C973.97 1011.07 975.08 1017.82 971.66 1022.69Z" fill="white"/>
<path d="M489.37 393.85C489.37 393.85 397.78 205.78 233.45 123.76C200.87 107.49 161.28 122.9 148.39 156.96C109.96 258.53 52.0699 476.3 174.45 650.31C174.45 650.31 264.9 467.6 489.37 393.85Z" fill="white"/>
<path d="M169.82 616.21C164.86 606.75 160.37 597.21 156.29 587.6C161.83 575.3 169.06 560.58 178.25 544.26C181.98 551.04 186.04 557.75 190.46 564.38C182.77 581 175.89 598.28 169.82 616.21ZM408.05 348.64C383.14 308.47 334.34 241.97 263.95 201.1C247.59 175 225.13 152.16 196.97 134.89C201.78 132.12 206.95 130.01 212.33 128.62C217.93 129.32 223.43 130.97 228.57 133.54C328.54 183.43 401.67 274.67 442.4 335.98C430.76 339.69 419.3 343.9 408.05 348.64Z" fill="white"/>
<path d="M153.53 593.86C75.9501 437.29 121.49 258.94 158.61 160.84C163.72 147.32 173.96 136.97 187.44 131.69C188.28 131.37 189.12 131.06 189.96 130.78C192.33 132.12 194.67 133.48 196.97 134.9C185.15 141.69 175.48 152.47 170.24 166.33C136.97 254.26 89.1401 429.28 156.29 587.6C155.32 589.77 154.4 591.85 153.53 593.86Z" fill="white"/>
<path d="M168.28 620.82C162.94 611.92 158.03 602.92 153.54 593.85C154.4 591.85 155.32 589.77 156.29 587.6C160.37 597.21 164.86 606.76 169.82 616.22C169.3 617.75 168.78 619.29 168.28 620.82ZM196.97 134.89C194.67 133.48 192.34 132.12 189.96 130.78C195.15 129.07 200.54 128.21 205.93 128.21C208.07 128.21 210.21 128.34 212.33 128.61C206.95 130 201.79 132.12 196.97 134.89Z" fill="white"/>
<path d="M205.93 128.2C199.66 128.2 193.39 129.37 187.44 131.7C173.97 136.97 163.72 147.31 158.61 160.83C118.64 266.46 68.91 465.12 173.62 629.45C184.63 611.07 206.07 578.78 239.71 542.33C285.18 493.07 362.18 427.08 473.76 387.63C451.38 346.61 364.95 201.61 228.58 133.54C221.48 129.99 213.71 128.2 205.93 128.2ZM174.45 661.24C170.91 661.24 167.57 659.53 165.52 656.6C110.7 578.66 85.3599 484.24 90.1999 375.98C94.2399 285.91 118.52 205.05 138.17 153.09C145.4 134.01 160.45 118.8 179.48 111.35C198.55 103.88 220 104.84 238.33 113.99C404.07 196.71 495.39 381.26 499.19 389.07C500.57 391.91 500.66 395.2 499.43 398.11C498.2 401 495.78 403.24 492.78 404.23C275.58 475.59 185.12 653.38 184.24 655.18C182.53 658.62 179.12 660.92 175.28 661.22C175.01 661.23 174.73 661.24 174.45 661.24Z" fill="white"/>
<path d="M417.26 387.24C417.26 387.24 355.11 258.45 243.39 202.37C221.25 191.26 194.31 201.84 185.52 225.18C159.3 294.82 119.77 444.05 202.87 563.19C202.87 563.19 264.53 437.93 417.26 387.24Z" fill="white"/>
<path d="M163.63 382.55C165.38 322.3 181.49 266.9 195.74 229.04C198.9 220.66 205.21 214.25 213.52 211C217.19 209.56 220.98 208.85 224.77 208.85C229.46 208.85 234.13 209.95 238.49 212.14C310.42 248.24 361.73 316.56 387.81 357.81C384.07 359.63 380.36 361.5 376.69 363.43C347.23 324.75 304.39 279.8 249.63 252.32C243.63 249.3 237.27 247.88 231.01 247.88C214.21 247.88 198.16 258.12 191.76 275.13C181.83 301.49 169.99 339.29 163.63 382.55Z" fill="white"/>
<path d="M224.77 208.85C220.99 208.85 217.19 209.56 213.52 211C205.21 214.24 198.9 220.66 195.74 229.04C169.1 299.79 135.97 431.87 202.27 542.17C224.04 506.98 285.57 423.79 401.67 381.11C384.07 349.39 326.84 256.48 238.5 212.13C234.13 209.94 229.46 208.85 224.77 208.85ZM202.87 574.1C199.32 574.1 195.97 572.38 193.92 569.43C109.33 448.18 145.94 299.3 175.3 221.33C180.59 207.28 191.62 196.1 205.57 190.65C219.43 185.23 235.01 185.94 248.3 192.62C362.02 249.7 424.49 377.08 427.1 382.48C428.46 385.31 428.54 388.59 427.32 391.48C426.1 394.38 423.68 396.61 420.7 397.6C274.4 446.17 213.27 566.81 212.67 568.02C210.96 571.48 207.54 573.78 203.7 574.07C203.42 574.1 203.15 574.1 202.87 574.1Z" fill="white"/>
<path d="M639.88 393.85C639.88 393.85 731.47 205.78 895.79 123.76C928.37 107.49 967.98 122.9 980.85 156.96C1019.28 258.53 1077.18 476.3 954.79 650.31C954.79 650.31 864.35 467.6 639.88 393.85Z" fill="white"/>
<path d="M960.97 620.82C954.53 601.24 947.13 582.41 938.77 564.38C943.19 557.75 947.26 551.03 951 544.26C961.8 563.44 969.88 580.41 975.7 593.85C971.21 602.92 966.31 611.92 960.97 620.82ZM721.2 348.64C709.95 343.9 698.48 339.68 686.84 335.99C727.57 274.67 800.69 183.44 900.67 133.54C907.76 129.99 915.52 128.21 923.31 128.21C928.7 128.21 934.09 129.07 939.28 130.78C907.81 148.45 882.98 172.88 865.29 201.09C794.9 241.97 746.09 308.47 721.2 348.64Z" fill="white"/>
<path d="M655.48 387.63C767.06 427.08 844.07 493.07 889.53 542.33C923.18 578.78 944.62 611.07 955.62 629.45C1060.32 465.12 1010.6 266.46 970.63 160.83C965.53 147.31 955.28 136.97 941.8 131.7C928.47 126.47 913.47 127.15 900.67 133.54C764.28 201.61 677.87 346.61 655.48 387.63ZM954.79 661.24C954.51 661.24 954.24 661.23 953.96 661.22C950.11 660.92 946.7 658.62 945 655.17C944.12 653.38 853.66 475.59 636.46 404.23C633.47 403.24 631.04 401 629.81 398.11C628.59 395.2 628.68 391.9 630.05 389.07C633.86 381.24 725.17 196.71 890.91 113.99C909.22 104.84 930.68 103.88 949.76 111.35C968.79 118.8 983.84 134.01 991.07 153.09C1010.72 205.05 1035 285.91 1039.03 375.98C1043.89 484.24 1018.54 578.66 963.73 656.6C961.67 659.53 958.33 661.24 954.79 661.24Z" fill="white"/>
<path d="M711.99 387.24C711.99 387.24 774.13 258.45 885.84 202.37C907.99 191.26 934.94 201.84 943.72 225.18C969.94 294.82 1009.47 444.05 926.37 563.19C926.37 563.19 864.72 437.93 711.99 387.24Z" fill="white"/>
<path d="M965.61 382.55C959.25 339.29 947.41 301.49 937.48 275.13C931.07 258.12 915.04 247.88 898.23 247.88C891.97 247.88 885.61 249.3 879.6 252.32C824.84 279.8 782.01 324.75 752.55 363.43C748.87 361.5 745.16 359.62 741.42 357.8C767.46 316.56 818.71 248.31 890.74 212.14C895.11 209.95 899.78 208.85 904.47 208.85C908.26 208.85 912.06 209.56 915.72 211C924.02 214.25 930.34 220.66 933.5 229.04C947.76 266.9 963.87 322.31 965.61 382.55Z" fill="white"/>
<path d="M727.58 381.11C843.67 423.79 905.21 506.98 926.98 542.17C993.28 431.87 960.14 299.79 933.51 229.04C930.34 220.66 924.03 214.24 915.73 211C907.49 207.78 898.63 208.18 890.75 212.13C802.26 256.56 745.14 349.41 727.58 381.11ZM926.38 574.11C926.09 574.11 925.82 574.1 925.55 574.08C921.69 573.78 918.27 571.48 916.58 568.01C915.98 566.81 854.84 446.17 708.54 397.6C705.56 396.61 703.16 394.38 701.94 391.48C700.71 388.59 700.79 385.31 702.14 382.48C704.76 377.08 767.22 249.7 880.95 192.62C894.24 185.94 909.81 185.23 923.68 190.65C937.63 196.1 948.66 207.28 953.95 221.33C983.31 299.3 1019.91 448.18 935.34 569.43C933.28 572.38 929.93 574.11 926.38 574.11Z" fill="white"/>
<path d="M931.68 909.04C881.33 979.76 777.75 1050.48 564.62 1050.48C351.49 1050.48 247.91 979.76 197.56 909.04C176.22 879.04 162.36 844.84 156.09 809.17C151.34 781.93 150.97 753.83 155.03 726.03C173.07 602.78 219.91 515.96 275.78 454.79C430.29 285.67 698.94 285.67 853.46 454.79C909.33 515.96 956.18 602.78 974.21 726.03C983.6 790.26 969.32 856.14 931.68 909.04Z" fill="white"/>
<path d="M973.12 809.08C973.12 809.08 912.36 758.83 824.65 803.4C767.17 832.58 697.01 817.47 658.72 765.6C631.11 728.24 603.29 671.84 581.4 586.79C576.93 569.39 552.3 569.39 547.83 586.79C525.94 671.84 498.12 728.24 470.52 765.6C432.22 817.47 362.07 832.58 304.58 803.4C216.88 758.83 156.12 809.08 156.12 809.08C156.12 809.09 156.09 809.16 156.09 809.17C162.36 844.84 176.22 879.05 197.56 909.04C247.9 979.76 351.49 1050.49 564.62 1050.49C777.75 1050.49 881.33 979.76 931.67 909.04C953.02 879.05 966.88 844.84 973.15 809.17C973.15 809.17 973.14 809.13 973.12 809.08Z" fill="white"/>
<path d="M963.23 802.48C952.71 796.38 934.19 787.88 909.68 785.57C925.89 744.27 930.8 698.86 924.28 654.25C916.62 601.96 903.79 556.25 887.27 516.26C925.97 575.53 951.5 646.34 963.4 727.6C967.11 752.96 967 778.17 963.23 802.48Z" fill="white"/>
<path d="M564.62 1039.55C534.35 1039.55 505.55 1038.06 478.29 1035.11C466.25 1000.73 430.33 971.76 365.61 971.76C345.11 971.76 321.73 974.67 295.32 981.21C258.67 960.4 228.86 934.15 206.48 902.69C203.82 898.96 201.29 895.17 198.88 891.32C259.44 940.05 357.13 978.7 514.68 978.7C581.41 978.7 637.39 971.77 684.37 960.07C691.52 965.16 700.19 968.06 709.31 968.06C728.35 968.06 744.54 955.62 750.21 938.44C814.17 911.54 855.3 874.4 881.74 837.26C893.24 821.09 902.56 803.72 909.69 785.55C934.21 787.87 952.72 796.37 963.25 802.48C957.65 838.68 943.97 872.91 922.78 902.69C900.39 934.15 870.58 960.4 833.93 981.21C807.52 974.67 784.14 971.76 763.64 971.76C698.92 971.76 663 1000.73 650.95 1035.11C623.7 1038.06 594.9 1039.55 564.62 1039.55Z" fill="white"/>
<path d="M166 802.48C162.24 778.16 162.14 752.95 165.85 727.59C181.6 619.93 221.3 530.62 283.84 462.17C355.43 383.8 457.77 338.87 564.62 338.87C642.31 338.87 717.6 362.62 780.43 405.69C719.85 370.51 651.61 352.92 583.37 352.92C513.32 352.92 443.25 371.47 381.48 408.55C383.93 422.21 371.62 444.97 350.06 464.37C331.61 480.96 311.43 490.58 297.63 490.58C293.52 490.58 289.99 489.72 287.23 487.96C234.6 548.62 191 633.15 173.75 750.99C171.39 767.19 170.53 783.48 171.16 799.65C169.27 800.63 167.56 801.59 166 802.48Z" fill="white"/>
<path d="M177.57 847.66C172.27 833.08 168.4 817.97 166 802.49C167.55 801.59 169.27 800.63 171.16 799.66C171.61 811.24 172.83 822.77 174.81 834.14C175.61 838.67 176.53 843.18 177.57 847.66Z" fill="white"/>
<path d="M564.62 338.87C457.77 338.87 355.43 383.81 283.84 462.17C221.3 530.63 181.6 619.93 165.85 727.59C156.61 790.72 171.04 852.9 206.47 902.7C270.18 992.23 394.03 1039.56 564.62 1039.56C735.21 1039.56 859.05 992.23 922.77 902.7C958.2 852.9 972.63 790.72 963.4 727.59C947.64 619.93 907.95 530.63 845.4 462.17C773.81 383.81 671.48 338.87 564.62 338.87ZM564.62 1061.39C465.84 1061.39 382.05 1046.21 315.56 1016.23C261.72 991.96 219.03 958.03 188.67 915.37C149.96 860.95 134.18 793.15 144.23 724.43C160.63 612.37 202.17 519.17 267.71 447.43C343.43 364.55 451.65 317.02 564.62 317.02C677.59 317.02 785.81 364.55 861.54 447.43C927.07 519.17 968.62 612.36 985.01 724.43C995.06 793.15 979.28 860.95 940.57 915.37C910.21 958.03 867.53 991.96 813.68 1016.23C747.2 1046.21 663.4 1061.39 564.62 1061.39Z" fill="white"/>
<path d="M618.23 784.31C614.56 762.57 564.62 762.24 564.62 762.24C564.62 762.24 514.69 762.57 511.01 784.31C507.33 806.04 534.3 833.13 564.62 833.13C594.93 833.13 621.91 806.04 618.23 784.31Z" fill="white"/>
<path d="M575.4 826.21C575.4 826.54 575.38 827.68 575.44 828.48C575.47 829.36 575.52 830.27 575.61 831.18C575.79 833 576.02 834.84 576.34 836.64C576.95 840.27 577.97 843.77 579.23 847.08C581.81 853.7 585.72 859.36 590.82 863.78C596 868.11 602.41 871.27 609.61 873.23C616.8 875.06 624.81 875.94 632.67 875.89C634.64 875.93 636.56 875.81 638.46 875.64C640.4 875.57 642.23 875.23 644.1 874.95C645.98 874.71 647.72 874.18 649.55 873.84C651.24 873.24 653.08 872.88 654.68 872.12C661.34 869.54 667.08 865.35 671.42 859.6C680.41 848.24 684.41 831.54 686.32 814.67C686.32 814.65 686.35 814.43 686.36 814.41C686.54 812.77 688.02 811.59 689.67 811.78C690.85 811.92 691.79 812.72 692.15 813.78C695.22 822.81 696.14 832.12 695.41 841.73C694.65 851.27 691.83 861.15 686.2 869.91C680.66 878.7 672.08 885.87 662.66 890.26C653.23 894.86 643.12 896.56 633.41 897.14C623.75 897.63 614.07 897.15 604.19 894.85C594.39 892.49 584.43 888.21 576.12 881.22C571.99 877.73 568.3 873.69 565.23 869.26C562.2 864.82 559.78 860.04 557.94 855.14C556.09 850.23 554.89 845.18 554.17 840.13C553.78 837.6 553.56 835.06 553.47 832.51C553.41 831.22 553.4 829.94 553.42 828.62C553.45 827.24 553.47 826.17 553.63 824.32C554.15 818.32 559.42 813.88 565.42 814.4C571.01 814.88 575.24 819.5 575.37 824.98C575.38 825.06 575.38 825.47 575.4 826.21Z" fill="white"/>
<path d="M575.4 824.32C575.55 826.17 575.58 827.24 575.6 828.62C575.63 829.94 575.61 831.23 575.55 832.51C575.46 835.06 575.24 837.6 574.85 840.13C574.13 845.19 572.93 850.23 571.08 855.14C569.25 860.04 566.83 864.83 563.79 869.27C560.72 873.69 557.04 877.73 552.91 881.22C544.59 888.21 534.63 892.49 524.83 894.85C514.94 897.15 505.28 897.63 495.61 897.14C485.9 896.56 475.79 894.86 466.36 890.26C456.95 885.87 448.37 878.7 442.82 869.92C437.19 861.15 434.37 851.27 433.62 841.73C432.88 832.12 433.8 822.81 436.87 813.79C437.4 812.23 439.1 811.39 440.66 811.92C441.79 812.3 442.54 813.29 442.66 814.41C442.67 814.43 442.7 814.65 442.7 814.67C444.61 831.54 448.61 848.25 457.6 859.6C461.95 865.35 467.68 869.53 474.35 872.13C475.95 872.89 477.79 873.24 479.48 873.84C481.31 874.18 483.04 874.72 484.93 874.95C486.79 875.22 488.62 875.57 490.56 875.65C492.46 875.82 494.38 875.94 496.35 875.89C504.21 875.94 512.22 875.07 519.42 873.24C526.61 871.28 533.02 868.12 538.21 863.78C543.3 859.36 547.21 853.7 549.79 847.08C551.05 843.77 552.07 840.27 552.68 836.65C553.01 834.84 553.24 833.01 553.41 831.19C553.51 830.27 553.56 829.36 553.59 828.49C553.64 827.68 553.63 826.54 553.63 826.21C553.63 826.09 553.65 825.15 553.65 825.03C553.77 819.02 558.74 814.24 564.76 814.36C570.37 814.47 574.9 818.86 575.4 824.32Z" fill="white"/>
<path d="M742.99 924.99C742.99 943.62 727.91 958.7 709.3 958.7C695.63 958.7 683.87 950.58 678.6 938.85C655.8 938.85 473.44 938.85 450.64 938.85C445.37 950.58 433.6 958.7 419.93 958.7C401.34 958.7 386.26 943.62 386.26 924.99C386.26 914.53 391 905.2 398.49 899.02C391 892.78 386.26 883.45 386.26 872.99C386.26 854.4 401.34 839.32 419.93 839.32C431.98 839.32 442.56 845.65 448.52 855.14C471.74 855.14 657.5 855.14 680.72 855.14C686.68 845.65 697.26 839.32 709.3 839.32C727.91 839.32 742.99 854.4 742.99 872.99C742.99 883.45 738.24 892.78 730.75 899.02C738.24 905.2 742.99 914.53 742.99 924.99Z" fill="white"/>
<path d="M709.31 949.33C699.75 949.33 691.05 943.71 687.14 935C685.63 931.64 682.29 929.48 678.6 929.48C655.8 929.48 473.44 929.48 450.64 929.48C446.96 929.48 443.62 931.64 442.1 935C438.19 943.71 429.49 949.33 419.94 949.33C406.53 949.33 395.62 938.4 395.62 924.99C395.62 923.5 395.75 922.03 396.02 920.6C402.11 926.77 410.57 930.6 419.94 930.6C433.61 930.6 445.37 922.49 450.64 910.75C473.44 910.75 655.8 910.75 678.6 910.75C683.87 922.49 695.64 930.6 709.31 930.6C718.67 930.6 727.13 926.77 733.23 920.6C733.49 922.03 733.62 923.5 733.62 924.99C733.62 938.4 722.72 949.33 709.31 949.33Z" fill="white"/>
<path d="M395.63 873.59C395.63 873.39 395.63 873.19 395.63 872.99C395.63 871.51 395.75 870.06 396.01 868.64C396.79 869.45 397.62 870.21 398.49 870.93C397.49 871.76 396.53 872.66 395.63 873.59Z" fill="white"/>
<path d="M733.61 873.59C732.72 872.66 731.76 871.76 730.75 870.93C731.61 870.21 732.45 869.45 733.23 868.64C733.49 870.06 733.62 871.51 733.62 872.99C733.62 873.19 733.62 873.39 733.61 873.59Z" fill="white"/>
<path d="M450.65 929.48C587.42 929.48 663.4 929.48 678.6 929.48C682.29 929.48 685.63 931.65 687.13 935C691.05 943.71 699.75 949.33 709.31 949.33C722.71 949.33 733.62 938.41 733.62 924.99C733.62 917.71 730.4 910.88 724.78 906.25C722.64 904.48 721.39 901.84 721.38 899.05C721.38 896.26 722.61 893.61 724.75 891.83C730.39 887.13 733.62 880.27 733.62 873C733.62 859.59 722.71 848.68 709.31 848.68C700.87 848.68 693.15 852.96 688.64 860.12C686.93 862.86 683.94 864.51 680.71 864.51C657.5 864.51 471.74 864.51 448.52 864.51C445.3 864.51 442.3 862.86 440.59 860.12C436.09 852.96 428.36 848.68 419.93 848.68C406.53 848.68 395.62 859.59 395.62 873C395.62 880.27 398.84 887.13 404.48 891.83C406.63 893.61 407.86 896.26 407.85 899.05C407.85 901.84 406.6 904.48 404.46 906.25C398.83 910.88 395.62 917.71 395.62 924.99C395.62 938.41 406.53 949.33 419.93 949.33C429.49 949.33 438.19 943.71 442.1 935C443.62 931.65 446.96 929.48 450.65 929.48ZM709.31 968.06C694.51 968.06 680.87 960.44 673.04 948.21C651.36 948.21 477.88 948.21 456.19 948.21C448.38 960.44 434.73 968.06 419.93 968.06C396.2 968.06 376.9 948.74 376.9 924.99C376.9 915.47 379.99 906.4 385.61 899C379.99 891.58 376.9 882.49 376.9 873C376.9 849.26 396.2 829.96 419.93 829.96C433.03 829.96 445.16 835.79 453.3 845.78C475.56 845.78 653.67 845.78 675.93 845.78C684.07 835.79 696.21 829.96 709.31 829.96C733.03 829.96 752.34 849.26 752.34 873C752.34 882.49 749.24 891.58 743.62 899C749.24 906.4 752.34 915.48 752.34 924.99C752.34 948.74 733.03 968.06 709.31 968.06Z" fill="white"/>
<path d="M689.05 814.23C689.05 814.23 676.01 845.5 630.87 845.5C585.73 845.5 588.73 785.97 588.73 785.97C587.11 785.97 579 785.97 564.41 785.97C549.82 785.97 541.71 785.97 540.09 785.97C540.09 785.97 543.1 845.5 497.96 845.5C452.82 845.5 439.79 814.23 439.79 814.23C439.79 814.23 430.75 886.63 492.61 886.63C554.48 886.63 564.41 843.64 564.41 843.64C564.41 843.64 574.36 886.63 636.22 886.63C698.08 886.63 689.05 814.23 689.05 814.23Z" fill="white"/>
<path d="M618.23 784.31C614.56 762.57 564.62 762.24 564.62 762.24C564.62 762.24 514.69 762.57 511.01 784.31C507.33 806.04 534.3 833.13 564.62 833.13C594.93 833.13 621.91 806.04 618.23 784.31Z" fill="white"/>
<path d="M575.4 826.21C575.4 826.54 575.38 827.68 575.44 828.48C575.47 829.36 575.52 830.27 575.61 831.18C575.79 833 576.02 834.84 576.34 836.64C576.95 840.27 577.97 843.77 579.23 847.08C581.81 853.7 585.72 859.36 590.82 863.78C596 868.11 602.41 871.27 609.61 873.23C616.8 875.06 624.81 875.94 632.67 875.89C634.64 875.93 636.56 875.81 638.46 875.64C640.4 875.57 642.23 875.23 644.1 874.95C645.98 874.71 647.72 874.18 649.55 873.84C651.24 873.24 653.08 872.88 654.68 872.12C661.34 869.54 667.08 865.35 671.42 859.6C680.41 848.24 684.41 831.54 686.32 814.67C686.32 814.65 686.35 814.43 686.36 814.41C686.54 812.77 688.02 811.59 689.67 811.78C690.85 811.92 691.79 812.72 692.15 813.78C695.22 822.81 696.14 832.12 695.41 841.73C694.65 851.27 691.83 861.15 686.2 869.91C680.66 878.7 672.08 885.87 662.66 890.26C653.23 894.86 643.12 896.56 633.41 897.14C623.75 897.63 614.07 897.15 604.19 894.85C594.39 892.49 584.43 888.21 576.12 881.22C571.99 877.73 568.3 873.69 565.23 869.26C562.2 864.82 559.78 860.04 557.94 855.14C556.09 850.23 554.89 845.18 554.17 840.13C553.78 837.6 553.56 835.06 553.47 832.51C553.41 831.22 553.4 829.94 553.42 828.62C553.45 827.24 553.47 826.17 553.63 824.32C554.15 818.32 559.42 813.88 565.42 814.4C571.01 814.88 575.24 819.5 575.37 824.98C575.38 825.06 575.38 825.47 575.4 826.21Z" fill="white"/>
<path d="M575.4 824.32C575.55 826.17 575.58 827.24 575.6 828.62C575.63 829.94 575.61 831.23 575.55 832.51C575.46 835.06 575.24 837.6 574.85 840.13C574.13 845.19 572.93 850.23 571.08 855.14C569.25 860.04 566.83 864.83 563.79 869.27C560.72 873.69 557.04 877.73 552.91 881.22C544.59 888.21 534.63 892.49 524.83 894.85C514.94 897.15 505.28 897.63 495.61 897.14C485.9 896.56 475.79 894.86 466.36 890.26C456.95 885.87 448.37 878.7 442.82 869.92C437.19 861.15 434.37 851.27 433.62 841.73C432.88 832.12 433.8 822.81 436.87 813.79C437.4 812.23 439.1 811.39 440.66 811.92C441.79 812.3 442.54 813.29 442.66 814.41C442.67 814.43 442.7 814.65 442.7 814.67C444.61 831.54 448.61 848.25 457.6 859.6C461.95 865.35 467.68 869.53 474.35 872.13C475.95 872.89 477.79 873.24 479.48 873.84C481.31 874.18 483.04 874.72 484.93 874.95C486.79 875.22 488.62 875.57 490.56 875.65C492.46 875.82 494.38 875.94 496.35 875.89C504.21 875.94 512.22 875.07 519.42 873.24C526.61 871.28 533.02 868.12 538.21 863.78C543.3 859.36 547.21 853.7 549.79 847.08C551.05 843.77 552.07 840.27 552.68 836.65C553.01 834.84 553.24 833.01 553.41 831.19C553.51 830.27 553.56 829.36 553.59 828.49C553.64 827.68 553.63 826.54 553.63 826.21C553.63 826.09 553.65 825.15 553.65 825.03C553.77 819.02 558.74 814.24 564.76 814.36C570.37 814.47 574.9 818.86 575.4 824.32Z" fill="white"/>
<path d="M633.49 875.9C633.22 875.9 632.94 875.9 632.67 875.89C632.47 875.89 632.26 875.89 632.05 875.89C624.39 875.89 616.62 875.02 609.61 873.23C602.41 871.28 596 868.11 590.82 863.78C585.71 859.37 581.81 853.7 579.23 847.08C577.97 843.78 576.95 840.27 576.33 836.64C576.06 835.09 575.84 833.51 575.69 831.94C581.99 830.59 587.96 828.16 593.36 824.98C598.23 839.2 609.05 855.2 633.21 855.2C663.57 855.2 678.76 835.21 685.16 823.16C682.91 837.02 678.89 850.16 671.42 859.6C667.08 865.35 661.34 869.54 654.67 872.13C653.08 872.88 651.23 873.24 649.55 873.84C647.71 874.18 645.98 874.72 644.1 874.95C642.24 875.23 640.4 875.57 638.46 875.65C636.82 875.8 635.18 875.9 633.49 875.9ZM495.53 875.9C493.86 875.9 492.2 875.8 490.56 875.65C488.62 875.57 486.79 875.23 484.93 874.95C483.04 874.72 481.31 874.18 479.48 873.84C477.79 873.24 475.94 872.88 474.34 872.13C467.68 869.54 461.95 865.35 457.61 859.6C450.22 850.28 446.2 837.33 443.94 823.65C450.49 835.75 465.68 855.2 495.63 855.2C519.89 855.2 530.72 839.04 535.55 824.78C540.97 828.02 546.99 830.5 553.35 831.89C553.18 833.48 552.96 835.07 552.68 836.64C552.07 840.27 551.05 843.78 549.79 847.08C547.22 853.7 543.3 859.37 538.21 863.78C533.02 868.11 526.61 871.28 519.41 873.23C512.41 875.02 504.64 875.89 496.98 875.89C496.77 875.89 496.56 875.89 496.35 875.89C496.08 875.9 495.81 875.9 495.53 875.9Z" fill="white"/>
<path d="M575.68 831.94C575.65 831.69 575.63 831.43 575.61 831.18C575.6 831.16 575.6 831.13 575.6 831.1C575.62 830.29 575.62 829.46 575.6 828.62C575.58 827.24 575.55 826.17 575.39 824.32C574.9 818.85 570.37 814.47 564.76 814.36C564.7 814.36 564.64 814.36 564.57 814.36C564.53 814.36 564.51 814.36 564.47 814.36C558.88 814.36 554.12 818.64 553.63 824.32C553.47 826.17 553.44 827.24 553.41 828.62C553.41 829.46 553.41 830.29 553.42 831.11C553.41 831.13 553.41 831.17 553.41 831.18C553.4 831.42 553.37 831.66 553.34 831.89C546.99 830.51 540.96 828.02 535.55 824.77C539.36 813.48 539.43 803.36 539.43 803.36C541.1 803.36 549.42 803.36 564.41 803.36C579.4 803.36 587.73 803.36 589.4 803.36C589.4 803.36 589.47 813.59 593.36 824.98C587.97 828.16 581.99 830.59 575.68 831.94Z" fill="white"/>
<path d="M629.72 886.62C594.53 886.62 578.22 871.37 570.72 856.07C570.84 855.76 570.96 855.45 571.08 855.14C572.94 850.23 574.13 845.19 574.86 840.13C575.25 837.6 575.46 835.06 575.56 832.51C575.58 832.04 575.59 831.57 575.6 831.1C575.6 831.12 575.6 831.16 575.61 831.19C575.64 831.43 575.66 831.69 575.68 831.94C575.85 833.51 576.06 835.09 576.34 836.65C576.95 840.27 577.97 843.77 579.23 847.08C581.8 853.7 585.71 859.37 590.82 863.77C596 868.11 602.41 871.27 609.61 873.23C616.61 875.01 624.39 875.89 632.04 875.89C632.27 875.89 632.47 875.89 632.67 875.89C632.94 875.89 633.22 875.89 633.49 875.89C635.17 875.89 636.83 875.8 638.47 875.65C640.4 875.56 642.23 875.22 644.1 874.95C645.98 874.71 647.72 874.18 649.54 873.84C651.23 873.24 653.08 872.88 654.67 872.12C661.35 869.54 667.08 865.35 671.42 859.6C678.89 850.16 682.91 837.01 685.16 823.16C687.93 817.95 689.06 814.23 689.06 814.23C689.06 814.23 689.16 814.47 689.32 814.83C690.16 821.5 696.67 886.62 629.72 886.62ZM553.43 831.1C553.4 830.28 553.4 829.46 553.42 828.63C553.45 827.24 553.47 826.18 553.63 824.31C554.12 818.64 558.87 814.36 564.47 814.36C564.51 814.36 564.53 814.36 564.57 814.36C564.56 814.36 564.55 814.36 564.54 814.36C558.62 814.36 553.78 819.09 553.66 825.03C553.66 825.15 553.63 826.09 553.63 826.21C553.62 826.54 553.64 827.68 553.59 828.49C553.56 829.34 553.5 830.22 553.43 831.1Z" fill="white"/>
<path d="M499.31 886.62C428.75 886.62 439.79 814.23 439.79 814.23C439.79 814.23 440.98 818.19 443.94 823.65C446.2 837.33 450.22 850.27 457.61 859.6C461.95 865.35 467.68 869.54 474.35 872.12C475.94 872.88 477.8 873.24 479.48 873.84C481.31 874.18 483.05 874.71 484.93 874.95C486.79 875.22 488.62 875.56 490.56 875.65C492.19 875.8 493.86 875.89 495.53 875.89C495.81 875.89 496.08 875.89 496.35 875.89C496.55 875.89 496.76 875.89 496.98 875.89C504.64 875.89 512.41 875.01 519.42 873.23C526.61 871.27 533.03 868.11 538.21 863.77C543.31 859.37 547.22 853.7 549.8 847.08C551.05 843.77 552.07 840.27 552.69 836.65C552.96 835.07 553.18 833.48 553.35 831.88C553.37 831.65 553.39 831.42 553.41 831.19C553.42 831.16 553.42 831.13 553.43 831.1C553.5 830.22 553.56 829.34 553.59 828.49C553.64 827.68 553.62 826.54 553.63 826.21C553.63 826.09 553.66 825.15 553.66 825.03C553.78 819.09 558.62 814.36 564.54 814.36C564.55 814.36 564.56 814.36 564.57 814.36C564.63 814.36 564.7 814.36 564.76 814.36C570.37 814.48 574.9 818.85 575.4 824.31C575.55 826.18 575.58 827.24 575.6 828.63C575.62 829.46 575.62 830.28 575.6 831.1C575.59 831.57 575.58 832.04 575.56 832.51C575.46 835.06 575.25 837.6 574.86 840.13C574.13 845.19 572.94 850.23 571.08 855.14C570.96 855.45 570.84 855.76 570.72 856.07C566.11 846.7 564.83 837.31 564.51 831.41C564.58 830.14 564.6 829.03 564.6 828.11C564.6 826.31 564.51 825.27 564.51 825.27C564.51 825.27 564.42 826.32 564.42 828.15C564.42 829.05 564.45 830.15 564.51 831.41C563.69 846.93 556.06 886.62 499.31 886.62Z" fill="white"/>
<path d="M564.51 831.41C564.45 830.16 564.42 829.06 564.42 828.16C564.42 826.32 564.51 825.27 564.51 825.27C564.51 825.27 564.59 826.31 564.59 828.12C564.59 829.03 564.58 830.14 564.51 831.41Z" fill="white"/>
<path d="M559.26 791.26C547.31 791.26 537.61 788.07 537.61 784.14C537.61 780.21 547.31 777.02 559.26 777.02C571.22 777.02 580.91 780.21 580.91 784.14C580.91 788.07 571.22 791.26 559.26 791.26Z" fill="white"/>
<path d="M280.27 985.25C280.27 985.25 304.39 998.54 299.46 1047.02C297.67 1064.64 300.49 1082.49 308.84 1098.1C323.29 1125.11 353.55 1156.73 414.37 1144.76C526.65 1122.7 513.66 918.02 280.27 985.25Z" fill="white"/>
<path d="M389.07 1147.38C344.85 1147.38 321.12 1121.08 308.83 1098.11C302.08 1085.49 298.95 1071.39 298.94 1057.15C298.95 1071.39 302.08 1085.49 308.83 1098.11C321.12 1121.08 344.85 1147.38 389.07 1147.38Z" fill="white"/>
<path d="M280.27 985.26C280.36 985.23 280.45 985.21 280.54 985.18C280.45 985.2 280.35 985.23 280.27 985.26Z" fill="white"/>
<path d="M389.07 1147.38C344.85 1147.38 321.12 1121.08 308.83 1098.11C302.08 1085.49 298.95 1071.39 298.94 1057.15C298.94 1053.78 299.11 1050.4 299.45 1047.03C299.91 1042.53 300.12 1038.34 300.12 1034.42C300.11 996.2 280.27 985.26 280.27 985.26C280.35 985.23 280.45 985.2 280.54 985.18C285.25 983.82 289.83 982.63 294.35 981.49C302.04 989.14 310.78 1002.94 314.54 1027.44C317.21 1044.94 324.42 1061.52 336.41 1074.54C350.51 1089.84 372.19 1105.35 402.15 1105.35C416.32 1105.35 432.33 1101.89 450.27 1093.28C464.12 1086.63 474.94 1077.35 482.82 1066.58C481.08 1102.36 456.58 1136.48 414.37 1144.78C405.27 1146.56 396.86 1147.38 389.07 1147.38Z" fill="white"/>
<path d="M310.33 1048.13C308.67 1064.4 311.48 1079.91 318.47 1092.96C337.6 1128.7 369.15 1142.52 412.26 1134.05C439.61 1128.68 460.71 1110.08 468.7 1084.3C476.61 1058.77 469.96 1031.09 451.32 1012.06C433.9 994.29 391.62 969.09 300.31 991.22C307.13 1002.35 313.15 1020.36 310.33 1048.13ZM389.18 1158.29C337.23 1158.29 310.92 1125.15 299.21 1103.26C290.17 1086.36 286.5 1066.54 288.59 1045.92C292.61 1006.39 275.17 994.92 275.01 994.82C271.13 992.68 268.92 988.43 269.42 984.04C269.91 979.64 273 975.97 277.25 974.76C391.31 941.9 445.05 974.45 466.92 996.77C491.18 1021.54 499.86 1057.55 489.56 1090.78C479.15 1124.35 451.83 1148.54 416.48 1155.5C406.67 1157.42 397.59 1158.29 389.18 1158.29Z" fill="white"/>
<path d="M370.59 1142.24C370.52 1142.2 370.76 1141.67 370.86 1141.3C370.89 1141.22 371.04 1140.8 371.31 1140.04L372.26 1137.37C373.4 1134.04 374.04 1132.19 374.17 1131.82C375.39 1128.05 376.69 1124.19 377.74 1120.18C378.23 1118.19 378.89 1116.17 379.31 1114.12C379.39 1113.81 380.03 1111.31 380.11 1111C380.35 1109.96 380.53 1108.9 380.82 1107.83C381.84 1103.57 382.65 1099.18 383.9 1094.48C383.9 1094.47 383.93 1094.37 383.94 1094.36C384.31 1092.92 385.78 1092.07 387.22 1092.45C387.92 1092.64 388.48 1093.08 388.83 1093.65C391.42 1097.93 393.34 1102.57 394.57 1107.38C395.93 1112.19 396.5 1117.17 396.71 1122.21C396.84 1127.24 396.47 1132.33 395.44 1137.35C394.97 1139.86 394.24 1142.35 393.42 1144.83C392.95 1146.05 392.54 1147.29 391.95 1148.52C391.67 1149.13 391.39 1149.75 391.06 1150.39C390.7 1151.05 390.45 1151.54 389.87 1152.52C389.78 1152.67 389.58 1152.71 389.44 1152.64C388.18 1151.94 381.9 1148.48 370.59 1142.24Z" fill="white"/>
<path d="M429.74 1129.53C429.67 1129.49 429.89 1128.95 429.98 1128.57C430 1128.48 430.13 1128.06 430.36 1127.28L431.19 1124.58C432.19 1121.2 432.74 1119.33 432.85 1118.95C433.9 1115.13 435.03 1111.22 435.91 1107.18C436.31 1105.16 436.88 1103.11 437.21 1101.04C437.27 1100.72 437.8 1098.21 437.87 1097.89C438.06 1096.84 438.19 1095.78 438.44 1094.7C439.26 1090.39 439.88 1085.97 440.91 1081.23C440.92 1081.22 440.93 1081.11 440.94 1081.09C441.26 1079.64 442.7 1078.73 444.14 1079.04C444.85 1079.2 445.43 1079.62 445.8 1080.18C448.58 1084.33 450.71 1088.88 452.15 1093.63C453.73 1098.38 454.52 1103.33 454.95 1108.36C455.3 1113.37 455.15 1118.47 454.34 1123.53C454 1126.07 453.37 1128.58 452.67 1131.08C452.25 1132.34 451.89 1133.59 451.36 1134.85C451.1 1135.47 450.86 1136.1 450.55 1136.75C450.23 1137.44 449.99 1137.94 449.46 1138.93C449.38 1139.08 449.19 1139.14 449.03 1139.07C447.75 1138.43 441.32 1135.25 429.74 1129.53Z" fill="white"/>
<path d="M848.97 985.26C848.97 985.26 824.86 998.54 829.78 1047.03C831.57 1064.64 828.75 1082.49 820.4 1098.1C805.96 1125.11 775.69 1156.73 714.87 1144.77C602.6 1122.7 615.58 918.02 848.97 985.26Z" fill="white"/>
<path d="M740.16 1147.37C784.39 1147.37 808.12 1121.07 820.41 1098.11C827.15 1085.48 830.29 1071.39 830.3 1057.15C830.29 1071.39 827.15 1085.48 820.41 1098.11C808.12 1121.07 784.39 1147.37 740.16 1147.37Z" fill="white"/>
<path d="M848.97 985.26C848.88 985.23 848.78 985.2 848.7 985.17C848.79 985.21 848.88 985.23 848.97 985.26Z" fill="white"/>
<path d="M740.16 1147.38C732.38 1147.38 723.97 1146.57 714.88 1144.77C672.66 1136.48 648.15 1102.35 646.42 1066.58C654.3 1077.35 665.12 1086.63 678.96 1093.27C696.9 1101.88 712.92 1105.35 727.09 1105.35C757.05 1105.35 778.73 1089.83 792.82 1074.54C804.81 1061.52 812.02 1044.93 814.7 1027.44C818.45 1002.93 827.2 989.14 834.88 981.49C839.41 982.62 843.99 983.83 848.7 985.17C848.78 985.2 848.88 985.23 848.97 985.26C848.97 985.26 829.13 996.19 829.12 1034.43C829.12 1038.34 829.32 1042.53 829.78 1047.03C830.12 1050.39 830.3 1053.78 830.3 1057.15C830.29 1071.39 827.15 1085.48 820.4 1098.1C808.11 1121.08 784.39 1147.38 740.16 1147.38Z" fill="white"/>
<path d="M677.92 1012.06C659.29 1031.09 652.63 1058.77 660.55 1084.3C668.53 1110.09 689.63 1128.67 716.98 1134.05C760.09 1142.52 791.65 1128.7 810.78 1092.95C817.75 1079.91 820.57 1064.41 818.92 1048.13C816.09 1020.36 822.11 1002.34 828.93 991.22C803.48 985.06 781.83 982.57 763.47 982.57C715.98 982.57 690.49 999.25 677.92 1012.06ZM740.06 1158.29C731.65 1158.29 722.57 1157.41 712.76 1155.49C677.41 1148.54 650.09 1124.34 639.68 1090.78C629.38 1057.56 638.06 1021.55 662.32 996.78C684.2 974.46 737.94 941.9 852 974.75C856.25 975.98 859.34 979.64 859.83 984.03C860.31 988.35 858.2 992.54 854.45 994.71C853.37 995.39 836.66 1006.67 840.66 1045.92C842.75 1066.53 839.07 1086.37 830.04 1103.26C818.32 1125.15 792 1158.29 740.06 1158.29Z" fill="white"/>
<path d="M739.37 1152.51C738.79 1151.54 738.53 1151.05 738.18 1150.38C737.85 1149.74 737.57 1149.13 737.29 1148.51C736.7 1147.28 736.29 1146.05 735.82 1144.82C735 1142.34 734.26 1139.86 733.8 1137.34C732.77 1132.33 732.39 1127.24 732.53 1122.2C732.73 1117.17 733.3 1112.18 734.67 1107.38C735.9 1102.57 737.82 1097.93 740.41 1093.65C741.18 1092.38 742.84 1091.98 744.1 1092.74C744.72 1093.12 745.13 1093.7 745.3 1094.35C745.31 1094.37 745.34 1094.46 745.34 1094.48C746.59 1099.18 747.4 1103.57 748.42 1107.83C748.7 1108.9 748.89 1109.95 749.13 1111C749.21 1111.31 749.85 1113.8 749.93 1114.11C750.34 1116.17 751 1118.18 751.5 1120.18C752.55 1124.18 753.85 1128.04 755.07 1131.82C755.19 1132.19 755.83 1134.04 756.99 1137.37L757.93 1140.03C758.2 1140.79 758.35 1141.21 758.38 1141.29C758.48 1141.66 758.71 1142.2 758.65 1142.24C756.76 1143.28 741.69 1151.59 739.8 1152.63C739.65 1152.71 739.46 1152.66 739.37 1152.51Z" fill="white"/>
<path d="M679.79 1138.93C679.24 1137.92 679.01 1137.42 678.69 1136.74C678.39 1136.09 678.14 1135.46 677.89 1134.84C677.35 1133.58 676.99 1132.33 676.57 1131.08C675.87 1128.57 675.25 1126.06 674.9 1123.52C674.09 1118.46 673.94 1113.36 674.3 1108.35C674.73 1103.32 675.52 1098.37 677.09 1093.62C678.53 1088.87 680.66 1084.32 683.44 1080.17C684.27 1078.93 685.93 1078.6 687.17 1079.43C687.76 1079.82 688.15 1080.43 688.3 1081.08C688.3 1081.09 688.32 1081.2 688.32 1081.22C689.36 1085.96 689.98 1090.38 690.8 1094.68C691.05 1095.77 691.18 1096.83 691.37 1097.88C691.44 1098.2 691.97 1100.72 692.03 1101.03C692.35 1103.11 692.93 1105.15 693.34 1107.17C694.21 1111.21 695.33 1115.12 696.39 1118.94C696.5 1119.32 697.05 1121.19 698.05 1124.57L698.88 1127.27C699.12 1128.05 699.25 1128.48 699.27 1128.56C699.36 1128.94 699.57 1129.48 699.5 1129.51C697.57 1130.47 682.13 1138.11 680.2 1139.06C680.05 1139.14 679.86 1139.07 679.79 1138.93Z" fill="white"/>
<path d="M691.55 597.84C693.29 608.21 708.11 614.38 724.64 611.62C741.2 608.87 753.2 598.21 751.47 587.84C749.74 577.46 734.93 571.29 718.38 574.05C701.84 576.81 689.83 587.46 691.55 597.84Z" fill="white"/>
<path d="M448.62 588.47C446.88 598.85 432.07 605.02 415.52 602.26C398.98 599.51 386.97 588.86 388.7 578.49C390.43 568.1 405.25 561.93 421.79 564.68C438.33 567.45 450.35 578.1 448.62 588.47Z" fill="white"/>
<path d="M344.97 700.97C340.46 737.82 359.54 770.49 387.59 773.93C415.65 777.38 442.06 750.29 446.58 713.45C451.11 676.6 432.03 643.94 403.97 640.49C375.92 637.05 349.5 664.13 344.97 700.97Z" fill="white"/>
<path d="M394.88 694.63C393.57 705.39 399.13 714.94 407.33 715.94C415.52 716.94 423.24 709.03 424.56 698.28C425.88 687.52 420.31 677.97 412.11 676.96C403.92 675.96 396.2 683.87 394.88 694.63Z" fill="white"/>
<path d="M796.39 700.97C800.9 737.82 781.82 770.49 753.77 773.93C725.71 777.38 699.29 750.29 694.78 713.45C690.25 676.6 709.33 643.94 737.39 640.49C765.44 637.05 791.86 664.13 796.39 700.97Z" fill="white"/>
<path d="M718.78 695.58C717.47 706.34 723.03 715.89 731.23 716.89C739.42 717.89 747.14 709.98 748.46 699.23C749.78 688.47 744.21 678.92 736.01 677.91C727.82 676.91 720.1 684.82 718.78 695.58Z" fill="white"/>
<path d="M895.66 1154.52C768.93 1220.38 563.41 1212.79 563.41 1212.79C563.41 1212.79 357.92 1220.38 231.2 1154.52C104.48 1088.61 186.23 1013.45 186.23 1013.45C169.67 974.33 186.82 943.26 201.07 926.14C208.93 916.73 215.88 911.53 215.88 911.53C215.88 911.53 304.2 1045.41 563.24 1045.53C563.28 1045.53 563.58 1045.53 563.62 1045.53C822.65 1045.38 910.97 911.53 910.97 911.53C910.97 911.53 918.06 916.82 926.02 926.43C940.21 943.61 957.09 974.57 940.62 1013.45C940.62 1013.45 1022.35 1088.61 895.66 1154.52Z" fill="white"/>
<path d="M563.62 1083.96C539.98 1083.96 517.77 1083.05 496.89 1081.32C497.08 1071.81 495.68 1062.18 492.58 1052.88C514.96 1054.84 538.35 1055.84 562.7 1055.87C562.88 1055.87 563.06 1055.87 563.23 1055.87C563.37 1055.87 563.49 1055.87 563.62 1055.87C588.01 1055.87 611.44 1054.89 633.87 1052.94C630.77 1062.26 629.38 1071.86 629.58 1081.38C608.93 1083.07 586.96 1083.96 563.62 1083.96ZM814.23 1032.87C814.21 1032.01 814.2 1031.15 814.2 1030.31C814.2 1019.26 815.95 1010.62 818.38 1003.93C856.77 983.84 888.4 958.05 912.71 926.99C915.1 929.43 917.81 932.45 920.53 936C917.65 940.76 914.59 945.42 911.35 949.97C890.32 979.53 859.47 1009.07 814.23 1032.87ZM312.95 1032.84C267.74 1009.04 236.91 979.51 215.88 949.97C212.57 945.31 209.46 940.56 206.53 935.72C209.27 932.18 211.98 929.18 214.36 926.77C238.5 957.67 269.87 983.39 307.93 1003.45C310.9 1010.35 313.25 1019.94 312.95 1032.84Z" fill="#B2B2D4"/>
<path d="M544.88 1202.67C492.25 1202.67 337.14 1197.92 235.98 1145.31C196.31 1124.69 174.47 1101.6 171.09 1076.71C170.74 1074.11 170.6 1071.56 170.65 1069.06C180.78 1085.41 199.44 1102.51 231.2 1119.03C334.17 1172.55 489.14 1177.57 543.62 1177.57C556.19 1177.57 563.41 1177.31 563.41 1177.31C563.41 1177.31 570.63 1177.57 583.21 1177.57C637.7 1177.57 792.69 1172.55 895.66 1119.03C927.42 1102.51 946.08 1085.4 956.21 1069.04C956.25 1071.55 956.12 1074.11 955.76 1076.71C952.39 1101.6 930.56 1124.69 890.88 1145.31C789.69 1197.93 634.51 1202.67 581.94 1202.67C570.72 1202.67 564.17 1202.46 563.81 1202.45C563.68 1202.44 563.56 1202.44 563.43 1202.44C563.31 1202.44 563.17 1202.44 563.05 1202.45C562.69 1202.46 556.13 1202.67 544.88 1202.67Z" fill="#B2B2D4"/>
<path d="M404.16 1165.98C350.47 1165.98 325.95 1133.68 314.85 1106.81C307.91 1089.99 306.86 1071.44 310.48 1053.61C312.06 1045.9 312.8 1038.99 312.95 1032.85C312.97 1032.85 312.99 1032.86 313.01 1032.88C312.94 1035.83 312.74 1038.96 312.41 1042.26C312.09 1045.44 311.92 1048.66 311.92 1051.84C311.92 1065.34 314.9 1078.69 321.3 1090.65C332.93 1112.41 355.41 1137.32 397.31 1137.32C404.69 1137.32 412.66 1136.55 421.28 1134.86C453.57 1128.51 474.92 1106.21 482.81 1080.01C487.44 1080.49 492.14 1080.93 496.89 1081.32C496.09 1121.99 466.4 1160.72 417.98 1165.3C413.17 1165.76 408.57 1165.98 404.16 1165.98Z" fill="#B2B2D4"/>
<path d="M496.89 1081.32C492.14 1080.92 487.44 1080.48 482.82 1080.01C485.52 1071.06 486.64 1061.65 486.09 1052.28C488.24 1052.48 490.4 1052.69 492.58 1052.88C495.69 1062.18 497.08 1071.81 496.89 1081.32ZM313.01 1032.88C312.99 1032.86 312.97 1032.85 312.95 1032.84C313.26 1019.95 310.91 1010.35 307.93 1003.45C308.24 1003.61 308.55 1003.77 308.85 1003.93C311.28 1010.61 313.04 1019.26 313.04 1030.31C313.04 1031.15 313.03 1032 313.01 1032.88Z" fill="#7C7CB6"/>
<path d="M722.31 1165.97C717.89 1165.97 713.29 1165.76 708.48 1165.31C660.1 1160.72 630.41 1122.01 629.58 1081.38C634.6 1080.97 639.54 1080.51 644.41 1080.01C652.31 1106.21 673.66 1128.51 705.96 1134.86C714.58 1136.55 722.54 1137.32 729.92 1137.32C771.82 1137.32 794.3 1112.4 805.94 1090.65C812.33 1078.69 815.31 1065.34 815.32 1051.85C815.32 1051.23 815.31 1050.61 815.3 1049.99C815.5 1051.18 815.73 1052.38 815.99 1053.61C819.61 1071.43 818.55 1089.99 811.62 1106.81C800.51 1133.68 775.99 1165.97 722.31 1165.97Z" fill="#B2B2D4"/>
<path d="M629.58 1081.38C629.38 1071.87 630.77 1062.25 633.86 1052.94C636.3 1052.73 638.74 1052.51 641.15 1052.28C640.6 1061.66 641.72 1071.06 644.42 1080.01C639.54 1080.51 634.61 1080.97 629.58 1081.38Z" fill="#7C7CB6"/>
<path d="M563.43 1202.44C563.56 1202.44 563.67 1202.44 563.81 1202.45C565.83 1202.52 768.09 1209.16 890.88 1145.31C930.55 1124.68 952.38 1101.6 955.75 1076.72C959.93 1045.95 933.87 1021.28 933.61 1021.03C930.42 1018.07 929.4 1013.41 931.1 1009.4C947.87 969.82 925.19 939.59 912.38 926.65C901.71 939.44 878.72 963.41 839.77 987.34C788.94 1018.57 699.78 1055.8 563.61 1055.87C563.49 1055.87 563.37 1055.87 563.23 1055.87C427.07 1055.8 337.91 1018.57 287.08 987.34C248.13 963.41 225.14 939.44 214.48 926.65C201.68 939.58 178.98 969.8 195.75 1009.4C197.46 1013.43 196.45 1018.1 193.22 1021.06C192.98 1021.28 166.92 1045.95 171.09 1076.72C174.47 1101.6 196.3 1124.68 235.98 1145.31C358.76 1209.16 561.01 1202.53 563.05 1202.45C563.17 1202.44 563.3 1202.44 563.43 1202.44ZM585.03 1223.45C573.26 1223.45 565.63 1223.22 563.43 1223.14C550.56 1223.58 352.6 1229.29 226.43 1163.68C180.34 1139.71 154.81 1111.32 150.55 1079.3C146.29 1047.22 164.9 1021.61 174.22 1011.03C156.64 960.11 189.17 918.56 209.7 903.23C211.98 901.52 214.86 900.84 217.68 901.33C220.48 901.82 222.96 903.45 224.53 905.82C224.73 906.13 246.67 938.49 299.09 970.42C347.56 999.94 432.76 1035.14 563.43 1035.17C694.1 1035.14 779.29 999.94 827.76 970.42C880.19 938.49 902.11 906.13 902.34 905.8C903.91 903.44 906.39 901.82 909.2 901.34C912 900.85 914.87 901.53 917.16 903.23C937.68 918.56 970.22 960.11 952.63 1011.03C961.96 1021.61 980.55 1047.22 976.29 1079.3C972.04 1111.32 946.52 1139.71 900.43 1163.68C795.86 1218.05 642 1223.45 585.03 1223.45Z" fill="#000072"/>
<path d="M194.81 1007.68L196.29 1009.72C197.34 1011.12 197.92 1011.9 198.04 1012.05C199.26 1013.6 200.48 1015.19 201.79 1016.73C204.36 1019.83 207.12 1022.84 210.05 1025.72C212.96 1028.64 216.11 1031.35 219.36 1034.06C222.59 1036.89 226.09 1039.35 229.7 1042.32C229.71 1042.33 229.82 1042.42 229.83 1042.43C230.88 1043.31 231.04 1044.86 230.15 1045.93C229.68 1046.51 228.98 1046.82 228.27 1046.82C223.41 1046.88 218.51 1046.17 213.84 1044.74C209.11 1043.41 204.64 1041.31 200.36 1038.91C196.05 1036.51 191.98 1033.68 188.19 1030.48C186.31 1028.86 184.46 1027.19 182.72 1025.36C181.87 1024.44 181 1023.53 180.18 1022.53C179.31 1021.52 178.62 1020.63 177.62 1019.2C174.34 1014.53 175.47 1008.08 180.13 1004.79C184.76 1001.54 191.15 1002.62 194.45 1007.18C194.47 1007.21 194.6 1007.38 194.81 1007.68Z" fill="#000072"/>
<path d="M949.24 1019.2C948.23 1020.62 947.55 1021.51 946.67 1022.53C945.86 1023.53 944.99 1024.44 944.13 1025.36C942.39 1027.18 940.55 1028.86 938.67 1030.47C934.88 1033.68 930.81 1036.51 926.5 1038.9C922.21 1041.31 917.75 1043.4 913.01 1044.73C908.35 1046.17 903.44 1046.88 898.58 1046.82C897.21 1046.8 896.11 1045.68 896.12 1044.31C896.14 1043.56 896.48 1042.88 897.02 1042.43C897.03 1042.42 897.14 1042.33 897.15 1042.32C900.76 1039.34 904.27 1036.88 907.5 1034.06C910.76 1031.34 913.89 1028.63 916.8 1025.72C919.73 1022.84 922.5 1019.83 925.07 1016.72C926.37 1015.18 927.6 1013.6 928.82 1012.05C928.93 1011.89 929.51 1011.11 930.56 1009.71L932.04 1007.68C932.25 1007.38 932.37 1007.22 932.39 1007.19C935.75 1002.56 942.21 1001.52 946.84 1004.86C951.42 1008.19 952.48 1014.58 949.24 1019.2Z" fill="#000072"/>
<path d="M492.33 423.45C492.33 423.45 405.56 245.28 249.88 167.58C219.01 152.17 181.51 166.76 169.3 199.03C132.89 295.26 78.05 501.56 193.99 666.42C193.99 666.42 279.67 493.32 492.33 423.45Z" fill="#FA9A2C"/>
<path d="M189.6 634.11C184.9 625.15 180.65 616.11 176.78 607.01C182.03 595.36 188.88 581.41 197.59 565.94C201.12 572.37 204.97 578.72 209.15 585.01C201.87 600.76 195.35 617.13 189.6 634.11ZM415.29 380.62C391.69 342.56 345.46 279.56 278.78 240.84C263.28 216.12 242 194.48 215.32 178.12C219.88 175.5 224.78 173.49 229.87 172.18C235.18 172.85 240.39 174.41 245.26 176.84C339.97 224.11 409.24 310.55 447.84 368.63C436.8 372.14 425.94 376.13 415.29 380.62Z" fill="#AF6B41"/>
<path d="M174.17 612.94C100.67 464.61 143.81 295.64 178.98 202.7C183.82 189.9 193.52 180.09 206.29 175.09C207.08 174.79 207.88 174.5 208.68 174.23C210.93 175.5 213.15 176.79 215.32 178.13C204.12 184.56 194.96 194.77 189.99 207.91C158.48 291.21 113.16 457.02 176.78 607.01C175.86 609.06 174.99 611.04 174.17 612.94Z" fill="#FDE1BF"/>
<path d="M188.14 638.48C183.08 630.05 178.43 621.51 174.17 612.93C174.99 611.03 175.86 609.06 176.78 607.01C180.65 616.11 184.9 625.15 189.6 634.12C189.11 635.57 188.62 637.02 188.14 638.48ZM215.32 178.12C213.15 176.79 210.93 175.49 208.68 174.23C213.6 172.6 218.71 171.79 223.81 171.79C225.84 171.79 227.86 171.92 229.88 172.17C224.78 173.49 219.88 175.49 215.32 178.12Z" fill="#E7D2C6"/>
<path d="M223.81 171.79C217.87 171.79 211.93 172.89 206.29 175.09C193.53 180.09 183.82 189.89 178.98 202.7C141.12 302.76 93.9999 490.97 193.2 646.65C203.63 629.24 223.94 598.65 255.81 564.12C298.88 517.45 371.84 454.94 477.54 417.56C456.34 378.7 374.46 241.33 245.26 176.84C238.54 173.48 231.18 171.79 223.81 171.79ZM193.99 676.77C190.63 676.77 187.47 675.15 185.53 672.38C133.59 598.53 109.58 509.09 114.17 406.52C117.99 321.19 141 244.59 159.62 195.37C166.46 177.29 180.72 162.87 198.75 155.82C216.82 148.74 237.14 149.65 254.5 158.32C411.52 236.69 498.03 411.52 501.64 418.92C502.94 421.61 503.03 424.73 501.86 427.49C500.7 430.23 498.4 432.35 495.56 433.28C289.79 500.89 204.1 669.32 203.26 671.03C201.64 674.29 198.41 676.47 194.77 676.75C194.51 676.76 194.25 676.77 193.99 676.77Z" fill="#000072"/>
<path d="M424.01 417.19C424.01 417.19 365.13 295.18 259.3 242.05C238.32 231.52 212.8 241.55 204.47 263.66C179.64 329.63 142.18 471.01 220.91 583.88C220.91 583.88 279.32 465.21 424.01 417.19Z" fill="#F471AC"/>
<path d="M183.73 412.75C185.39 355.67 200.65 303.18 214.15 267.31C217.15 259.37 223.13 253.3 231 250.23C234.48 248.86 238.07 248.19 241.65 248.19C246.1 248.19 250.52 249.23 254.66 251.3C322.8 285.51 371.41 350.23 396.11 389.31C392.57 391.03 389.06 392.8 385.58 394.64C357.68 357.99 317.08 315.4 265.21 289.37C259.52 286.51 253.5 285.17 247.57 285.17C231.65 285.17 216.45 294.86 210.38 310.98C200.98 335.96 189.76 371.76 183.73 412.75Z" fill="#AA4F9A"/>
<path d="M241.66 248.18C238.07 248.18 234.48 248.86 231 250.22C223.13 253.3 217.15 259.37 214.15 267.31C188.92 334.35 157.53 459.47 220.34 563.97C240.96 530.63 299.25 451.81 409.24 411.38C392.57 381.34 338.35 293.31 254.66 251.3C250.53 249.22 246.1 248.18 241.66 248.18ZM220.91 594.21C217.55 594.21 214.37 592.58 212.43 589.79C132.29 474.92 166.98 333.88 194.79 260.01C199.8 246.7 210.25 236.11 223.47 230.94C236.6 225.81 251.36 226.49 263.95 232.81C371.69 286.89 430.87 407.57 433.33 412.68C434.63 415.36 434.71 418.47 433.55 421.21C432.39 423.95 430.1 426.06 427.27 427C288.67 473.02 230.76 587.31 230.2 588.46C228.57 591.73 225.34 593.92 221.69 594.19C221.43 594.21 221.17 594.21 220.91 594.21Z" fill="#000072"/>
<path d="M634.91 423.45C634.91 423.45 721.69 245.28 877.36 167.58C908.23 152.17 945.75 166.76 957.95 199.03C994.35 295.26 1049.21 501.56 933.25 666.42C933.25 666.42 847.57 493.32 634.91 423.45Z" fill="#FA9A2C"/>
<path d="M939.11 638.48C933.01 619.93 925.99 602.09 918.08 585.01C922.27 578.73 926.12 572.36 929.66 565.95C939.89 584.12 947.55 600.2 953.07 612.93C948.81 621.51 944.17 630.05 939.11 638.48ZM711.96 380.62C701.3 376.13 690.44 372.13 679.4 368.63C717.99 310.54 787.27 224.11 881.98 176.84C888.7 173.48 896.06 171.79 903.44 171.79C908.53 171.79 913.64 172.6 918.56 174.23C888.75 190.96 865.23 214.11 848.46 240.84C781.78 279.56 735.54 342.56 711.96 380.62Z" fill="#AF6B41"/>
<path d="M649.7 417.56C755.4 454.94 828.36 517.45 871.43 564.12C903.31 598.65 923.62 629.24 934.04 646.65C1033.23 490.97 986.12 302.76 948.26 202.7C943.43 189.89 933.72 180.09 920.95 175.09C908.32 170.14 894.11 170.79 881.98 176.84C752.77 241.33 670.91 378.7 649.7 417.56ZM933.26 676.77C932.99 676.77 932.73 676.76 932.46 676.75C928.82 676.47 925.59 674.29 923.98 671.02C923.14 669.32 837.45 500.89 631.68 433.28C628.84 432.35 626.54 430.23 625.38 427.49C624.22 424.73 624.3 421.6 625.61 418.92C629.22 411.51 715.72 236.69 872.74 158.32C890.09 149.65 910.41 148.74 928.49 155.82C946.52 162.87 960.78 177.29 967.62 195.37C986.24 244.59 1009.24 321.19 1013.06 406.52C1017.67 509.09 993.65 598.53 941.72 672.38C939.77 675.15 936.61 676.77 933.26 676.77Z" fill="#000072"/>
<path d="M703.23 417.19C703.23 417.19 762.11 295.18 867.94 242.05C888.92 231.52 914.45 241.55 922.77 263.66C947.61 329.63 985.06 471.01 906.33 583.88C906.33 583.88 847.92 465.21 703.23 417.19Z" fill="#F471AC"/>
<path d="M943.5 412.75C937.48 371.76 926.26 335.96 916.86 310.98C910.79 294.86 895.6 285.17 879.67 285.17C873.74 285.17 867.72 286.51 862.03 289.37C810.15 315.4 769.57 357.99 741.66 394.64C738.17 392.8 734.65 391.02 731.11 389.3C755.78 350.23 804.34 285.57 872.58 251.3C876.72 249.23 881.14 248.19 885.58 248.19C889.17 248.19 892.78 248.86 896.24 250.23C904.11 253.3 910.09 259.37 913.08 267.31C926.59 303.18 941.86 355.68 943.5 412.75Z" fill="#AA4F9A"/>
<path d="M718 411.38C827.98 451.81 886.29 530.63 906.91 563.97C969.72 459.47 938.33 334.35 913.1 267.31C910.09 259.37 904.12 253.3 896.25 250.22C888.45 247.17 880.05 247.55 872.59 251.3C788.75 293.38 734.63 381.35 718 411.38ZM906.34 594.23C906.07 594.23 905.81 594.21 905.55 594.2C901.89 593.92 898.66 591.73 897.05 588.45C896.49 587.31 838.57 473.02 699.97 427C697.14 426.06 694.87 423.95 693.71 421.21C692.55 418.47 692.62 415.36 693.91 412.68C696.39 407.57 755.55 286.89 863.3 232.81C875.89 226.49 890.64 225.81 903.78 230.94C917 236.11 927.45 246.7 932.46 260.01C960.27 333.88 994.95 474.92 914.82 589.79C912.87 592.58 909.7 594.23 906.34 594.23Z" fill="#000072"/>
<path d="M911.36 911.53C863.66 978.53 765.53 1045.52 563.62 1045.52C361.71 1045.52 263.58 978.53 215.88 911.53C195.66 883.11 182.53 850.71 176.59 816.92C172.1 791.1 171.74 764.49 175.58 738.15C192.67 621.38 237.05 539.13 289.98 481.19C436.36 320.96 690.87 320.96 837.26 481.19C890.19 539.13 934.57 621.38 951.65 738.15C960.55 799 947.02 861.42 911.36 911.53Z" fill="#FA9A2C"/>
<path d="M950.62 816.83C950.62 816.83 893.05 769.23 809.97 811.44C755.51 839.09 689.04 824.78 652.76 775.64C626.61 740.24 600.26 686.81 579.52 606.24C575.28 589.75 551.95 589.75 547.71 606.24C526.97 686.81 500.62 740.24 474.47 775.64C438.19 824.78 371.73 839.09 317.27 811.44C234.18 769.23 176.62 816.83 176.62 816.83C176.62 816.84 176.59 816.91 176.59 816.92C182.53 850.71 195.66 883.12 215.88 911.53C263.57 978.53 361.71 1045.53 563.62 1045.53C765.53 1045.53 863.67 978.53 911.35 911.53C931.58 883.12 944.71 850.71 950.65 816.92C950.65 816.91 950.64 816.88 950.62 816.83Z" fill="white"/>
<path d="M941.25 810.58C931.29 804.79 913.74 796.75 890.52 794.56C905.88 755.43 910.53 712.41 904.35 670.15C897.09 620.61 884.93 577.3 869.29 539.42C905.95 595.57 930.14 662.65 941.41 739.64C944.92 763.67 944.82 787.55 941.25 810.58Z" fill="#AF6B41"/>
<path d="M563.62 1035.17C534.94 1035.17 507.66 1033.76 481.83 1030.96C470.43 998.4 436.4 970.94 375.08 970.94C355.67 970.94 333.52 973.7 308.49 979.9C273.77 960.18 245.53 935.31 224.33 905.52C221.81 901.98 219.42 898.39 217.13 894.74C274.51 940.91 367.05 977.52 516.31 977.52C579.53 977.52 632.56 970.95 677.06 959.88C683.84 964.69 692.05 967.44 700.7 967.44C718.73 967.44 734.07 955.66 739.44 939.38C800.03 913.9 839 878.71 864.05 843.52C874.95 828.21 883.77 811.75 890.53 794.54C913.75 796.73 931.29 804.78 941.27 810.58C935.96 844.87 923 877.3 902.93 905.52C881.71 935.31 853.48 960.18 818.76 979.9C793.73 973.7 771.58 970.94 752.17 970.94C690.85 970.94 656.82 998.4 645.41 1030.96C619.59 1033.76 592.31 1035.17 563.62 1035.17Z" fill="#B2B2D4"/>
<path d="M185.98 810.58C182.42 787.54 182.32 763.65 185.83 739.63C200.76 637.63 238.37 553.03 297.62 488.17C365.44 413.93 462.39 371.36 563.62 371.36C637.22 371.36 708.55 393.86 768.07 434.67C710.68 401.34 646.03 384.67 581.38 384.67C515.02 384.67 448.64 402.25 390.12 437.37C392.44 450.32 380.78 471.88 360.35 490.26C342.88 505.98 323.75 515.09 310.68 515.09C306.79 515.09 303.44 514.28 300.83 512.61C250.97 570.07 209.66 650.15 193.33 761.8C191.08 777.15 190.27 792.58 190.87 807.9C189.08 808.83 187.45 809.73 185.98 810.58Z" fill="#FDE1BF"/>
<path d="M196.94 853.38C191.92 839.57 188.25 825.25 185.98 810.58C187.45 809.73 189.08 808.83 190.87 807.9C191.3 818.88 192.45 829.8 194.33 840.57C195.09 844.86 195.95 849.14 196.94 853.38Z" fill="white"/>
<path d="M563.62 371.37C462.39 371.37 365.44 413.94 297.62 488.17C238.37 553.03 200.76 637.63 185.83 739.63C177.09 799.43 190.75 858.34 224.32 905.52C284.68 990.34 402.01 1035.18 563.62 1035.18C725.23 1035.18 842.56 990.34 902.92 905.52C936.49 858.34 950.15 799.43 941.41 739.63C926.48 637.63 888.88 553.03 829.62 488.17C761.8 413.94 664.86 371.37 563.62 371.37ZM563.62 1055.86C470.04 1055.86 390.66 1041.48 327.67 1013.08C276.66 990.08 236.22 957.94 207.46 917.52C170.78 865.97 155.83 801.74 165.36 736.64C180.89 630.48 220.25 542.18 282.34 474.22C354.07 395.69 456.59 350.67 563.62 350.67C670.65 350.67 773.17 395.69 844.91 474.22C906.99 542.18 946.36 630.46 961.89 736.64C971.41 801.74 956.46 865.97 919.78 917.52C891.02 957.94 850.58 990.08 799.57 1013.08C736.59 1041.48 657.2 1055.86 563.62 1055.86Z" fill="#000072"/>
<path d="M614.41 793.36C610.93 772.77 563.62 772.45 563.62 772.45C563.62 772.45 516.31 772.77 512.83 793.36C509.34 813.95 534.9 839.62 563.62 839.62C592.34 839.62 617.89 813.95 614.41 793.36Z" fill="#000072"/>
<path d="M573.83 833.06C573.83 833.37 573.82 834.45 573.87 835.21C573.89 836.05 573.95 836.91 574.03 837.77C574.2 839.49 574.42 841.24 574.72 842.94C575.31 846.37 576.26 849.69 577.47 852.83C579.9 859.1 583.6 864.46 588.44 868.65C593.35 872.75 599.42 875.75 606.24 877.6C613.05 879.34 620.64 880.17 628.09 880.12C629.95 880.16 631.77 880.05 633.58 879.89C635.41 879.82 637.15 879.49 638.91 879.23C640.7 879.01 642.35 878.5 644.08 878.18C645.68 877.61 647.42 877.27 648.94 876.55C655.25 874.1 660.69 870.14 664.8 864.69C673.31 853.93 677.1 838.11 678.91 822.13C678.92 822.1 678.95 821.9 678.95 821.88C679.12 820.33 680.53 819.21 682.08 819.39C683.21 819.52 684.1 820.28 684.44 821.28C687.34 829.84 688.22 838.66 687.53 847.76C686.8 856.8 684.13 866.16 678.8 874.46C673.55 882.79 665.42 889.58 656.5 893.73C647.56 898.1 637.99 899.71 628.79 900.26C619.63 900.72 610.47 900.26 601.11 898.09C591.83 895.85 582.39 891.79 574.51 885.17C570.6 881.87 567.1 878.04 564.2 873.84C561.33 869.64 559.04 865.11 557.3 860.46C555.54 855.81 554.4 851.03 553.72 846.24C553.35 843.85 553.14 841.44 553.05 839.02C553 837.8 552.99 836.59 553.01 835.34C553.04 834.03 553.05 833.02 553.21 831.26C553.7 825.59 558.7 821.38 564.38 821.87C569.67 822.32 573.69 826.7 573.81 831.89C573.81 831.97 573.82 832.36 573.83 833.06Z" fill="#000072"/>
<path d="M573.83 831.26C573.98 833.02 574 834.03 574.02 835.34C574.05 836.6 574.03 837.81 573.98 839.03C573.89 841.45 573.68 843.85 573.32 846.25C572.63 851.04 571.5 855.82 569.74 860.47C568 865.1 565.71 869.64 562.83 873.85C559.93 878.04 556.44 881.87 552.53 885.17C544.64 891.79 535.21 895.85 525.92 898.09C516.55 900.27 507.41 900.72 498.24 900.26C489.05 899.71 479.47 898.1 470.53 893.73C461.62 889.58 453.49 882.78 448.23 874.47C442.9 866.16 440.23 856.8 439.51 847.76C438.82 838.66 439.69 829.84 442.6 821.29C443.09 819.81 444.7 819.02 446.18 819.52C447.26 819.88 447.96 820.82 448.08 821.88C448.09 821.9 448.11 822.1 448.12 822.13C449.93 838.11 453.72 853.94 462.24 864.69C466.36 870.14 471.78 874.1 478.1 876.56C479.61 877.28 481.36 877.61 482.96 878.19C484.69 878.51 486.34 879.01 488.12 879.23C489.88 879.49 491.62 879.82 493.46 879.89C495.26 880.06 497.08 880.17 498.94 880.13C506.39 880.17 513.97 879.34 520.79 877.61C527.61 875.76 533.69 872.76 538.6 868.65C543.42 864.47 547.13 859.1 549.57 852.83C550.77 849.7 551.73 846.38 552.31 842.94C552.62 841.24 552.84 839.5 553 837.78C553.09 836.91 553.14 836.05 553.17 835.22C553.21 834.45 553.2 833.37 553.2 833.06C553.21 832.95 553.23 832.06 553.23 831.94C553.34 826.25 558.05 821.72 563.75 821.83C569.07 821.94 573.36 826.09 573.83 831.26Z" fill="#000072"/>
<path d="M403.52 877.95C403.52 877.75 403.52 877.57 403.52 877.38C403.52 875.97 403.64 874.6 403.88 873.26C404.63 874.02 405.41 874.74 406.24 875.43C405.29 876.21 404.38 877.06 403.52 877.95Z" fill="#B2B2D4"/>
<path d="M723.72 877.95C722.87 877.06 721.96 876.21 721 875.43C721.82 874.74 722.61 874.02 723.36 873.26C723.6 874.6 723.73 875.97 723.73 877.38C723.73 877.57 723.73 877.75 723.72 877.95Z" fill="#B2B2D4"/>
<path d="M681.5 821.71C681.5 821.71 669.15 851.33 626.38 851.33C583.62 851.33 586.46 794.94 586.46 794.94C584.92 794.94 577.24 794.94 563.42 794.94C549.6 794.94 541.92 794.94 540.38 794.94C540.38 794.94 543.23 851.33 500.47 851.33C457.7 851.33 445.36 821.71 445.36 821.71C445.36 821.71 436.8 890.29 495.4 890.29C554.01 890.29 563.42 849.57 563.42 849.57C563.42 849.57 572.85 890.29 631.45 890.29C690.05 890.29 681.5 821.71 681.5 821.71Z" fill="white"/>
<path d="M614.41 793.36C610.93 772.77 563.62 772.45 563.62 772.45C563.62 772.45 516.31 772.77 512.83 793.36C509.34 813.95 534.9 839.62 563.62 839.62C592.34 839.62 617.89 813.95 614.41 793.36Z" fill="#000072"/>
<path d="M573.83 833.06C573.83 833.37 573.82 834.45 573.87 835.21C573.89 836.05 573.95 836.91 574.03 837.77C574.2 839.49 574.42 841.24 574.72 842.94C575.31 846.37 576.26 849.69 577.47 852.83C579.9 859.1 583.6 864.46 588.44 868.65C593.35 872.75 599.42 875.75 606.24 877.6C613.05 879.34 620.64 880.17 628.09 880.12C629.95 880.16 631.77 880.05 633.58 879.89C635.41 879.82 637.15 879.49 638.91 879.23C640.7 879.01 642.35 878.5 644.08 878.18C645.68 877.61 647.42 877.27 648.94 876.55C655.25 874.1 660.69 870.14 664.8 864.69C673.31 853.93 677.1 838.11 678.91 822.13C678.92 822.1 678.95 821.9 678.95 821.88C679.12 820.33 680.53 819.21 682.08 819.39C683.21 819.52 684.1 820.28 684.44 821.28C687.34 829.84 688.22 838.66 687.53 847.76C686.8 856.8 684.13 866.16 678.8 874.46C673.55 882.79 665.42 889.58 656.5 893.73C647.56 898.1 637.99 899.71 628.79 900.26C619.63 900.72 610.47 900.26 601.11 898.09C591.83 895.85 582.39 891.79 574.51 885.17C570.6 881.87 567.1 878.04 564.2 873.84C561.33 869.64 559.04 865.11 557.3 860.46C555.54 855.81 554.4 851.03 553.72 846.24C553.35 843.85 553.14 841.44 553.05 839.02C553 837.8 552.99 836.59 553.01 835.34C553.04 834.03 553.05 833.02 553.21 831.26C553.7 825.59 558.7 821.38 564.38 821.87C569.67 822.32 573.69 826.7 573.81 831.89C573.81 831.97 573.82 832.36 573.83 833.06Z" fill="#000072"/>
<path d="M573.83 831.26C573.98 833.02 574 834.03 574.02 835.34C574.05 836.6 574.03 837.81 573.98 839.03C573.89 841.45 573.68 843.85 573.32 846.25C572.63 851.04 571.5 855.82 569.74 860.47C568 865.1 565.71 869.64 562.83 873.85C559.93 878.04 556.44 881.87 552.53 885.17C544.64 891.79 535.21 895.85 525.92 898.09C516.55 900.27 507.41 900.72 498.24 900.26C489.05 899.71 479.47 898.1 470.53 893.73C461.62 889.58 453.49 882.78 448.23 874.47C442.9 866.16 440.23 856.8 439.51 847.76C438.82 838.66 439.69 829.84 442.6 821.29C443.09 819.81 444.7 819.02 446.18 819.52C447.26 819.88 447.96 820.82 448.08 821.88C448.09 821.9 448.11 822.1 448.12 822.13C449.93 838.11 453.72 853.94 462.24 864.69C466.36 870.14 471.78 874.1 478.1 876.56C479.61 877.28 481.36 877.61 482.96 878.19C484.69 878.51 486.34 879.01 488.12 879.23C489.88 879.49 491.62 879.82 493.46 879.89C495.26 880.06 497.08 880.17 498.94 880.13C506.39 880.17 513.97 879.34 520.79 877.61C527.61 875.76 533.69 872.76 538.6 868.65C543.42 864.47 547.13 859.1 549.57 852.83C550.77 849.7 551.73 846.38 552.31 842.94C552.62 841.24 552.84 839.5 553 837.78C553.09 836.91 553.14 836.05 553.17 835.22C553.21 834.45 553.2 833.37 553.2 833.06C553.21 832.95 553.23 832.06 553.23 831.94C553.34 826.25 558.05 821.72 563.75 821.83C569.07 821.94 573.36 826.09 573.83 831.26Z" fill="#000072"/>
<path d="M628.87 880.14C628.61 880.14 628.35 880.14 628.09 880.13C627.9 880.13 627.7 880.13 627.5 880.13C620.24 880.13 612.88 879.3 606.24 877.6C599.42 875.76 593.35 872.76 588.44 868.65C583.6 864.47 579.9 859.1 577.47 852.83C576.26 849.7 575.31 846.38 574.72 842.94C574.46 841.47 574.25 839.98 574.1 838.48C580.08 837.2 585.74 834.91 590.85 831.89C595.46 845.36 605.72 860.52 628.6 860.52C657.36 860.52 671.75 841.59 677.81 830.17C675.69 843.3 671.88 855.75 664.8 864.69C660.68 870.14 655.25 874.1 648.93 876.56C647.42 877.28 645.67 877.61 644.08 878.18C642.34 878.5 640.7 879.01 638.92 879.24C637.15 879.5 635.41 879.82 633.58 879.89C632.02 880.04 630.46 880.14 628.87 880.14ZM498.17 880.14C496.58 880.14 495.01 880.04 493.46 879.89C491.62 879.82 489.88 879.5 488.12 879.24C486.33 879.01 484.7 878.5 482.96 878.18C481.36 877.61 479.61 877.28 478.1 876.56C471.78 874.1 466.35 870.14 462.24 864.69C455.24 855.86 451.44 843.59 449.29 830.64C455.5 842.1 469.89 860.52 498.26 860.52C521.24 860.52 531.5 845.22 536.08 831.7C541.21 834.78 546.92 837.13 552.94 838.44C552.79 839.94 552.58 841.46 552.31 842.94C551.73 846.38 550.76 849.7 549.57 852.83C547.13 859.1 543.43 864.47 538.6 868.65C533.69 872.76 527.61 875.76 520.79 877.6C514.16 879.3 506.79 880.13 499.54 880.13C499.34 880.13 499.14 880.13 498.94 880.13C498.69 880.14 498.43 880.14 498.17 880.14Z" fill="#B2B2D4"/>
<path d="M574.1 838.49C574.07 838.25 574.06 838.01 574.03 837.77C574.02 837.74 574.02 837.72 574.02 837.69C574.04 836.92 574.04 836.13 574.02 835.35C574 834.03 573.98 833.02 573.83 831.26C573.36 826.09 569.06 821.94 563.75 821.83C563.7 821.83 563.63 821.83 563.57 821.83C563.54 821.83 563.51 821.83 563.48 821.83C558.18 821.83 553.67 825.89 553.21 831.26C553.06 833.02 553.03 834.03 553 835.35C553 836.13 553 836.92 553.01 837.7C553 837.72 553 837.75 553 837.77C552.99 837.99 552.96 838.22 552.93 838.44C546.92 837.13 541.21 834.78 536.08 831.69C539.69 821 539.76 811.41 539.76 811.41C541.33 811.41 549.22 811.41 563.42 811.41C577.63 811.41 585.52 811.41 587.09 811.41C587.09 811.41 587.16 821.11 590.85 831.9C585.74 834.91 580.07 837.21 574.1 838.49Z" fill="#000072"/>
<path d="M625.3 890.29C591.96 890.29 576.51 875.84 569.4 861.35C569.51 861.05 569.62 860.76 569.74 860.46C571.5 855.81 572.63 851.04 573.32 846.25C573.69 843.85 573.89 841.44 573.99 839.03C574 838.58 574.01 838.14 574.02 837.69C574.02 837.71 574.02 837.75 574.03 837.77C574.06 838.01 574.07 838.25 574.1 838.49C574.26 839.97 574.46 841.47 574.73 842.95C575.3 846.38 576.27 849.69 577.46 852.83C579.9 859.1 583.6 864.47 588.44 868.64C593.35 872.76 599.42 875.75 606.24 877.61C612.87 879.29 620.25 880.13 627.5 880.13C627.7 880.13 627.9 880.13 628.09 880.13C628.35 880.13 628.61 880.13 628.87 880.13C630.46 880.13 632.03 880.04 633.58 879.89C635.41 879.82 637.15 879.49 638.92 879.23C640.7 879.01 642.34 878.5 644.07 878.18C645.67 877.62 647.42 877.28 648.93 876.56C655.25 874.1 660.69 870.14 664.8 864.69C671.88 855.75 675.68 843.29 677.81 830.17C680.44 825.24 681.51 821.71 681.51 821.71C681.51 821.71 681.6 821.93 681.75 822.27C682.55 828.59 688.72 890.29 625.3 890.29ZM553.02 837.69C552.99 836.91 552.99 836.14 553.01 835.35C553.04 834.03 553.05 833.03 553.21 831.26C553.67 825.89 558.17 821.83 563.48 821.83C563.51 821.83 563.54 821.83 563.57 821.83C563.56 821.83 563.56 821.83 563.55 821.83C557.94 821.83 553.35 826.32 553.24 831.94C553.23 832.05 553.21 832.95 553.21 833.06C553.2 833.37 553.22 834.45 553.18 835.22C553.14 836.03 553.09 836.86 553.02 837.69Z" fill="#000072"/>
<path d="M501.74 890.29C434.9 890.29 445.36 821.71 445.36 821.71C445.36 821.71 446.49 825.46 449.3 830.64C451.43 843.59 455.24 855.86 462.24 864.69C466.35 870.14 471.79 874.1 478.1 876.56C479.61 877.28 481.37 877.62 482.96 878.18C484.7 878.5 486.34 879.01 488.12 879.23C489.89 879.49 491.62 879.82 493.46 879.89C495.01 880.04 496.58 880.13 498.17 880.13C498.43 880.13 498.68 880.13 498.94 880.13C499.14 880.13 499.34 880.13 499.54 880.13C506.79 880.13 514.16 879.29 520.8 877.61C527.61 875.75 533.69 872.76 538.6 868.64C543.43 864.47 547.13 859.1 549.58 852.83C550.77 849.69 551.73 846.38 552.31 842.95C552.58 841.45 552.78 839.95 552.94 838.43C552.96 838.22 552.98 837.99 553 837.77C553.01 837.75 553.01 837.72 553.02 837.69C553.09 836.86 553.14 836.03 553.18 835.22C553.22 834.45 553.2 833.37 553.21 833.06C553.21 832.95 553.23 832.05 553.24 831.94C553.35 826.32 557.94 821.83 563.55 821.83C563.56 821.83 563.56 821.83 563.57 821.83C563.63 821.83 563.69 821.83 563.76 821.83C569.07 821.94 573.36 826.09 573.83 831.26C573.98 833.03 574 834.03 574.02 835.35C574.04 836.14 574.04 836.91 574.02 837.69C574.01 838.14 574 838.58 573.99 839.03C573.89 841.44 573.69 843.85 573.32 846.25C572.63 851.04 571.5 855.81 569.74 860.46C569.62 860.76 569.51 861.05 569.4 861.35C565.03 852.47 563.82 843.57 563.52 837.98C563.58 836.78 563.6 835.73 563.6 834.86C563.6 833.15 563.52 832.17 563.52 832.17C563.52 832.17 563.43 833.17 563.43 834.9C563.43 835.75 563.46 836.79 563.52 837.98C562.74 852.69 555.51 890.29 501.74 890.29Z" fill="#000072"/>
<path d="M563.52 837.98C563.46 836.8 563.43 835.76 563.43 834.9C563.43 833.17 563.52 832.17 563.52 832.17C563.52 832.17 563.59 833.15 563.59 834.87C563.59 835.73 563.58 836.78 563.52 837.98Z" fill="#000072"/>
<path d="M558.55 799.95C547.22 799.95 538.03 796.93 538.03 793.2C538.03 789.48 547.22 786.46 558.55 786.46C569.87 786.46 579.06 789.48 579.06 793.2C579.06 796.93 569.87 799.95 558.55 799.95Z" fill="#6666AA"/>
<path d="M294.24 983.73C294.24 983.73 317.09 996.32 312.42 1042.25C310.72 1058.94 313.4 1075.85 321.3 1090.64C334.99 1116.22 363.66 1146.18 421.28 1134.85C527.64 1113.94 515.35 920.03 294.24 983.73Z" fill="white"/>
<path d="M397.31 1137.32C355.42 1137.32 332.94 1112.41 321.29 1090.65C314.9 1078.69 311.93 1065.34 311.92 1051.84C311.93 1065.34 314.9 1078.69 321.29 1090.65C332.94 1112.41 355.42 1137.32 397.31 1137.32Z" fill="#7C7CB6"/>
<path d="M294.23 983.74C294.32 983.71 294.4 983.69 294.49 983.66C294.41 983.68 294.31 983.71 294.23 983.74Z" fill="#000072"/>
<path d="M397.31 1137.32C355.42 1137.32 332.94 1112.41 321.3 1090.65C314.9 1078.69 311.93 1065.34 311.92 1051.85C311.92 1048.65 312.08 1045.45 312.41 1042.26C312.84 1038 313.04 1034.03 313.04 1030.31C313.03 994.1 294.23 983.74 294.23 983.74C294.31 983.71 294.41 983.68 294.49 983.66C298.95 982.38 303.29 981.24 307.57 980.17C314.86 987.41 323.14 1000.48 326.7 1023.7C329.23 1040.27 336.07 1055.99 347.42 1068.32C360.77 1082.81 381.31 1097.51 409.7 1097.51C423.12 1097.51 438.3 1094.23 455.29 1086.07C468.41 1079.78 478.66 1070.98 486.12 1060.78C484.48 1094.67 461.27 1127 421.28 1134.86C412.65 1136.55 404.69 1137.32 397.31 1137.32Z" fill="#B2B2D4"/>
<path d="M322.71 1043.3C321.14 1058.72 323.81 1073.4 330.42 1085.77C348.54 1119.63 378.43 1132.72 419.28 1124.7C445.19 1119.61 465.18 1101.99 472.75 1077.57C480.25 1053.38 473.94 1027.16 456.28 1009.13C439.78 992.29 399.73 968.42 313.22 989.39C319.68 999.93 325.38 1016.99 322.71 1043.3ZM397.41 1147.66C348.2 1147.66 323.27 1116.27 312.18 1095.53C303.61 1079.52 300.14 1060.74 302.12 1041.21C305.92 1003.76 289.41 992.89 289.25 992.8C285.58 990.77 283.48 986.74 283.95 982.58C284.42 978.41 287.35 974.94 291.37 973.79C399.43 942.66 450.34 973.5 471.06 994.64C494.05 1018.11 502.27 1052.23 492.51 1083.7C482.65 1115.51 456.76 1138.42 423.27 1145.01C413.99 1146.84 405.38 1147.66 397.41 1147.66Z" fill="#000072"/>
<path d="M379.8 1132.46C379.74 1132.42 379.96 1131.91 380.06 1131.57C380.09 1131.49 380.23 1131.09 380.48 1130.37L381.38 1127.84C382.47 1124.69 383.07 1122.93 383.19 1122.58C384.35 1119.01 385.58 1115.36 386.58 1111.56C387.04 1109.67 387.67 1107.76 388.06 1105.81C388.14 1105.52 388.75 1103.16 388.82 1102.86C389.05 1101.87 389.22 1100.87 389.49 1099.86C390.46 1095.83 391.23 1091.66 392.41 1087.21C392.41 1087.2 392.44 1087.11 392.45 1087.1C392.8 1085.73 394.19 1084.92 395.55 1085.29C396.22 1085.46 396.75 1085.89 397.08 1086.43C399.53 1090.48 401.36 1094.87 402.52 1099.43C403.81 1103.99 404.35 1108.71 404.55 1113.48C404.67 1118.24 404.32 1123.06 403.34 1127.82C402.9 1130.2 402.21 1132.56 401.43 1134.91C400.98 1136.07 400.59 1137.24 400.03 1138.4C399.77 1138.98 399.5 1139.57 399.19 1140.17C398.85 1140.8 398.62 1141.26 398.07 1142.19C397.98 1142.33 397.8 1142.38 397.66 1142.3C396.47 1141.65 390.51 1138.37 379.8 1132.46Z" fill="#000072"/>
<path d="M435.84 1120.41C435.78 1120.38 435.98 1119.86 436.06 1119.5C436.09 1119.42 436.21 1119.02 436.43 1118.29L437.22 1115.73C438.16 1112.53 438.68 1110.75 438.79 1110.39C439.78 1106.77 440.85 1103.07 441.68 1099.24C442.06 1097.33 442.6 1095.39 442.91 1093.42C442.97 1093.12 443.48 1090.74 443.54 1090.44C443.72 1089.44 443.85 1088.44 444.08 1087.42C444.86 1083.34 445.44 1079.15 446.43 1074.66C446.43 1074.64 446.44 1074.54 446.45 1074.53C446.75 1073.15 448.11 1072.29 449.48 1072.58C450.15 1072.73 450.7 1073.13 451.06 1073.66C453.69 1077.6 455.71 1081.91 457.07 1086.4C458.56 1090.9 459.31 1095.6 459.72 1100.35C460.06 1105.11 459.91 1109.94 459.15 1114.73C458.82 1117.14 458.23 1119.51 457.56 1121.89C457.17 1123.08 456.82 1124.26 456.32 1125.45C456.08 1126.04 455.84 1126.64 455.56 1127.26C455.25 1127.91 455.03 1128.38 454.52 1129.32C454.45 1129.47 454.27 1129.52 454.12 1129.45C452.9 1128.85 446.81 1125.84 435.84 1120.41Z" fill="#000072"/>
<path d="M833 983.73C833 983.73 810.16 996.32 814.82 1042.25C816.52 1058.94 813.85 1075.86 805.94 1090.64C792.26 1116.23 763.58 1146.19 705.96 1134.85C599.6 1113.95 611.9 920.04 833 983.73Z" fill="white"/>
<path d="M729.92 1137.32C771.83 1137.32 794.3 1112.4 805.94 1090.64C812.33 1078.69 815.31 1065.34 815.32 1051.85C815.31 1065.34 812.33 1078.69 805.94 1090.64C794.3 1112.4 771.83 1137.32 729.92 1137.32Z" fill="#7C7CB6"/>
<path d="M833 983.73C832.92 983.71 832.82 983.68 832.74 983.65C832.83 983.69 832.92 983.71 833 983.73Z" fill="#000072"/>
<path d="M729.92 1137.32C722.55 1137.32 714.58 1136.56 705.97 1134.85C665.97 1127 642.76 1094.67 641.12 1060.78C648.58 1070.98 658.83 1079.77 671.94 1086.06C688.94 1094.22 704.12 1097.51 717.54 1097.51C745.92 1097.51 766.46 1082.8 779.81 1068.32C791.17 1055.98 798 1040.27 800.54 1023.7C804.09 1000.48 812.38 987.41 819.66 980.17C823.95 981.24 828.29 982.38 832.74 983.65C832.82 983.68 832.92 983.71 833 983.73C833 983.73 814.21 994.09 814.2 1030.32C814.2 1034.02 814.39 1037.99 814.82 1042.25C815.15 1045.44 815.32 1048.65 815.32 1051.85C815.31 1065.33 812.33 1078.69 805.94 1090.64C794.3 1112.41 771.82 1137.32 729.92 1137.32Z" fill="#B2B2D4"/>
<path d="M670.96 1009.13C653.31 1027.16 647 1053.38 654.5 1077.57C662.07 1102 682.05 1119.6 707.96 1124.7C748.8 1132.72 778.7 1119.63 796.82 1085.76C803.43 1073.4 806.1 1058.72 804.53 1043.3C801.86 1016.99 807.56 999.92 814.02 989.39C789.9 983.54 769.4 981.18 752.01 981.18C707.02 981.18 682.87 996.99 670.96 1009.13ZM729.83 1147.66C721.86 1147.66 713.25 1146.83 703.97 1145.01C670.47 1138.42 644.59 1115.5 634.73 1083.71C624.98 1052.23 633.2 1018.11 656.18 994.66C676.91 973.5 727.82 942.66 835.87 973.78C839.9 974.95 842.83 978.41 843.29 982.58C843.75 986.67 841.75 990.63 838.19 992.69C837.17 993.34 821.34 1004.02 825.13 1041.2C827.11 1060.73 823.63 1079.52 815.07 1095.53C803.97 1116.27 779.04 1147.66 729.83 1147.66Z" fill="#000072"/>
<path d="M729.17 1142.19C728.62 1141.27 728.38 1140.8 728.05 1140.17C727.74 1139.56 727.47 1138.98 727.2 1138.4C726.65 1137.23 726.25 1136.07 725.81 1134.9C725.03 1132.55 724.33 1130.2 723.9 1127.82C722.92 1123.06 722.56 1118.24 722.69 1113.47C722.88 1108.7 723.43 1103.98 724.72 1099.43C725.88 1094.87 727.7 1090.48 730.16 1086.43C730.89 1085.22 732.46 1084.84 733.65 1085.56C734.24 1085.92 734.63 1086.47 734.8 1087.09C734.8 1087.1 734.83 1087.2 734.83 1087.21C736.01 1091.66 736.78 1095.82 737.75 1099.86C738.01 1100.87 738.19 1101.87 738.42 1102.86C738.49 1103.15 739.1 1105.52 739.18 1105.81C739.57 1107.76 740.19 1109.67 740.66 1111.56C741.66 1115.35 742.89 1119.01 744.04 1122.59C744.16 1122.94 744.77 1124.69 745.86 1127.84L746.76 1130.37C747.01 1131.08 747.15 1131.48 747.18 1131.56C747.28 1131.91 747.5 1132.42 747.44 1132.45C745.65 1133.44 731.37 1141.31 729.58 1142.3C729.44 1142.37 729.25 1142.33 729.17 1142.19Z" fill="#000072"/>
<path d="M672.72 1129.32C672.21 1128.37 671.99 1127.89 671.69 1127.25C671.4 1126.63 671.17 1126.04 670.92 1125.45C670.42 1124.25 670.08 1123.07 669.68 1121.88C669.01 1119.51 668.42 1117.13 668.09 1114.72C667.33 1109.93 667.19 1105.1 667.52 1100.35C667.93 1095.59 668.68 1090.89 670.17 1086.4C671.53 1081.9 673.55 1077.59 676.18 1073.66C676.97 1072.48 678.55 1072.17 679.72 1072.95C680.28 1073.33 680.65 1073.9 680.79 1074.52C680.79 1074.53 680.81 1074.63 680.81 1074.64C681.79 1079.14 682.38 1083.33 683.16 1087.4C683.39 1088.43 683.52 1089.44 683.7 1090.44C683.76 1090.73 684.26 1093.12 684.33 1093.42C684.63 1095.39 685.18 1097.32 685.56 1099.23C686.39 1103.06 687.45 1106.76 688.45 1110.38C688.56 1110.74 689.08 1112.52 690.03 1115.72L690.81 1118.28C691.04 1119.01 691.16 1119.42 691.18 1119.5C691.27 1119.85 691.47 1120.37 691.4 1120.4C689.57 1121.3 674.95 1128.54 673.12 1129.45C672.97 1129.52 672.8 1129.45 672.72 1129.32Z" fill="#000072"/>
<path d="M683.87 616.7C685.52 626.53 699.56 632.38 715.22 629.76C730.9 627.15 742.27 617.06 740.64 607.24C739 597.4 724.96 591.55 709.29 594.17C693.62 596.79 682.24 606.87 683.87 616.7Z" fill="white"/>
<path d="M453.72 607.83C452.08 617.66 438.05 623.51 422.37 620.9C406.69 618.28 395.32 608.2 396.96 598.37C398.6 588.54 412.64 582.68 428.3 585.3C443.98 587.92 455.36 598.01 453.72 607.83Z" fill="white"/>
<path d="M355.53 714.41C351.25 749.32 369.33 780.27 395.9 783.53C422.49 786.79 447.51 761.13 451.79 726.23C456.08 691.32 438 660.38 411.42 657.11C384.85 653.86 359.82 679.51 355.53 714.41Z" fill="#000072"/>
<path d="M402.81 708.4C401.57 718.6 406.84 727.64 414.61 728.59C422.37 729.54 429.68 722.05 430.93 711.86C432.18 701.67 426.91 692.62 419.14 691.67C411.38 690.72 404.07 698.21 402.81 708.4Z" fill="white"/>
<path d="M783.19 714.41C787.47 749.32 769.39 780.27 742.82 783.53C716.23 786.79 691.21 761.13 686.93 726.23C682.64 691.32 700.71 660.38 727.3 657.11C753.87 653.86 778.9 679.51 783.19 714.41Z" fill="#000072"/>
<path d="M709.67 709.3C708.42 719.5 713.69 728.54 721.46 729.49C729.22 730.44 736.53 722.95 737.79 712.76C739.03 702.57 733.76 693.52 725.99 692.57C718.23 691.62 710.92 699.11 709.67 709.3Z" fill="white"/>
<path d="M436.9 358.5H693.83C693.83 358.8 693.82 358.97 693.82 359.01C695.76 263.05 700.37 167.37 707.65 72.7601C709.17 52.9501 703.42 33.6901 693.54 25.5901C652.79 -7.83992 477.94 -7.83992 437.18 25.5901C427.3 33.6901 421.56 52.9501 423.08 72.7601C430.35 167.32 434.96 262.94 436.9 358.84C436.9 358.82 436.9 358.74 436.9 358.61V358.5Z" fill="#101F3E"/>
<path d="M688.71 262.93C679.96 267.73 696.36 293.95 691.02 305.21C680.58 327.2 709.33 327.66 693.41 333.57C681.7 337.92 669.63 339.82 658.84 342C630.39 347.75 601.35 348.89 573 348.9C572.81 348.9 572.62 348.9 572.43 348.9C572.02 348.9 571.51 348.9 570.96 348.9C569.34 348.9 567.48 348.89 567.48 348.89C567.48 348.89 565.63 348.9 564.01 348.9C563.46 348.9 562.95 348.9 562.54 348.9C562.35 348.9 562.16 348.9 561.97 348.9C533.62 348.89 504.58 347.75 476.13 342C465.34 339.82 453.27 337.92 441.56 333.57C425.64 327.66 448.39 316.2 437.95 294.21C432.61 282.95 448.01 268.73 439.26 263.93C426.09 256.7 367.06 283.3 367.44 298.36C368.21 329.18 382.36 357.64 395.38 374.85C411.99 396.81 432.47 409.11 452.21 417.98C488.14 434.12 525.65 438.1 562.54 438.1C564.14 438.1 567.36 438.06 567.36 438.06C567.36 438.06 570.83 438.1 572.43 438.1C609.32 438.1 646.83 434.12 682.76 417.98C702.5 409.11 722.97 396.81 739.59 374.85C752.61 357.64 766.76 329.18 767.53 298.36C767.91 283.3 716.88 255.7 703.71 262.93" fill="#101F3E"/>
<path d="M433.3 287.3C433.3 319.26 433.3 337.01 433.3 340.56C433.3 350.72 441.45 358.96 451.5 358.96C474.19 358.96 655.66 358.96 678.35 358.96C688.4 358.96 696.54 350.72 696.54 340.56C696.54 337.01 696.54 319.26 696.54 287.3H433.3Z" fill="#5A3114"/>
<path d="M762.7 908.83C762.7 908.83 748.25 910.85 744.3 866.43C740.36 822 718.91 798.7 694.61 800.36C694.61 800.36 741.8 771.07 776.18 813.07C810.55 855.07 778.68 908.43 790.58 932.62C790.58 932.62 771.3 926.18 781.73 889.33C792.16 852.47 768.25 801.1 732.91 804.66C732.91 804.66 752.86 816.48 754.64 851.55C756.43 886.62 751.84 891.63 762.7 908.83Z" fill="#967E72"/>
<path d="M753.66 929.33C743.98 963.5 738.61 982.48 737.54 986.28C737.54 986.28 756.3 990.49 767.49 989.22C767.49 989.22 778.83 978.72 779.44 949.01C779.44 949.01 771.11 937.79 753.66 929.33Z" fill="#5A3114"/>
<path d="M637.02 896.44C609.15 896.62 594.96 897.54 594.46 899.19C602.9 904.7 589.37 896.92 587.46 903.21C585.54 909.5 611.35 913.83 601.97 911.39C601.23 913.83 599.3 931.29 598.56 933.73C632.5 950.83 688.28 976.93 732.17 982.92C733.94 977.19 748.15 931.33 749.93 925.6C749.93 925.6 739.62 915.63 665.63 890.97" fill="#351F17"/>
<path d="M608.29 913.63C599.85 908.11 591.87 910.9 593.79 904.61C595.71 898.32 595.39 896.48 604.77 898.92C605.49 896.57 603.23 897.73 603.95 895.38C593.06 892.04 594.53 895.83 582.4 892.51C571.85 889.62 560.83 872.52 549.36 870.68C549.36 870.68 535.35 873.16 533.9 889.26C533.9 889.26 569.76 919.03 606.07 938.31C606.56 936.73 607.29 928.5 608.29 913.63Z" fill="#5A3114"/>
<path d="M607.63 889.59C607.63 902.13 584.32 916.32 562.99 916.32C541.67 916.32 524.36 906.13 524.36 893.59C524.36 884.43 532.58 867.53 544.86 866.93C557.14 866.34 557.24 870.86 562.99 870.86C584.32 870.86 607.63 877.05 607.63 889.59Z" fill="#000072"/>
</svg>
