<svg width="432" height="510" viewBox="0 0 432 510" fill="none" xmlns="http://www.w3.org/2000/svg">
<path d="M431.956 299.575C431.956 415.465 335.333 509.555 216.317 509.555C97.3048 509.555 0.681 415.465 0.681 299.575C0.681 183.681 97.3048 97.6367 216.317 97.6367C335.333 97.6367 431.956 183.681 431.956 299.575Z" fill="#3E4A79"/>
<path d="M347.669 442.686C296.925 469.061 214.636 466.023 214.636 466.023C214.636 466.023 132.355 469.061 81.6156 442.686C30.8759 416.299 63.6086 386.203 63.6086 386.203C56.9779 370.54 63.8438 358.098 69.5528 351.244C72.7013 347.477 75.4818 345.395 75.4818 345.395C75.4818 345.395 110.847 399.002 214.568 399.047C214.583 399.047 214.705 399.047 214.72 399.047C318.437 398.987 353.802 345.395 353.802 345.395C353.802 345.395 356.64 347.515 359.826 351.361C365.509 358.239 372.268 370.635 365.672 386.203C365.672 386.203 398.397 416.299 347.669 442.686Z" fill="white"/>
<path d="M214.72 414.437C205.256 414.437 196.364 414.073 188 413.379C188.076 409.57 187.518 405.716 186.277 401.991C195.237 402.776 204.599 403.178 214.352 403.19C214.42 403.19 214.492 403.19 214.564 403.19C214.617 403.19 214.667 403.19 214.72 403.19C224.484 403.19 233.869 402.795 242.847 402.018C241.607 405.746 241.049 409.593 241.129 413.405C232.863 414.08 224.067 414.437 214.72 414.437ZM315.065 393.979C315.057 393.638 315.054 393.293 315.054 392.955C315.054 388.532 315.755 385.073 316.726 382.395C332.097 374.349 344.763 364.02 354.5 351.585C355.456 352.56 356.541 353.77 357.63 355.193C356.477 357.101 355.252 358.963 353.954 360.788C345.533 372.619 333.178 384.451 315.065 393.979ZM114.348 393.968C96.2465 384.439 83.903 372.612 75.4818 360.788C74.1579 358.922 72.9099 357.021 71.7415 355.079C72.834 353.66 73.9189 352.461 74.871 351.498C84.5364 363.868 97.1 374.167 112.342 382.201C113.533 384.963 114.47 388.805 114.348 393.968Z" fill="white"/>
<path d="M207.213 461.967C186.145 461.967 124.036 460.067 83.5312 439.003C67.6447 430.745 58.9049 421.5 57.5469 411.535C57.4065 410.492 57.3534 409.471 57.3724 408.47C61.4274 415.017 68.9003 421.864 81.6156 428.48C122.845 449.908 184.897 451.919 206.712 451.919C211.746 451.919 214.636 451.813 214.636 451.813C214.636 451.813 217.527 451.919 222.561 451.919C244.384 451.919 306.443 449.908 347.669 428.48C360.391 421.864 367.857 415.014 371.919 408.462C371.935 409.468 371.878 410.492 371.737 411.535C370.387 421.5 361.643 430.745 345.757 439.003C305.24 460.071 243.105 461.967 222.056 461.967C217.561 461.967 214.94 461.884 214.796 461.88C214.746 461.876 214.693 461.876 214.644 461.876C214.595 461.876 214.542 461.876 214.488 461.88C214.348 461.884 211.719 461.967 207.213 461.967Z" fill="white"/>
<path d="M150.874 447.276C129.374 447.276 119.557 434.348 115.107 423.583C112.334 416.85 111.909 409.422 113.362 402.287C113.992 399.195 114.291 396.434 114.352 393.972C114.356 393.972 114.363 393.976 114.375 393.983C114.344 395.167 114.269 396.419 114.136 397.739C114.003 399.017 113.939 400.299 113.939 401.578C113.939 406.979 115.13 412.328 117.69 417.115C122.352 425.828 131.35 435.805 148.128 435.805C151.083 435.805 154.273 435.498 157.725 434.819C170.657 432.277 179.203 423.344 182.367 412.855C184.218 413.049 186.099 413.223 188.003 413.379C187.681 429.663 175.793 445.171 156.405 447.007C154.478 447.192 152.638 447.276 150.874 447.276Z" fill="white"/>
<path d="M188 413.379C186.099 413.219 184.218 413.045 182.366 412.855C183.448 409.274 183.895 405.504 183.679 401.752C184.54 401.832 185.405 401.915 186.274 401.991C187.518 405.716 188.075 409.57 188 413.379ZM114.375 393.983C114.367 393.976 114.356 393.972 114.352 393.968C114.473 388.805 113.533 384.963 112.342 382.197C112.463 382.266 112.588 382.33 112.709 382.395C113.684 385.065 114.386 388.528 114.386 392.955C114.386 393.293 114.382 393.634 114.375 393.983Z" fill="white"/>
<path d="M278.258 447.272C276.491 447.272 274.651 447.189 272.724 447.01C253.351 445.171 241.463 429.675 241.129 413.401C243.14 413.242 245.12 413.056 247.069 412.855C250.233 423.344 258.783 432.277 271.715 434.815C275.167 435.494 278.353 435.801 281.308 435.801C298.086 435.801 307.088 425.825 311.746 417.115C314.306 412.324 315.497 406.983 315.501 401.578C315.501 401.331 315.497 401.084 315.494 400.838C315.573 401.312 315.668 401.794 315.77 402.287C317.223 409.422 316.798 416.853 314.022 423.587C309.572 434.344 299.755 447.272 278.258 447.272Z" fill="white"/>
<path d="M241.129 413.405C241.049 409.593 241.607 405.746 242.844 402.018C243.822 401.93 244.797 401.843 245.764 401.752C245.541 405.507 245.992 409.27 247.073 412.855C245.12 413.056 243.143 413.242 241.129 413.405Z" fill="white"/>
<path d="M214.644 461.876C214.693 461.876 214.743 461.876 214.796 461.88C215.608 461.907 296.591 464.566 345.757 439.003C361.643 430.745 370.383 421.5 371.734 411.535C373.406 399.218 362.971 389.34 362.865 389.242C361.586 388.054 361.184 386.188 361.863 384.583C368.578 368.735 359.492 356.63 354.364 351.449C350.093 356.57 340.886 366.167 325.292 375.753C304.941 388.255 269.238 403.163 214.716 403.19C214.667 403.19 214.621 403.19 214.564 403.19C160.043 403.163 124.344 388.255 103.992 375.753C88.3981 366.167 79.1916 356.57 74.9203 351.449C69.7956 356.627 60.7068 368.723 67.421 384.583C68.1076 386.196 67.7017 388.066 66.4119 389.253C66.3133 389.34 55.8778 399.218 57.5469 411.535C58.9011 421.5 67.6448 430.745 83.5274 439.003C132.689 464.566 213.677 461.911 214.488 461.88C214.542 461.876 214.591 461.876 214.644 461.876ZM223.293 470.29C218.581 470.29 215.524 470.199 214.644 470.165C209.493 470.343 130.223 472.627 79.7037 446.358C61.2492 436.761 51.0299 425.392 49.3229 412.571C47.6197 399.723 55.0698 389.473 58.7987 385.236C51.762 364.847 64.7884 348.209 73.0085 342.072C73.9227 341.389 75.0721 341.112 76.2025 341.309C77.3215 341.506 78.3192 342.159 78.9451 343.111C79.0247 343.232 87.8101 356.19 108.799 368.978C128.205 380.798 162.323 394.886 214.644 394.901C266.962 394.886 301.075 380.798 320.482 368.978C341.478 356.19 350.256 343.232 350.347 343.103C350.973 342.155 351.967 341.506 353.093 341.313C354.212 341.116 355.362 341.393 356.28 342.072C364.496 348.209 377.526 364.847 370.486 385.236C374.218 389.473 381.664 399.723 379.957 412.571C378.254 425.392 368.035 436.761 349.58 446.358C307.71 468.128 246.102 470.29 223.293 470.29Z" fill="white"/>
<path d="M67.0491 383.893L67.6409 384.712C68.0582 385.27 68.2934 385.581 68.3389 385.646C68.8282 386.264 69.3175 386.901 69.841 387.516C70.869 388.76 71.9729 389.962 73.1488 391.119C74.3134 392.284 75.5728 393.369 76.8777 394.457C78.1674 395.588 79.571 396.574 81.0162 397.765C81.02 397.769 81.0617 397.803 81.0655 397.807C81.4904 398.16 81.5511 398.782 81.1983 399.207C81.0048 399.442 80.7279 399.563 80.4434 399.567C78.4974 399.59 76.5363 399.305 74.6662 398.733C72.7733 398.198 70.9829 397.359 69.2645 396.396C67.5423 395.436 65.9111 394.306 64.3938 393.024C63.6389 392.375 62.9031 391.703 62.2051 390.975C61.8637 390.603 61.5147 390.239 61.1885 389.841C60.8395 389.435 60.5664 389.078 60.1643 388.506C58.848 386.639 59.2994 384.056 61.1695 382.736C63.0244 381.435 65.5811 381.867 66.9012 383.692C66.9126 383.707 66.9581 383.772 67.0491 383.893Z" fill="white"/>
<path d="M369.124 388.506C368.722 389.075 368.448 389.431 368.096 389.837C367.773 390.239 367.424 390.603 367.079 390.975C366.381 391.704 365.645 392.375 364.89 393.02C363.377 394.306 361.746 395.436 360.02 396.392C358.301 397.359 356.515 398.198 354.618 398.729C352.752 399.305 350.787 399.59 348.841 399.567C348.291 399.56 347.851 399.108 347.854 398.558C347.862 398.258 347.999 397.989 348.215 397.807C348.219 397.803 348.264 397.769 348.268 397.765C349.713 396.57 351.117 395.588 352.41 394.457C353.715 393.369 354.971 392.284 356.135 391.116C357.311 389.962 358.419 388.756 359.447 387.516C359.967 386.897 360.46 386.264 360.945 385.642C360.995 385.581 361.226 385.27 361.647 384.709L362.235 383.893C362.322 383.775 362.368 383.711 362.379 383.696C363.722 381.845 366.309 381.427 368.16 382.766C370 384.098 370.421 386.658 369.124 388.506Z" fill="white"/>
<path d="M186.175 149.966C186.175 149.966 151.432 78.6246 89.096 47.5116C76.7373 41.3399 61.7195 47.1854 56.8299 60.1055C42.2521 98.6344 20.2925 181.242 66.7153 247.25C66.7153 247.25 101.026 177.942 186.175 149.966Z" fill="white"/>
<path d="M64.959 234.314C63.0775 230.726 61.3743 227.107 59.8267 223.462C61.9282 218.796 64.6707 213.212 68.1568 207.021C69.5717 209.593 71.1118 212.138 72.7885 214.653C69.8714 220.958 67.2616 227.513 64.959 234.314ZM155.328 132.816C145.878 117.578 127.367 92.3526 100.666 76.8492C94.4598 66.9486 85.9399 58.2847 75.2579 51.7336C77.0825 50.6828 79.0437 49.8824 81.0845 49.3552C83.2087 49.6207 85.2951 50.2466 87.2448 51.2215C125.167 70.1464 152.907 104.757 168.358 128.014C163.942 129.421 159.595 131.018 155.328 132.816Z" fill="white"/>
<path d="M58.7797 225.836C29.351 166.444 46.6259 98.7899 60.7067 61.5773C62.6451 56.4487 66.5295 52.5226 71.6429 50.5197C71.9615 50.3983 72.2802 50.2807 72.5988 50.1745C73.4978 50.6828 74.3855 51.1987 75.2579 51.7374C70.7742 54.3131 67.1061 58.4023 65.1184 63.6598C52.498 97.0146 34.3545 163.406 59.8267 223.462C59.4587 224.285 59.1097 225.074 58.7797 225.836Z" fill="white"/>
<path d="M64.3749 236.063C62.3492 232.687 60.4867 229.273 58.7835 225.832C59.1097 225.074 59.4587 224.285 59.8267 223.462C61.3744 227.107 63.0775 230.73 64.959 234.318C64.7618 234.898 64.5645 235.483 64.3749 236.063ZM75.2579 51.7336C74.3855 51.1987 73.5016 50.6828 72.5988 50.1745C74.5675 49.5259 76.6122 49.1996 78.6568 49.1996C79.4686 49.1996 80.2803 49.2489 81.0845 49.3514C79.0437 49.8786 77.0863 50.6828 75.2579 51.7336Z" fill="white"/>
<path d="M78.6568 49.1959C76.2784 49.1959 73.8999 49.6397 71.6429 50.5235C66.5332 52.5226 62.6451 56.4449 60.7067 61.5735C45.5447 101.643 26.6805 177.001 66.4005 239.337C70.577 232.365 78.7098 220.116 91.4706 206.289C108.719 187.603 137.928 162.571 180.254 147.606C171.764 132.046 138.978 77.0427 87.2486 51.2215C84.5554 49.8749 81.608 49.1959 78.6568 49.1959ZM66.7153 251.396C65.3725 251.396 64.1055 250.747 63.3279 249.636C42.5328 220.07 32.9205 184.254 34.7565 143.187C36.289 109.021 45.4992 78.3476 52.9531 58.6375C55.6957 51.3998 61.4047 45.6301 68.6234 42.8041C75.8573 39.9705 83.994 40.3346 90.9471 43.8055C153.818 75.184 188.459 145.19 189.9 148.153C190.424 149.23 190.458 150.478 189.991 151.582C189.525 152.678 188.607 153.528 187.469 153.903C105.077 180.972 70.7628 248.414 70.429 249.097C69.7803 250.402 68.4868 251.274 67.0302 251.388C66.9278 251.392 66.8215 251.396 66.7153 251.396Z" fill="white"/>
<path d="M158.821 147.458C158.821 147.458 135.246 98.604 92.8666 77.331C84.4682 73.1166 74.2489 77.13 70.9146 85.9836C60.9685 112.4 45.9734 169.008 77.496 214.202C77.496 214.202 100.886 166.687 158.821 147.458Z" fill="white"/>
<path d="M62.611 145.679C63.2748 122.824 69.3858 101.809 74.7914 87.4478C75.99 84.269 78.3836 81.8375 81.5359 80.6046C82.9281 80.0584 84.3657 79.7891 85.8034 79.7891C87.5825 79.7891 89.354 80.2063 91.0079 81.0371C118.293 94.731 137.757 120.647 147.65 136.295C146.231 136.985 144.824 137.694 143.432 138.426C132.257 123.754 116.006 106.703 95.2336 96.2787C92.9576 95.1331 90.5451 94.5945 88.1704 94.5945C81.7976 94.5945 75.7093 98.4788 73.2816 104.931C69.5148 114.931 65.0235 129.269 62.611 145.679Z" fill="white"/>
<path d="M85.8034 79.7891C84.3696 79.7891 82.9281 80.0584 81.5359 80.6047C78.3837 81.8337 75.9901 84.269 74.7914 87.4478C64.6859 114.286 52.1186 164.388 77.2684 206.228C85.5265 192.88 108.867 161.323 152.908 145.133C146.231 133.101 124.522 97.8567 91.0117 81.0333C89.354 80.2026 87.5825 79.7891 85.8034 79.7891ZM77.496 218.341C76.1494 218.341 74.8786 217.688 74.101 216.569C42.0132 170.575 55.9006 114.1 67.0378 84.5232C69.0445 79.1935 73.2285 74.9526 78.5202 72.8852C83.7778 70.8292 89.6878 71.0986 94.7292 73.6325C137.867 95.2848 161.564 143.604 162.554 145.653C163.07 146.726 163.1 147.97 162.637 149.067C162.175 150.167 161.257 151.013 160.126 151.388C104.63 169.812 81.4411 215.575 81.2135 216.034C80.5649 217.347 79.2675 218.219 77.8109 218.329C77.7046 218.341 77.6022 218.341 77.496 218.341Z" fill="white"/>
<path d="M243.268 149.966C243.268 149.966 278.012 78.6246 340.344 47.5116C352.702 41.3399 367.728 47.1854 372.61 60.1055C387.188 98.6344 409.151 181.242 362.724 247.25C362.724 247.25 328.417 177.942 243.268 149.966Z" fill="white"/>
<path d="M365.069 236.063C362.626 228.636 359.819 221.493 356.647 214.653C358.324 212.138 359.868 209.589 361.287 207.021C365.383 214.297 368.448 220.734 370.656 225.832C368.953 229.273 367.094 232.687 365.069 236.063ZM274.116 132.816C269.848 131.018 265.497 129.417 261.082 128.018C276.532 104.757 304.269 70.1502 342.195 51.2215C344.884 49.8748 347.828 49.1996 350.783 49.1996C352.828 49.1996 354.872 49.5259 356.841 50.1745C344.903 56.8774 335.484 66.1445 328.774 76.8455C302.073 92.3526 283.557 117.578 274.116 132.816Z" fill="white"/>
<path d="M249.186 147.606C291.512 162.571 320.725 187.603 337.969 206.289C350.734 220.116 358.866 232.365 363.039 239.337C402.755 177.001 383.895 101.643 368.733 61.5735C366.798 56.4449 362.91 52.5226 357.797 50.5235C352.74 48.5396 347.05 48.7976 342.195 51.2215C290.458 77.0427 257.679 132.046 249.186 147.606ZM362.724 251.396C362.618 251.396 362.516 251.392 362.409 251.388C360.949 251.274 359.655 250.402 359.011 249.093C358.677 248.414 324.362 180.972 241.971 153.903C240.837 153.528 239.915 152.678 239.449 151.582C238.986 150.478 239.02 149.226 239.54 148.153C240.985 145.182 275.622 75.184 338.492 43.8055C345.438 40.3346 353.579 39.9705 360.816 42.8041C368.035 45.6301 373.744 51.3998 376.486 58.6375C383.94 78.3476 393.151 109.021 394.679 143.187C396.523 184.254 386.907 220.07 366.116 249.636C365.334 250.747 364.067 251.396 362.724 251.396Z" fill="white"/>
<path d="M270.622 147.458C270.622 147.458 294.194 98.604 336.569 77.331C344.972 73.1166 355.195 77.13 358.525 85.9836C368.471 112.4 383.466 169.008 351.944 214.202C351.944 214.202 328.558 166.687 270.622 147.458Z" fill="white"/>
<path d="M366.829 145.679C364.416 129.269 359.925 114.931 356.158 104.931C353.727 98.4788 347.646 94.5945 341.269 94.5945C338.895 94.5945 336.482 95.1331 334.202 96.2787C313.43 106.703 297.183 123.754 286.008 138.426C284.612 137.694 283.205 136.981 281.786 136.291C291.664 120.647 311.105 94.7576 338.428 81.0371C340.086 80.2063 341.857 79.7891 343.636 79.7891C345.074 79.7891 346.515 80.0584 347.904 80.6046C351.052 81.8375 353.45 84.269 354.648 87.4478C360.058 101.809 366.169 122.828 366.829 145.679Z" fill="white"/>
<path d="M276.536 145.133C320.573 161.323 343.917 192.88 352.175 206.228C377.325 164.388 364.754 114.286 354.652 87.4478C353.45 84.269 351.056 81.8337 347.908 80.6047C344.782 79.3832 341.421 79.5349 338.432 81.0333C304.865 97.8871 283.197 133.108 276.536 145.133ZM351.947 218.344C351.837 218.344 351.735 218.341 351.633 218.333C350.168 218.219 348.871 217.347 348.23 216.03C348.002 215.575 324.81 169.812 269.313 151.388C268.183 151.013 267.273 150.167 266.81 149.067C266.343 147.97 266.374 146.726 266.886 145.653C267.88 143.604 291.573 95.2848 334.714 73.6325C339.756 71.0986 345.662 70.8292 350.923 72.8852C356.215 74.9526 360.399 79.1935 362.406 84.5232C373.543 114.1 387.426 170.575 355.346 216.569C354.565 217.688 353.294 218.344 351.947 218.344Z" fill="white"/>
<path d="M353.958 345.395C334.859 372.221 295.567 399.047 214.72 399.047C133.873 399.047 94.5812 372.221 75.4818 345.395C67.3868 334.015 62.1292 321.041 59.7508 307.511C57.9489 297.177 57.8086 286.518 59.3487 275.973C66.1919 229.22 83.9599 196.286 105.153 173.082C163.764 108.929 265.672 108.929 324.286 173.082C345.48 196.286 363.252 229.22 370.091 275.973C373.653 300.337 368.236 325.328 353.958 345.395Z" fill="white"/>
<path d="M369.678 307.476C369.678 307.476 346.629 288.415 313.358 305.322C291.554 316.391 264.94 310.659 250.415 290.983C239.942 276.811 229.389 255.417 221.085 223.154C219.389 216.554 210.046 216.554 208.351 223.154C200.047 255.417 189.494 276.811 179.025 290.983C164.496 310.659 137.886 316.391 116.078 305.322C82.8105 288.415 59.7622 307.476 59.7622 307.476C59.7622 307.48 59.7508 307.507 59.7508 307.51C62.1292 321.041 67.3868 334.018 75.4818 345.394C94.5774 372.221 133.873 399.051 214.72 399.051C295.567 399.051 334.859 372.221 353.954 345.394C362.053 334.018 367.311 321.041 369.689 307.51C369.689 307.51 369.685 307.495 369.678 307.476Z" fill="white"/>
<path d="M365.926 304.973C361.935 302.659 354.91 299.434 345.613 298.558C351.762 282.892 353.624 265.666 351.151 248.744C348.245 228.909 343.378 211.57 337.112 196.4C351.792 218.883 361.476 245.744 365.99 276.568C367.398 286.188 367.356 295.751 365.926 304.973Z" fill="white"/>
<path d="M214.72 394.901C203.237 394.901 192.313 394.336 181.972 393.217C177.405 380.176 163.779 369.186 139.229 369.186C131.452 369.186 122.584 370.29 112.565 372.771C98.6628 364.877 87.3549 354.92 78.8654 342.986C77.8564 341.571 76.8967 340.133 75.9825 338.673C98.9549 357.158 136.012 371.819 195.776 371.819C221.089 371.819 242.324 369.19 260.145 364.752C262.857 366.683 266.146 367.783 269.606 367.783C276.828 367.783 282.97 363.064 285.12 356.547C309.382 346.343 324.984 332.254 335.014 318.166C339.376 312.032 342.912 305.443 345.616 298.551C354.918 299.431 361.939 302.655 365.934 304.973C363.809 318.705 358.62 331.689 350.582 342.986C342.089 354.92 330.781 364.877 316.878 372.771C306.86 370.29 297.991 369.186 290.215 369.186C265.664 369.186 252.039 380.176 247.468 393.217C237.131 394.336 226.206 394.901 214.72 394.901Z" fill="white"/>
<path d="M63.51 304.973C62.0837 295.747 62.0457 286.184 63.4531 276.564C69.4276 235.725 84.4871 201.847 108.211 175.882C135.367 146.153 174.188 129.11 214.72 129.11C244.19 129.11 272.75 138.119 296.584 154.457C273.604 141.112 247.718 134.44 221.832 134.44C195.26 134.44 168.68 141.476 145.249 155.542C146.178 160.724 141.509 169.357 133.33 176.716C126.331 183.009 118.676 186.659 113.442 186.659C111.883 186.659 110.544 186.332 109.497 185.665C89.5322 208.675 72.9933 240.74 66.4498 285.441C65.5546 291.586 65.2284 297.765 65.4673 303.899C64.7504 304.271 64.1017 304.635 63.51 304.973Z" fill="white"/>
<path d="M67.8988 322.111C65.8884 316.58 64.4204 310.849 63.51 304.977C64.0979 304.635 64.7504 304.271 65.4674 303.903C65.6381 308.296 66.1008 312.669 66.8519 316.982C67.1554 318.701 67.5043 320.412 67.8988 322.111Z" fill="white"/>
<path d="M214.72 129.11C174.188 129.11 135.367 146.157 108.211 175.882C84.4871 201.851 69.4276 235.725 63.4531 276.564C59.948 300.512 65.4218 324.099 78.8616 342.989C103.029 376.951 150.009 394.905 214.72 394.905C279.43 394.905 326.407 376.951 350.578 342.989C364.018 324.099 369.492 300.512 365.99 276.564C360.012 235.725 344.956 201.851 321.229 175.882C294.073 146.157 255.255 129.11 214.72 129.11ZM214.72 403.186C177.249 403.186 145.465 397.428 120.243 386.055C99.8198 376.849 83.626 363.978 72.1095 347.796C57.4255 327.152 51.4396 301.434 55.2519 275.366C61.4729 232.858 77.2304 197.504 102.092 170.29C130.815 138.851 171.867 120.822 214.72 120.822C257.573 120.822 298.625 138.851 327.351 170.29C352.209 197.504 367.97 232.854 374.188 275.366C378 301.434 372.014 327.152 357.33 347.796C345.814 363.978 329.624 376.849 309.197 386.055C283.979 397.428 252.19 403.186 214.72 403.186Z" fill="white"/>
<path d="M235.056 298.08C233.664 289.834 214.72 289.708 214.72 289.708C214.72 289.708 195.78 289.834 194.384 298.08C192.988 306.323 203.218 316.599 214.72 316.599C226.217 316.599 236.452 306.323 235.056 298.08Z" fill="white"/>
<path d="M218.809 313.974C218.809 314.1 218.801 314.532 218.824 314.835C218.836 315.169 218.855 315.514 218.889 315.86C218.957 316.55 219.044 317.248 219.166 317.931C219.397 319.308 219.784 320.635 220.262 321.891C221.241 324.402 222.724 326.549 224.658 328.226C226.623 329.868 229.055 331.067 231.786 331.811C234.513 332.505 237.552 332.839 240.533 332.82C241.281 332.835 242.009 332.789 242.73 332.725C243.466 332.698 244.16 332.569 244.869 332.463C245.582 332.372 246.242 332.171 246.937 332.042C247.578 331.814 248.276 331.678 248.883 331.39C251.409 330.411 253.586 328.821 255.233 326.64C258.643 322.331 260.16 315.996 260.885 309.597C260.885 309.589 260.896 309.506 260.9 309.498C260.968 308.876 261.53 308.428 262.155 308.501C262.603 308.554 262.96 308.857 263.096 309.259C264.261 312.685 264.61 316.216 264.333 319.862C264.045 323.48 262.975 327.228 260.839 330.551C258.738 333.886 255.483 336.605 251.91 338.271C248.333 340.016 244.497 340.66 240.814 340.88C237.15 341.066 233.478 340.884 229.73 340.012C226.013 339.117 222.234 337.493 219.082 334.841C217.516 333.518 216.116 331.985 214.951 330.305C213.802 328.62 212.884 326.807 212.186 324.948C211.484 323.086 211.029 321.17 210.756 319.255C210.608 318.295 210.524 317.331 210.49 316.364C210.467 315.875 210.464 315.389 210.471 314.889C210.483 314.365 210.49 313.959 210.551 313.257C210.748 310.981 212.747 309.297 215.023 309.494C217.144 309.676 218.748 311.429 218.798 313.508C218.801 313.538 218.801 313.694 218.809 313.974Z" fill="white"/>
<path d="M218.809 313.257C218.866 313.959 218.877 314.365 218.885 314.889C218.896 315.389 218.889 315.879 218.866 316.364C218.832 317.331 218.748 318.295 218.6 319.255C218.327 321.174 217.872 323.086 217.17 324.948C216.476 326.807 215.558 328.624 214.405 330.308C213.241 331.985 211.845 333.518 210.278 334.841C207.122 337.493 203.344 339.117 199.626 340.012C195.875 340.884 192.21 341.066 188.542 340.88C184.859 340.66 181.024 340.016 177.447 338.271C173.877 336.605 170.622 333.886 168.517 330.555C166.381 327.228 165.312 323.48 165.027 319.862C164.747 316.216 165.096 312.685 166.26 309.263C166.461 308.671 167.106 308.353 167.698 308.554C168.126 308.698 168.411 309.073 168.456 309.498C168.46 309.506 168.472 309.589 168.472 309.597C169.196 315.996 170.713 322.335 174.124 326.64C175.774 328.821 177.947 330.407 180.477 331.393C181.084 331.682 181.782 331.814 182.423 332.042C183.118 332.171 183.774 332.376 184.491 332.463C185.196 332.565 185.891 332.698 186.626 332.729C187.347 332.793 188.076 332.839 188.823 332.82C191.804 332.839 194.843 332.509 197.574 331.814C200.301 331.071 202.733 329.872 204.702 328.226C206.632 326.549 208.116 324.402 209.094 321.891C209.572 320.635 209.959 319.308 210.191 317.935C210.316 317.248 210.403 316.554 210.468 315.863C210.506 315.514 210.524 315.169 210.536 314.839C210.555 314.532 210.551 314.1 210.551 313.974C210.551 313.929 210.559 313.572 210.559 313.527C210.604 311.247 212.489 309.434 214.773 309.479C216.901 309.521 218.619 311.186 218.809 313.257Z" fill="white"/>
<path d="M282.382 351.445C282.382 358.512 276.661 364.232 269.602 364.232C264.416 364.232 259.955 361.152 257.956 356.702C249.307 356.702 180.132 356.702 171.483 356.702C169.484 361.152 165.02 364.232 159.834 364.232C152.782 364.232 147.062 358.512 147.062 351.445C147.062 347.477 148.86 343.938 151.701 341.594C148.86 339.227 147.062 335.687 147.062 331.72C147.062 324.668 152.782 318.947 159.834 318.947C164.405 318.947 168.418 321.349 170.679 324.948C179.487 324.948 249.952 324.948 258.76 324.948C261.021 321.349 265.035 318.947 269.602 318.947C276.661 318.947 282.382 324.668 282.382 331.72C282.382 335.687 280.58 339.227 277.739 341.594C280.58 343.938 282.382 347.477 282.382 351.445Z" fill="white"/>
<path d="M269.606 360.678C265.979 360.678 262.679 358.546 261.196 355.242C260.623 353.967 259.356 353.148 257.956 353.148C249.307 353.148 180.132 353.148 171.483 353.148C170.087 353.148 168.821 353.967 168.244 355.242C166.761 358.546 163.461 360.678 159.838 360.678C154.751 360.678 150.613 356.532 150.613 351.445C150.613 350.88 150.662 350.322 150.764 349.78C153.074 352.12 156.284 353.573 159.838 353.573C165.023 353.573 169.484 350.497 171.483 346.043C180.132 346.043 249.307 346.043 257.956 346.043C259.955 350.497 264.42 353.573 269.606 353.573C273.156 353.573 276.365 352.12 278.679 349.78C278.778 350.322 278.827 350.88 278.827 351.445C278.827 356.532 274.692 360.678 269.606 360.678Z" fill="white"/>
<path d="M150.616 331.947C150.616 331.871 150.616 331.795 150.616 331.72C150.616 331.158 150.662 330.608 150.76 330.069C151.056 330.377 151.371 330.665 151.701 330.938C151.322 331.253 150.958 331.594 150.616 331.947Z" fill="white"/>
<path d="M278.823 331.947C278.486 331.594 278.122 331.253 277.738 330.938C278.065 330.665 278.383 330.377 278.679 330.069C278.778 330.608 278.827 331.158 278.827 331.72C278.827 331.795 278.827 331.871 278.823 331.947Z" fill="white"/>
<path d="M171.487 353.148C223.369 353.148 252.19 353.148 257.956 353.148C259.356 353.148 260.623 353.971 261.192 355.242C262.679 358.546 265.979 360.678 269.606 360.678C274.689 360.678 278.827 356.536 278.827 351.445C278.827 348.683 277.606 346.092 275.474 344.336C274.662 343.665 274.188 342.663 274.184 341.605C274.184 340.547 274.651 339.541 275.462 338.866C277.602 337.083 278.827 334.481 278.827 331.723C278.827 326.636 274.689 322.498 269.606 322.498C266.404 322.498 263.476 324.122 261.765 326.838C261.116 327.877 259.982 328.503 258.757 328.503C249.952 328.503 179.487 328.503 170.679 328.503C169.458 328.503 168.32 327.877 167.671 326.838C165.964 324.122 163.032 322.498 159.834 322.498C154.751 322.498 150.612 326.636 150.612 331.723C150.612 334.481 151.834 337.083 153.973 338.866C154.789 339.541 155.256 340.547 155.252 341.605C155.252 342.663 154.778 343.665 153.966 344.336C151.83 346.092 150.612 348.683 150.612 351.445C150.612 356.536 154.751 360.678 159.834 360.678C163.461 360.678 166.761 358.546 168.244 355.242C168.82 353.971 170.087 353.148 171.487 353.148ZM269.606 367.783C263.991 367.783 258.817 364.892 255.847 360.253C247.623 360.253 181.816 360.253 173.589 360.253C170.626 364.892 165.448 367.783 159.834 367.783C150.833 367.783 143.511 360.454 143.511 351.445C143.511 347.834 144.684 344.393 146.815 341.586C144.684 338.771 143.511 335.323 143.511 331.723C143.511 322.718 150.833 315.397 159.834 315.397C164.803 315.397 169.405 317.608 172.492 321.398C180.936 321.398 248.499 321.398 256.943 321.398C260.031 317.608 264.636 315.397 269.606 315.397C278.603 315.397 285.928 322.718 285.928 331.723C285.928 335.323 284.752 338.771 282.62 341.586C284.752 344.393 285.928 347.837 285.928 351.445C285.928 360.454 278.603 367.783 269.606 367.783Z" fill="white"/>
<path d="M261.92 309.43C261.92 309.43 256.974 321.292 239.851 321.292C222.728 321.292 223.866 298.71 223.866 298.71C223.251 298.71 220.175 298.71 214.64 298.71C209.106 298.71 206.029 298.71 205.415 298.71C205.415 298.71 206.557 321.292 189.433 321.292C172.31 321.292 167.368 309.43 167.368 309.43C167.368 309.43 163.939 336.894 187.404 336.894C210.873 336.894 214.64 320.586 214.64 320.586C214.64 320.586 218.415 336.894 241.88 336.894C265.346 336.894 261.92 309.43 261.92 309.43Z" fill="white"/>
<path d="M235.056 298.08C233.664 289.834 214.72 289.708 214.72 289.708C214.72 289.708 195.78 289.834 194.384 298.08C192.988 306.323 203.218 316.599 214.72 316.599C226.217 316.599 236.452 306.323 235.056 298.08Z" fill="white"/>
<path d="M218.809 313.974C218.809 314.1 218.801 314.532 218.824 314.835C218.836 315.169 218.855 315.514 218.889 315.86C218.957 316.55 219.044 317.248 219.166 317.931C219.397 319.308 219.784 320.635 220.262 321.891C221.241 324.402 222.724 326.549 224.658 328.226C226.623 329.868 229.055 331.067 231.786 331.811C234.513 332.505 237.552 332.839 240.533 332.82C241.281 332.835 242.009 332.789 242.73 332.725C243.466 332.698 244.16 332.569 244.869 332.463C245.582 332.372 246.242 332.171 246.937 332.042C247.578 331.814 248.276 331.678 248.883 331.39C251.409 330.411 253.586 328.821 255.233 326.64C258.643 322.331 260.16 315.996 260.885 309.597C260.885 309.589 260.896 309.506 260.9 309.498C260.968 308.876 261.53 308.428 262.155 308.501C262.603 308.554 262.96 308.857 263.096 309.259C264.261 312.685 264.61 316.216 264.333 319.862C264.045 323.48 262.975 327.228 260.839 330.551C258.738 333.886 255.483 336.605 251.91 338.271C248.333 340.016 244.497 340.66 240.814 340.88C237.15 341.066 233.478 340.884 229.73 340.012C226.013 339.117 222.234 337.493 219.082 334.841C217.516 333.518 216.116 331.985 214.951 330.305C213.802 328.62 212.884 326.807 212.186 324.948C211.484 323.086 211.029 321.17 210.756 319.255C210.608 318.295 210.524 317.331 210.49 316.364C210.467 315.875 210.464 315.389 210.471 314.889C210.483 314.365 210.49 313.959 210.551 313.257C210.748 310.981 212.747 309.297 215.023 309.494C217.144 309.676 218.748 311.429 218.798 313.508C218.801 313.538 218.801 313.694 218.809 313.974Z" fill="white"/>
<path d="M218.809 313.257C218.866 313.959 218.877 314.365 218.885 314.889C218.896 315.389 218.889 315.879 218.866 316.364C218.832 317.331 218.748 318.295 218.6 319.255C218.327 321.174 217.872 323.086 217.17 324.948C216.476 326.807 215.558 328.624 214.405 330.308C213.241 331.985 211.845 333.518 210.278 334.841C207.122 337.493 203.344 339.117 199.626 340.012C195.875 340.884 192.21 341.066 188.542 340.88C184.859 340.66 181.024 340.016 177.447 338.271C173.877 336.605 170.622 333.886 168.517 330.555C166.381 327.228 165.312 323.48 165.027 319.862C164.747 316.216 165.096 312.685 166.26 309.263C166.461 308.671 167.106 308.353 167.698 308.554C168.126 308.698 168.411 309.073 168.456 309.498C168.46 309.506 168.472 309.589 168.472 309.597C169.196 315.996 170.713 322.335 174.124 326.64C175.774 328.821 177.947 330.407 180.477 331.393C181.084 331.682 181.782 331.814 182.423 332.042C183.118 332.171 183.774 332.376 184.491 332.463C185.196 332.565 185.891 332.698 186.626 332.729C187.347 332.793 188.076 332.839 188.823 332.82C191.804 332.839 194.843 332.509 197.574 331.814C200.301 331.071 202.733 329.872 204.702 328.226C206.632 326.549 208.116 324.402 209.094 321.891C209.572 320.635 209.959 319.308 210.191 317.935C210.316 317.248 210.403 316.554 210.468 315.863C210.506 315.514 210.524 315.169 210.536 314.839C210.555 314.532 210.551 314.1 210.551 313.974C210.551 313.929 210.559 313.572 210.559 313.527C210.604 311.247 212.489 309.434 214.773 309.479C216.901 309.521 218.619 311.186 218.809 313.257Z" fill="white"/>
<path d="M240.845 332.823C240.742 332.823 240.636 332.823 240.533 332.82C240.458 332.82 240.378 332.82 240.298 332.82C237.393 332.82 234.445 332.49 231.786 331.811C229.055 331.071 226.623 329.868 224.658 328.226C222.72 326.553 221.241 324.402 220.262 321.891C219.784 320.639 219.397 319.308 219.162 317.931C219.059 317.343 218.976 316.743 218.919 316.148C221.309 315.636 223.573 314.714 225.622 313.508C227.469 318.902 231.574 324.971 240.738 324.971C252.255 324.971 258.017 317.388 260.445 312.817C259.591 318.075 258.066 323.059 255.233 326.64C253.586 328.821 251.409 330.411 248.879 331.393C248.276 331.678 247.574 331.814 246.937 332.042C246.239 332.171 245.582 332.376 244.869 332.463C244.164 332.569 243.466 332.698 242.73 332.729C242.108 332.785 241.486 332.823 240.845 332.823ZM188.512 332.823C187.878 332.823 187.249 332.785 186.626 332.729C185.891 332.698 185.196 332.569 184.491 332.463C183.774 332.376 183.118 332.171 182.423 332.042C181.782 331.814 181.081 331.678 180.474 331.393C177.947 330.411 175.774 328.821 174.127 326.64C171.324 323.105 169.799 318.193 168.942 313.003C171.426 317.593 177.189 324.971 188.55 324.971C197.752 324.971 201.86 318.841 203.693 313.432C205.749 314.661 208.032 315.602 210.445 316.129C210.38 316.732 210.297 317.335 210.191 317.931C209.959 319.308 209.572 320.639 209.094 321.891C208.119 324.402 206.632 326.553 204.702 328.226C202.733 329.868 200.301 331.071 197.57 331.811C194.915 332.49 191.967 332.82 189.062 332.82C188.982 332.82 188.902 332.82 188.823 332.82C188.72 332.823 188.618 332.823 188.512 332.823Z" fill="white"/>
<path d="M218.915 316.148C218.904 316.053 218.896 315.954 218.889 315.86C218.885 315.852 218.885 315.841 218.885 315.829C218.893 315.522 218.893 315.207 218.885 314.889C218.877 314.365 218.866 313.959 218.805 313.257C218.619 311.182 216.901 309.521 214.773 309.479C214.75 309.479 214.727 309.479 214.701 309.479C214.686 309.479 214.678 309.479 214.663 309.479C212.542 309.479 210.737 311.103 210.551 313.257C210.49 313.959 210.479 314.365 210.468 314.889C210.468 315.207 210.468 315.522 210.471 315.833C210.468 315.841 210.468 315.856 210.468 315.86C210.464 315.951 210.452 316.042 210.441 316.129C208.032 315.605 205.745 314.661 203.693 313.428C205.138 309.145 205.164 305.307 205.164 305.307C205.798 305.307 208.954 305.307 214.64 305.307C220.326 305.307 223.486 305.307 224.12 305.307C224.12 305.307 224.146 309.187 225.622 313.508C223.577 314.714 221.309 315.636 218.915 316.148Z" fill="white"/>
<path d="M239.414 336.89C226.066 336.89 219.879 331.105 217.034 325.301C217.079 325.184 217.125 325.066 217.17 324.948C217.876 323.086 218.327 321.174 218.604 319.255C218.752 318.295 218.832 317.331 218.87 316.364C218.877 316.186 218.881 316.008 218.885 315.829C218.885 315.837 218.885 315.852 218.889 315.863C218.9 315.954 218.908 316.053 218.915 316.148C218.98 316.743 219.059 317.343 219.166 317.935C219.397 319.308 219.784 320.635 220.262 321.891C221.237 324.402 222.72 326.553 224.658 328.222C226.623 329.868 229.055 331.067 231.786 331.811C234.441 332.486 237.393 332.82 240.295 332.82C240.382 332.82 240.458 332.82 240.533 332.82C240.636 332.82 240.742 332.82 240.845 332.82C241.482 332.82 242.111 332.785 242.734 332.729C243.466 332.694 244.16 332.565 244.869 332.463C245.582 332.372 246.242 332.171 246.933 332.042C247.574 331.814 248.276 331.678 248.879 331.39C251.413 330.411 253.586 328.821 255.233 326.64C258.066 323.059 259.591 318.071 260.445 312.817C261.495 310.841 261.924 309.43 261.924 309.43C261.924 309.43 261.962 309.521 262.023 309.657C262.341 312.188 264.811 336.89 239.414 336.89ZM210.475 315.829C210.464 315.518 210.464 315.207 210.471 314.892C210.483 314.365 210.49 313.963 210.551 313.254C210.737 311.103 212.539 309.479 214.663 309.479C214.678 309.479 214.686 309.479 214.701 309.479C214.697 309.479 214.693 309.479 214.69 309.479C212.444 309.479 210.608 311.273 210.562 313.527C210.562 313.572 210.551 313.929 210.551 313.974C210.547 314.099 210.555 314.532 210.536 314.839C210.524 315.162 210.502 315.495 210.475 315.829Z" fill="white"/>
<path d="M189.946 336.89C163.18 336.89 167.368 309.43 167.368 309.43C167.368 309.43 167.819 310.932 168.942 313.003C169.799 318.193 171.324 323.101 174.127 326.64C175.774 328.821 177.947 330.411 180.477 331.39C181.081 331.678 181.786 331.814 182.423 332.042C183.118 332.171 183.778 332.372 184.491 332.463C185.196 332.565 185.891 332.694 186.626 332.729C187.245 332.785 187.878 332.82 188.512 332.82C188.618 332.82 188.72 332.82 188.823 332.82C188.899 332.82 188.978 332.82 189.062 332.82C191.967 332.82 194.915 332.486 197.574 331.811C200.301 331.067 202.737 329.868 204.702 328.222C206.636 326.553 208.119 324.402 209.098 321.891C209.572 320.635 209.959 319.308 210.194 317.935C210.297 317.335 210.38 316.732 210.445 316.125C210.452 316.038 210.46 315.951 210.468 315.863C210.471 315.852 210.471 315.841 210.475 315.829C210.502 315.495 210.524 315.162 210.536 314.839C210.555 314.532 210.547 314.099 210.551 313.974C210.551 313.929 210.562 313.572 210.562 313.527C210.608 311.273 212.444 309.479 214.69 309.479C214.693 309.479 214.697 309.479 214.701 309.479C214.724 309.479 214.75 309.479 214.773 309.479C216.901 309.525 218.619 311.182 218.809 313.254C218.866 313.963 218.877 314.365 218.885 314.892C218.893 315.207 218.893 315.518 218.885 315.829C218.881 316.008 218.877 316.186 218.87 316.364C218.832 317.331 218.752 318.295 218.604 319.255C218.327 321.174 217.876 323.086 217.17 324.948C217.125 325.066 217.079 325.184 217.034 325.301C215.285 321.747 214.8 318.185 214.678 315.947C214.705 315.465 214.712 315.044 214.712 314.695C214.712 314.012 214.678 313.618 214.678 313.618C214.678 313.618 214.644 314.016 214.644 314.71C214.644 315.052 214.655 315.469 214.678 315.947C214.367 321.834 211.473 336.89 189.946 336.89Z" fill="white"/>
<path d="M214.678 315.947C214.655 315.473 214.644 315.055 214.644 314.714C214.644 314.016 214.678 313.618 214.678 313.618C214.678 313.618 214.708 314.012 214.708 314.699C214.708 315.044 214.705 315.465 214.678 315.947Z" fill="white"/>
<path d="M212.687 300.717C208.154 300.717 204.474 299.507 204.474 298.016C204.474 296.525 208.154 295.315 212.687 295.315C217.223 295.315 220.899 296.525 220.899 298.016C220.899 299.507 217.223 300.717 212.687 300.717Z" fill="white"/>
<path d="M106.856 374.304C106.856 374.304 116.006 379.345 114.136 397.735C113.457 404.419 114.527 411.19 117.694 417.111C123.175 427.357 134.654 439.352 157.725 434.811C200.317 426.443 195.389 348.801 106.856 374.304Z" fill="white"/>
<path d="M148.128 435.805C131.354 435.805 122.352 425.828 117.69 417.115C115.13 412.328 113.942 406.979 113.939 401.578C113.942 406.979 115.13 412.328 117.69 417.115C122.352 425.828 131.354 435.805 148.128 435.805Z" fill="white"/>
<path d="M106.856 374.307C106.891 374.296 106.925 374.288 106.959 374.277C106.925 374.285 106.887 374.296 106.856 374.307Z" fill="white"/>
<path d="M148.128 435.805C131.354 435.805 122.352 425.828 117.69 417.115C115.13 412.328 113.942 406.979 113.939 401.578C113.939 400.299 114.003 399.017 114.132 397.739C114.306 396.032 114.386 394.442 114.386 392.955C114.382 378.457 106.856 374.307 106.856 374.307C106.887 374.296 106.925 374.285 106.959 374.277C108.746 373.761 110.483 373.31 112.197 372.877C115.114 375.779 118.43 381.014 119.856 390.308C120.869 396.946 123.604 403.235 128.152 408.174C133.501 413.978 141.725 419.861 153.09 419.861C158.465 419.861 164.538 418.549 171.343 415.283C176.597 412.76 180.701 409.24 183.69 405.155C183.03 418.727 173.737 431.67 157.725 434.819C154.273 435.494 151.083 435.805 148.128 435.805Z" fill="white"/>
<path d="M118.259 398.156C117.629 404.328 118.695 410.211 121.347 415.161C128.604 428.719 140.572 433.961 156.925 430.748C167.299 428.711 175.303 421.656 178.334 411.876C181.335 402.192 178.812 391.692 171.741 384.473C165.133 377.733 149.095 368.173 114.458 376.568C117.045 380.79 119.329 387.622 118.259 398.156ZM148.17 439.943C128.463 439.943 118.483 427.372 114.041 419.069C110.612 412.658 109.22 405.139 110.012 397.318C111.537 382.323 104.922 377.972 104.861 377.934C103.389 377.122 102.551 375.51 102.741 373.844C102.927 372.175 104.099 370.783 105.711 370.324C148.978 357.859 169.363 370.207 177.659 378.673C186.862 388.069 190.154 401.729 186.247 414.335C182.298 427.069 171.935 436.245 158.525 438.885C154.804 439.613 151.36 439.943 148.17 439.943Z" fill="white"/>
<path d="M141.118 433.855C141.091 433.84 141.182 433.639 141.22 433.498C141.232 433.468 141.289 433.309 141.391 433.02L141.751 432.008C142.184 430.744 142.427 430.043 142.476 429.902C142.939 428.472 143.432 427.008 143.83 425.487C144.016 424.732 144.266 423.966 144.426 423.188C144.456 423.071 144.699 422.122 144.729 422.005C144.82 421.61 144.888 421.208 144.998 420.802C145.385 419.186 145.693 417.521 146.167 415.738C146.167 415.734 146.178 415.696 146.182 415.693C146.322 415.146 146.88 414.824 147.426 414.968C147.692 415.04 147.904 415.207 148.037 415.423C149.019 417.047 149.748 418.807 150.214 420.631C150.73 422.456 150.946 424.345 151.026 426.257C151.075 428.165 150.935 430.096 150.544 432C150.366 432.952 150.089 433.897 149.778 434.837C149.6 435.3 149.444 435.771 149.22 436.237C149.114 436.469 149.008 436.704 148.883 436.947C148.746 437.197 148.651 437.383 148.431 437.755C148.397 437.811 148.321 437.827 148.268 437.8C147.79 437.535 145.408 436.222 141.118 433.855Z" fill="white"/>
<path d="M163.555 429.034C163.529 429.019 163.612 428.814 163.646 428.67C163.654 428.635 163.703 428.476 163.791 428.18L164.105 427.156C164.485 425.874 164.693 425.165 164.735 425.02C165.133 423.571 165.562 422.088 165.896 420.556C166.048 419.789 166.264 419.012 166.389 418.227C166.412 418.105 166.613 417.153 166.639 417.032C166.711 416.633 166.761 416.231 166.856 415.822C167.167 414.187 167.402 412.51 167.793 410.712C167.796 410.708 167.8 410.666 167.804 410.659C167.925 410.109 168.472 409.764 169.018 409.881C169.287 409.942 169.507 410.101 169.647 410.314C170.702 411.888 171.51 413.614 172.056 415.416C172.656 417.218 172.955 419.095 173.118 421.003C173.251 422.904 173.194 424.838 172.887 426.758C172.758 427.721 172.519 428.673 172.253 429.622C172.094 430.1 171.958 430.574 171.757 431.052C171.658 431.287 171.567 431.526 171.449 431.773C171.328 432.034 171.237 432.224 171.036 432.599C171.005 432.656 170.933 432.679 170.873 432.653C170.387 432.41 167.948 431.204 163.555 429.034Z" fill="white"/>
<path d="M322.583 374.307C322.583 374.307 313.438 379.345 315.304 397.739C315.983 404.419 314.913 411.19 311.746 417.111C306.268 427.357 294.786 439.352 271.715 434.815C229.127 426.443 234.051 348.801 322.583 374.307Z" fill="white"/>
<path d="M281.308 435.801C298.086 435.801 307.088 425.825 311.75 417.115C314.306 412.324 315.497 406.979 315.501 401.578C315.497 406.979 314.306 412.324 311.75 417.115C307.088 425.825 298.086 435.801 281.308 435.801Z" fill="white"/>
<path d="M322.583 374.307C322.549 374.296 322.511 374.285 322.481 374.273C322.515 374.288 322.549 374.296 322.583 374.307Z" fill="white"/>
<path d="M281.308 435.805C278.357 435.805 275.167 435.498 271.719 434.815C255.703 431.67 246.406 418.723 245.749 405.155C248.739 409.24 252.843 412.76 258.093 415.279C264.898 418.545 270.975 419.861 276.35 419.861C287.715 419.861 295.939 413.974 301.284 408.174C305.832 403.235 308.567 396.942 309.584 390.308C311.006 381.01 314.325 375.779 317.239 372.877C318.957 373.306 320.694 373.765 322.481 374.273C322.511 374.285 322.549 374.296 322.583 374.307C322.583 374.307 315.057 378.453 315.054 392.959C315.054 394.442 315.129 396.032 315.304 397.739C315.433 399.013 315.501 400.299 315.501 401.578C315.497 406.979 314.306 412.324 311.746 417.111C307.084 425.828 298.086 435.805 281.308 435.805Z" fill="white"/>
<path d="M257.698 384.473C250.631 391.692 248.105 402.192 251.109 411.876C254.136 421.659 262.14 428.707 272.515 430.748C288.868 433.961 300.84 428.719 308.097 415.158C310.741 410.211 311.81 404.332 311.184 398.156C310.111 387.622 312.394 380.786 314.981 376.568C305.327 374.231 297.115 373.287 290.15 373.287C272.136 373.287 262.467 379.614 257.698 384.473ZM281.27 439.943C278.08 439.943 274.636 439.61 270.914 438.881C257.505 436.245 247.142 427.065 243.193 414.335C239.286 401.733 242.578 388.073 251.781 378.677C260.081 370.21 280.466 357.859 323.733 370.32C325.345 370.787 326.517 372.175 326.703 373.841C326.885 375.479 326.085 377.069 324.662 377.892C324.252 378.15 317.914 382.429 319.431 397.318C320.224 405.136 318.828 412.662 315.403 419.069C310.957 427.372 300.973 439.943 281.27 439.943Z" fill="white"/>
<path d="M281.008 437.751C280.788 437.383 280.69 437.197 280.557 436.943C280.432 436.7 280.326 436.469 280.219 436.233C279.996 435.767 279.84 435.3 279.662 434.834C279.351 433.893 279.07 432.952 278.895 431.996C278.505 430.096 278.361 428.165 278.414 426.253C278.49 424.345 278.706 422.452 279.225 420.632C279.692 418.807 280.42 417.047 281.403 415.423C281.695 414.942 282.325 414.79 282.803 415.078C283.038 415.222 283.193 415.442 283.258 415.689C283.262 415.696 283.273 415.731 283.273 415.738C283.747 417.521 284.054 419.186 284.441 420.802C284.548 421.208 284.62 421.606 284.711 422.005C284.741 422.122 284.984 423.067 285.014 423.184C285.17 423.966 285.42 424.728 285.61 425.487C286.008 427.004 286.501 428.469 286.964 429.902C287.009 430.043 287.252 430.745 287.692 432.008L288.049 433.017C288.151 433.305 288.208 433.464 288.219 433.495C288.257 433.635 288.345 433.84 288.322 433.855C287.605 434.25 281.888 437.402 281.171 437.796C281.115 437.827 281.042 437.808 281.008 437.751Z" fill="white"/>
<path d="M258.408 432.599C258.199 432.216 258.112 432.027 257.99 431.769C257.877 431.522 257.782 431.283 257.687 431.048C257.482 430.57 257.345 430.096 257.186 429.622C256.921 428.67 256.685 427.717 256.553 426.754C256.245 424.835 256.189 422.9 256.325 420.999C256.488 419.091 256.788 417.214 257.383 415.412C257.93 413.61 258.738 411.884 259.792 410.31C260.107 409.839 260.737 409.714 261.207 410.029C261.431 410.177 261.579 410.408 261.636 410.655C261.636 410.659 261.643 410.701 261.643 410.708C262.038 412.506 262.273 414.183 262.584 415.814C262.679 416.227 262.728 416.63 262.8 417.028C262.827 417.149 263.028 418.105 263.051 418.223C263.172 419.012 263.392 419.786 263.548 420.552C263.878 422.084 264.302 423.567 264.705 425.017C264.746 425.161 264.955 425.87 265.334 427.152L265.649 428.176C265.74 428.472 265.789 428.635 265.797 428.666C265.831 428.81 265.911 429.015 265.884 429.026C265.152 429.39 259.295 432.288 258.563 432.649C258.506 432.679 258.434 432.653 258.408 432.599Z" fill="white"/>
<path d="M262.869 227.346C263.529 231.28 269.15 233.62 275.421 232.573C281.703 231.53 286.254 227.486 285.598 223.553C284.942 219.615 279.324 217.275 273.046 218.322C266.772 219.369 262.216 223.408 262.869 227.346Z" fill="white"/>
<path d="M170.717 223.792C170.057 227.729 164.439 230.07 158.161 229.023C151.887 227.979 147.331 223.94 147.987 220.006C148.644 216.065 154.265 213.724 160.54 214.767C166.814 215.818 171.373 219.858 170.717 223.792Z" fill="white"/>
<path d="M131.399 266.467C129.688 280.445 136.926 292.838 147.566 294.143C158.211 295.451 168.229 285.175 169.943 271.201C171.662 257.222 164.424 244.833 153.78 243.525C143.14 242.22 133.118 252.492 131.399 266.467Z" fill="white"/>
<path d="M150.332 264.062C149.835 268.143 151.944 271.766 155.055 272.145C158.161 272.525 161.09 269.524 161.59 265.446C162.091 261.365 159.978 257.742 156.868 257.359C153.761 256.979 150.833 259.98 150.332 264.062Z" fill="white"/>
<path d="M302.638 266.467C304.349 280.445 297.111 292.838 286.471 294.143C275.827 295.451 265.805 285.175 264.094 271.201C262.375 257.222 269.613 244.833 280.257 243.525C290.898 242.22 300.92 252.492 302.638 266.467Z" fill="white"/>
<path d="M273.198 264.422C272.701 268.504 274.81 272.126 277.921 272.506C281.027 272.885 283.956 269.884 284.457 265.807C284.957 261.725 282.844 258.102 279.734 257.719C276.627 257.34 273.699 260.34 273.198 264.422Z" fill="white"/>
<path d="M340.294 438.513C292.221 463.496 214.261 460.617 214.261 460.617C214.261 460.617 136.312 463.496 88.2425 438.513C40.1734 413.511 71.1839 385.001 71.1839 385.001C64.9021 370.161 71.4077 358.375 76.8132 351.881C79.7947 348.312 82.4311 346.339 82.4311 346.339C82.4311 346.339 115.934 397.124 214.196 397.17C214.212 397.17 214.325 397.17 214.34 397.17C312.599 397.113 346.102 346.339 346.102 346.339C346.102 346.339 348.791 348.346 351.811 351.991C357.194 358.508 363.597 370.252 357.349 385.001C357.349 385.001 388.352 413.511 340.294 438.513Z" fill="white"/>
<path d="M214.341 411.747C205.373 411.747 196.948 411.402 189.028 410.746C189.1 407.139 188.569 403.486 187.393 399.958C195.882 400.701 204.755 401.081 213.992 401.092C214.06 401.092 214.128 401.092 214.193 401.092C214.246 401.092 214.291 401.092 214.341 401.092C223.592 401.092 232.48 400.72 240.989 399.981C239.813 403.516 239.285 407.158 239.361 410.769C231.528 411.41 223.194 411.747 214.341 411.747ZM309.405 392.367C309.398 392.041 309.394 391.715 309.394 391.396C309.394 387.205 310.058 383.927 310.979 381.389C325.542 373.769 337.54 363.986 346.762 352.204C347.669 353.129 348.697 354.275 349.728 355.621C348.636 357.427 347.475 359.195 346.246 360.921C338.269 372.134 326.566 383.339 309.405 392.367ZM119.253 392.356C102.103 383.328 90.4085 372.126 82.4311 360.921C81.1755 359.153 79.9958 357.351 78.8844 355.515C79.9237 354.172 80.9517 353.034 81.8545 352.12C91.0116 363.841 102.911 373.598 117.349 381.207C118.475 383.825 119.367 387.463 119.253 392.356Z" fill="#B2B2D4"/>
<path d="M207.232 456.778C187.268 456.778 128.429 454.976 90.0558 435.02C75.0076 427.198 66.723 418.439 65.4408 408.997C65.308 408.011 65.255 407.044 65.2739 406.095C69.1166 412.298 76.1949 418.784 88.2425 425.051C127.302 445.353 186.088 447.257 206.754 447.257C211.522 447.257 214.261 447.158 214.261 447.158C214.261 447.158 217 447.257 221.772 447.257C242.442 447.257 301.234 445.353 340.294 425.051C352.342 418.784 359.42 412.294 363.263 406.088C363.278 407.04 363.229 408.011 363.092 408.997C361.814 418.439 353.533 427.198 338.481 435.02C300.096 454.98 241.231 456.778 221.29 456.778C217.034 456.778 214.549 456.698 214.413 456.695C214.363 456.691 214.318 456.691 214.268 456.691C214.223 456.691 214.17 456.691 214.124 456.695C213.988 456.698 211.499 456.778 207.232 456.778Z" fill="#B2B2D4"/>
<path d="M153.852 442.86C133.486 442.86 124.184 430.608 119.974 420.415C117.341 414.035 116.943 406.998 118.316 400.235C118.915 397.31 119.196 394.689 119.253 392.36C119.261 392.36 119.268 392.364 119.276 392.371C119.249 393.49 119.173 394.678 119.048 395.929C118.927 397.136 118.862 398.357 118.862 399.563C118.862 404.684 119.993 409.748 122.42 414.285C126.832 422.54 135.36 431.989 151.254 431.989C154.053 431.989 157.076 431.697 160.346 431.056C172.595 428.647 180.694 420.188 183.687 410.249C185.443 410.431 187.226 410.598 189.028 410.746C188.724 426.174 177.462 440.865 159.094 442.603C157.27 442.777 155.525 442.86 153.852 442.86Z" fill="#B2B2D4"/>
<path d="M189.028 410.746C187.226 410.594 185.443 410.427 183.69 410.249C184.715 406.854 185.139 403.285 184.931 399.73C185.746 399.806 186.566 399.886 187.393 399.958C188.572 403.486 189.1 407.139 189.028 410.746ZM119.276 392.371C119.268 392.364 119.261 392.36 119.253 392.356C119.371 387.466 118.479 383.825 117.349 381.207C117.466 381.268 117.584 381.329 117.698 381.389C118.62 383.923 119.287 387.205 119.287 391.396C119.287 391.715 119.283 392.037 119.276 392.371Z" fill="#7C7CB6"/>
<path d="M274.537 442.857C272.86 442.857 271.115 442.777 269.291 442.606C250.939 440.865 239.676 426.181 239.361 410.769C241.266 410.613 243.139 410.439 244.987 410.249C247.984 420.188 256.082 428.647 268.335 431.056C271.605 431.697 274.624 431.989 277.424 431.989C293.318 431.989 301.845 422.536 306.261 414.285C308.684 409.748 309.815 404.684 309.819 399.567C309.819 399.332 309.815 399.097 309.811 398.862C309.887 399.313 309.974 399.768 310.073 400.235C311.446 406.994 311.044 414.035 308.415 420.415C304.201 430.608 294.9 442.857 274.537 442.857Z" fill="#B2B2D4"/>
<path d="M239.361 410.769C239.285 407.161 239.813 403.512 240.985 399.981C241.91 399.901 242.836 399.817 243.75 399.73C243.542 403.288 243.967 406.854 244.991 410.249C243.14 410.439 241.269 410.613 239.361 410.769Z" fill="#7C7CB6"/>
<path d="M214.268 456.691C214.318 456.691 214.36 456.691 214.413 456.695C215.179 456.721 291.903 459.24 338.481 435.02C353.529 427.194 361.81 418.439 363.089 409.001C364.674 397.329 354.789 387.971 354.69 387.876C353.48 386.753 353.093 384.986 353.738 383.464C360.099 368.45 351.496 356.983 346.637 352.075C342.589 356.926 333.868 366.019 319.093 375.096C299.812 386.943 265.991 401.065 214.337 401.092C214.291 401.092 214.246 401.092 214.193 401.092C162.543 401.065 128.721 386.943 109.44 375.096C94.6646 366.019 85.9438 356.926 81.9001 352.075C77.0446 356.979 68.4338 368.443 74.7952 383.464C75.4438 384.993 75.0607 386.765 73.8355 387.887C73.7444 387.971 63.859 397.329 65.4408 409.001C66.7229 418.439 75.0038 427.194 90.0557 435.02C136.63 459.24 213.35 456.725 214.124 456.695C214.17 456.691 214.219 456.691 214.268 456.691ZM222.462 464.661C217.997 464.661 215.103 464.573 214.268 464.543C209.386 464.71 134.294 466.876 86.4331 441.988C68.9497 432.895 59.2653 422.126 57.6493 409.98C56.0334 397.811 63.0927 388.096 66.6281 384.083C59.9594 364.767 72.2991 349.006 80.0869 343.191C80.9517 342.542 82.0443 342.284 83.114 342.47C84.1761 342.656 85.1168 343.274 85.7124 344.173C85.7883 344.291 94.1108 356.566 113.995 368.678C132.382 379.876 164.701 393.228 214.268 393.24C263.836 393.228 296.151 379.876 314.538 368.678C334.426 356.566 342.741 344.291 342.828 344.165C343.424 343.27 344.365 342.656 345.431 342.474C346.493 342.288 347.581 342.546 348.45 343.191C356.234 349.006 368.577 364.767 361.905 384.083C365.444 388.096 372.496 397.811 370.88 409.98C369.268 422.126 359.587 432.895 342.104 441.988C302.437 462.612 244.073 464.661 222.462 464.661Z" fill="#000072"/>
<path d="M74.4386 382.812L75 383.586C75.3983 384.117 75.6183 384.413 75.6638 384.47C76.1266 385.058 76.5894 385.661 77.0863 386.245C78.0612 387.421 79.1082 388.563 80.2196 389.655C81.3235 390.763 82.5184 391.791 83.7512 392.819C84.9764 393.892 86.3041 394.825 87.6735 395.952C87.6773 395.956 87.719 395.99 87.7228 395.994C88.1211 396.328 88.1818 396.916 87.8442 397.321C87.6659 397.541 87.4004 397.659 87.1311 397.659C85.2875 397.682 83.4287 397.412 81.6573 396.87C79.863 396.365 78.1674 395.569 76.5439 394.658C74.9089 393.748 73.365 392.675 71.9274 391.461C71.2142 390.846 70.5124 390.213 69.8524 389.518C69.53 389.17 69.2 388.824 68.8889 388.445C68.5589 388.062 68.2972 387.724 67.9178 387.182C66.6736 385.41 67.1023 382.964 68.8699 381.716C70.6263 380.483 73.0502 380.892 74.302 382.622C74.3096 382.634 74.3589 382.698 74.4386 382.812Z" fill="#000072"/>
<path d="M360.619 387.182C360.236 387.721 359.978 388.058 359.644 388.445C359.337 388.824 359.007 389.17 358.681 389.519C358.021 390.209 357.323 390.846 356.609 391.457C355.172 392.675 353.628 393.748 351.993 394.655C350.366 395.569 348.674 396.362 346.876 396.866C345.108 397.412 343.246 397.682 341.402 397.659C340.882 397.651 340.465 397.227 340.469 396.707C340.476 396.422 340.605 396.165 340.81 395.994C340.814 395.99 340.856 395.956 340.86 395.952C342.229 394.822 343.56 393.889 344.786 392.819C346.022 391.787 347.21 390.759 348.313 389.655C349.425 388.563 350.476 387.421 351.45 386.241C351.944 385.657 352.41 385.058 352.873 384.47C352.915 384.409 353.135 384.113 353.533 383.582L354.094 382.812C354.174 382.698 354.22 382.637 354.227 382.626C355.502 380.87 357.952 380.475 359.709 381.742C361.446 383.005 361.848 385.429 360.619 387.182Z" fill="#000072"/>
<path d="M187.298 161.194C187.298 161.194 154.383 93.6082 95.3285 64.134C83.6185 58.2885 69.3935 63.8229 64.7618 76.064C50.9503 112.567 30.1476 190.824 74.1275 253.361C74.1275 253.361 106.629 187.698 187.298 161.194Z" fill="#FA9A2C"/>
<path d="M72.4622 241.104C70.6794 237.706 69.0672 234.276 67.5992 230.824C69.5907 226.405 72.1891 221.114 75.4931 215.245C76.8322 217.684 78.2926 220.093 79.8782 222.479C77.1167 228.454 74.6434 234.663 72.4622 241.104ZM158.074 144.947C149.122 130.51 131.585 106.612 106.291 91.924C100.412 82.5469 92.3393 74.3381 82.2187 68.1322C83.9484 67.1383 85.8072 66.3759 87.738 65.8789C89.7523 66.1331 91.7286 66.7249 93.576 67.6466C129.503 85.5777 155.779 118.367 170.421 140.399C166.233 141.73 162.114 143.244 158.074 144.947Z" fill="#AF6B41"/>
<path d="M66.6092 233.074C38.7282 176.807 55.0926 112.711 68.4337 77.4562C70.2697 72.6007 73.9493 68.8795 78.7934 66.9828C79.093 66.869 79.3965 66.759 79.7 66.6566C80.5535 67.1383 81.3955 67.6277 82.2187 68.136C77.9702 70.5751 74.4955 74.4481 72.6102 79.4325C60.6574 111.031 43.466 173.928 67.5992 230.824C67.2502 231.602 66.9202 232.353 66.6092 233.074Z" fill="#FDE1BF"/>
<path d="M71.9084 242.762C69.989 239.564 68.2251 236.325 66.6092 233.07C66.9202 232.349 67.2502 231.602 67.5992 230.824C69.0672 234.276 70.6794 237.706 72.4622 241.108C72.2764 241.658 72.0905 242.208 71.9084 242.762ZM82.2187 68.1322C81.3955 67.6277 80.5535 67.1345 79.7 66.6566C81.5663 66.0382 83.5047 65.731 85.4393 65.731C86.2093 65.731 86.9756 65.7803 87.7418 65.8751C85.8072 66.3759 83.9485 67.1345 82.2187 68.1322Z" fill="#E7D2C6"/>
<path d="M85.4393 65.731C83.186 65.731 80.9328 66.1483 78.7933 66.9828C73.953 68.8795 70.2697 72.5969 68.4337 77.4562C54.0722 115.412 36.198 186.807 73.8278 245.861C77.7843 239.257 85.4886 227.653 97.5779 214.555C113.916 196.851 141.592 173.139 181.688 158.96C173.646 144.219 142.586 92.1098 93.5759 67.6466C91.0268 66.3721 88.2349 65.731 85.4393 65.731ZM74.1275 257.287C72.853 257.287 71.6543 256.672 70.9184 255.621C51.2158 227.608 42.108 193.68 43.8491 154.772C45.2982 122.403 54.0266 93.3465 61.0898 74.6757C63.6845 67.8173 69.0938 62.3473 75.9331 59.673C82.7877 56.9874 90.4957 57.3325 97.081 60.6214C156.644 90.3497 189.46 156.669 190.829 159.476C191.323 160.496 191.357 161.68 190.913 162.727C190.473 163.766 189.6 164.57 188.523 164.923C110.468 190.57 77.9626 254.461 77.6439 255.109C77.0294 256.346 75.8042 257.173 74.4234 257.279C74.3248 257.283 74.2261 257.287 74.1275 257.287Z" fill="#000072"/>
<path d="M161.382 158.819C161.382 158.819 139.047 112.537 98.9018 92.3829C90.9434 88.3885 81.2628 92.1933 78.1029 100.58C68.6841 125.605 54.4743 179.235 84.3392 222.05C84.3392 222.05 106.496 177.035 161.382 158.819Z" fill="#F471AC"/>
<path d="M70.2356 157.135C70.8653 135.483 76.6539 115.572 81.7749 101.965C82.9129 98.953 85.1813 96.6505 88.1667 95.4859C89.4867 94.9662 90.8486 94.7121 92.2066 94.7121C93.8946 94.7121 95.5713 95.1066 97.1417 95.8918C122.989 108.869 141.429 133.419 150.798 148.244C149.456 148.896 148.124 149.567 146.804 150.265C136.221 136.363 120.82 120.207 101.144 110.333C98.9852 109.248 96.7016 108.74 94.4522 108.74C88.4132 108.74 82.6474 112.416 80.3448 118.53C76.7791 128.006 72.5229 141.586 70.2356 157.135Z" fill="#AA4F9A"/>
<path d="M92.2104 94.7082C90.8486 94.7082 89.4867 94.9662 88.1667 95.4821C85.1813 96.6504 82.9129 98.953 81.7749 101.965C72.2043 127.395 60.297 174.858 84.123 214.498C91.9448 201.851 114.056 171.952 155.779 156.615C149.456 145.22 128.888 111.828 97.1417 95.8918C95.5751 95.1027 93.8946 94.7082 92.2104 94.7082ZM84.3392 225.969C83.0646 225.969 81.8584 225.351 81.1225 224.292C50.7227 180.718 63.8818 127.217 74.431 99.1958C76.3315 94.1468 80.2955 90.1297 85.3103 88.1685C90.2909 86.2226 95.8899 86.4805 100.666 88.8779C141.535 109.392 163.984 155.17 164.917 157.109C165.41 158.125 165.441 159.305 165.001 160.344C164.561 161.384 163.692 162.184 162.618 162.541C110.043 179.998 88.0756 223.352 87.8632 223.788C87.2449 225.028 86.0196 225.859 84.6351 225.961C84.5364 225.969 84.4378 225.969 84.3392 225.969Z" fill="#000072"/>
<path d="M241.383 161.194C241.383 161.194 274.302 93.6082 333.353 64.134C345.063 58.2885 359.295 63.8229 363.923 76.064C377.731 112.567 398.541 190.824 354.554 253.361C354.554 253.361 322.052 187.698 241.383 161.194Z" fill="#FA9A2C"/>
<path d="M356.776 242.762C354.462 235.725 351.8 228.958 348.799 222.479C350.388 220.097 351.849 217.681 353.192 215.249C357.072 222.141 359.978 228.241 362.072 233.07C360.456 236.325 358.696 239.564 356.776 242.762ZM270.611 144.947C266.567 143.244 262.448 141.727 258.26 140.399C272.898 118.363 299.178 85.5777 335.105 67.6466C337.654 66.3721 340.446 65.731 343.246 65.731C345.176 65.731 347.115 66.0382 348.981 66.6566C337.673 73.0028 328.751 81.7844 322.39 91.924C297.096 106.612 279.555 130.51 270.611 144.947Z" fill="#AF6B41"/>
<path d="M246.994 158.96C287.089 173.139 314.765 196.851 331.103 214.555C343.196 227.653 350.901 239.257 354.853 245.861C392.479 186.807 374.609 115.412 360.247 77.4562C358.415 72.5969 354.732 68.8795 349.888 66.9828C345.097 65.1051 339.706 65.3517 335.105 67.6466C286.091 92.1098 255.039 144.219 246.994 158.96ZM354.557 257.287C354.455 257.287 354.356 257.283 354.254 257.279C352.873 257.173 351.648 256.346 351.037 255.106C350.718 254.461 318.213 190.57 240.158 164.923C239.081 164.57 238.208 163.766 237.768 162.727C237.328 161.68 237.358 160.492 237.855 159.476C239.225 156.665 272.037 90.3497 331.6 60.6214C338.181 57.3325 345.89 56.9874 352.748 59.673C359.587 62.3473 364.997 67.8173 367.591 74.6757C374.654 93.3465 383.379 122.403 384.828 154.772C386.577 193.68 377.465 227.608 357.766 255.621C357.027 256.672 355.828 257.287 354.557 257.287Z" fill="#000072"/>
<path d="M267.299 158.819C267.299 158.819 289.634 112.537 329.779 92.3829C337.738 88.3885 347.422 92.1933 350.578 100.58C360.001 125.605 374.207 179.235 344.342 222.05C344.342 222.05 322.185 177.035 267.299 158.819Z" fill="#F471AC"/>
<path d="M358.442 157.135C356.158 141.586 351.902 128.006 348.336 118.53C346.034 112.416 340.272 108.74 334.229 108.74C331.979 108.74 329.696 109.248 327.537 110.333C307.858 120.207 292.464 136.363 281.877 150.265C280.553 149.567 279.218 148.892 277.875 148.24C287.233 133.419 305.654 108.892 331.539 95.8918C333.11 95.1066 334.786 94.7121 336.471 94.7121C337.832 94.7121 339.202 94.9662 340.514 95.4859C343.5 96.6505 345.768 98.953 346.902 101.965C352.027 115.572 357.82 135.487 358.442 157.135Z" fill="#AA4F9A"/>
<path d="M272.902 156.615C314.621 171.952 336.74 201.851 344.562 214.498C368.388 174.858 356.48 127.395 346.91 101.965C345.768 98.953 343.503 96.6504 340.518 95.4821C337.559 94.3251 334.373 94.4693 331.543 95.8918C299.74 111.854 279.21 145.224 272.902 156.615ZM344.346 225.977C344.243 225.977 344.145 225.969 344.046 225.965C342.658 225.859 341.432 225.028 340.822 223.784C340.609 223.352 318.638 179.998 266.063 162.541C264.989 162.184 264.128 161.384 263.688 160.344C263.248 159.305 263.274 158.125 263.764 157.109C264.705 155.17 287.146 109.392 328.019 88.8779C332.795 86.4805 338.39 86.2226 343.375 88.1685C348.389 90.1297 352.353 94.1468 354.254 99.1958C364.803 127.217 377.958 180.718 347.562 224.292C346.823 225.351 345.62 225.977 344.346 225.977Z" fill="#000072"/>
<path d="M346.25 346.339C328.156 371.754 290.932 397.166 214.34 397.166C137.749 397.166 100.525 371.754 82.4311 346.339C74.761 335.558 69.7803 323.268 67.5271 310.45C65.8239 300.656 65.6873 290.562 67.144 280.57C73.6268 236.275 90.4616 205.075 110.54 183.097C166.067 122.316 262.611 122.316 318.141 183.097C338.219 205.075 355.054 236.275 361.533 280.57C364.909 303.653 359.777 327.331 346.25 346.339Z" fill="#FA9A2C"/>
<path d="M361.143 310.416C361.143 310.416 339.304 292.36 307.789 308.372C287.131 318.86 261.916 313.432 248.154 294.791C238.235 281.363 228.239 261.095 220.372 230.532C218.764 224.277 209.914 224.277 208.305 230.532C200.438 261.095 190.442 281.363 180.523 294.791C166.761 313.432 141.55 318.86 120.892 308.372C89.3729 292.36 67.5385 310.416 67.5385 310.416C67.5385 310.42 67.5271 310.447 67.5271 310.45C69.7803 323.268 74.761 335.562 82.4311 346.339C100.522 371.754 137.749 397.17 214.34 397.17C290.932 397.17 328.159 371.754 346.246 346.339C353.92 335.562 358.901 323.268 361.154 310.45C361.154 310.447 361.15 310.435 361.143 310.416Z" fill="white"/>
<path d="M357.588 308.045C353.81 305.849 347.153 302.799 338.345 301.968C344.171 287.125 345.935 270.806 343.591 254.776C340.837 235.983 336.224 219.554 330.291 205.185C344.198 226.485 353.374 251.931 357.649 281.135C358.98 290.251 358.942 299.309 357.588 308.045Z" fill="#AF6B41"/>
<path d="M214.341 393.24C203.461 393.24 193.113 392.705 183.315 391.643C178.99 379.292 166.082 368.875 142.821 368.875C135.458 368.875 127.056 369.922 117.561 372.274C104.391 364.794 93.6784 355.36 85.6365 344.059C84.6806 342.716 83.774 341.355 82.9053 339.97C104.671 357.484 139.775 371.371 196.394 371.371C220.376 371.371 240.492 368.879 257.372 364.68C259.944 366.504 263.058 367.548 266.34 367.548C273.179 367.548 278.998 363.079 281.035 356.903C304.019 347.238 318.801 333.889 328.304 320.541C332.438 314.733 335.784 308.489 338.348 301.961C347.157 302.792 353.81 305.845 357.596 308.045C355.581 321.053 350.665 333.354 343.052 344.059C335.003 355.36 324.294 364.794 311.124 372.274C301.629 369.922 293.227 368.875 285.864 368.875C262.603 368.875 249.694 379.292 245.366 391.643C235.572 392.705 225.224 393.24 214.341 393.24Z" fill="#B2B2D4"/>
<path d="M71.0891 308.045C69.7386 299.305 69.7007 290.243 71.0322 281.132C76.6956 242.44 90.9624 210.348 113.438 185.744C139.164 157.583 175.941 141.435 214.341 141.435C242.259 141.435 269.317 149.97 291.895 165.45C270.125 152.807 245.601 146.483 221.077 146.483C195.905 146.483 170.725 153.152 148.526 166.474C149.406 171.387 144.983 179.565 137.233 186.537C130.606 192.5 123.35 195.956 118.392 195.956C116.916 195.956 115.646 195.649 114.655 195.015C95.7419 216.812 80.0717 247.189 73.8772 289.541C73.0237 295.364 72.7164 301.217 72.944 307.029C72.265 307.382 71.6467 307.723 71.0891 308.045Z" fill="#FDE1BF"/>
<path d="M75.2465 324.281C73.3423 319.042 71.9501 313.61 71.0891 308.045C71.6467 307.723 72.265 307.381 72.944 307.029C73.1071 311.194 73.5433 315.336 74.2565 319.422C74.5448 321.049 74.871 322.672 75.2465 324.281Z" fill="white"/>
<path d="M214.341 141.438C175.941 141.438 139.164 157.587 113.438 185.744C90.9623 210.348 76.6956 242.44 71.0322 281.132C67.7168 303.816 72.8985 326.162 85.6327 344.059C108.529 376.234 153.036 393.244 214.341 393.244C275.645 393.244 320.152 376.234 343.048 344.059C355.783 326.162 360.964 303.816 357.649 281.132C351.985 242.44 337.722 210.348 315.243 185.744C289.517 157.587 252.744 141.438 214.341 141.438ZM214.341 401.088C178.842 401.088 148.731 395.633 124.837 384.86C105.487 376.136 90.1468 363.944 79.2371 348.611C65.3232 329.057 59.6522 304.692 63.2672 279.997C69.1583 239.727 84.0888 206.232 107.642 180.453C134.851 150.664 173.74 133.586 214.341 133.586C254.941 133.586 293.83 150.664 321.043 180.453C344.592 206.232 359.527 239.72 365.418 279.997C369.029 304.692 363.358 329.057 349.444 348.611C338.534 363.944 323.194 376.136 303.844 384.86C279.954 395.633 249.839 401.088 214.341 401.088Z" fill="#000072"/>
<path d="M233.607 301.513C232.287 293.703 214.341 293.581 214.341 293.581C214.341 293.581 196.394 293.703 195.074 301.513C193.75 309.324 203.446 319.061 214.341 319.061C225.235 319.061 234.927 309.324 233.607 301.513Z" fill="#000072"/>
<path d="M218.213 316.573C218.213 316.69 218.21 317.1 218.229 317.388C218.236 317.707 218.259 318.033 218.289 318.359C218.354 319.012 218.437 319.676 218.551 320.321C218.775 321.622 219.135 322.881 219.594 324.072C220.516 326.451 221.92 328.484 223.756 330.073C225.618 331.628 227.921 332.766 230.508 333.468C233.091 334.128 235.97 334.443 238.796 334.424C239.502 334.439 240.192 334.398 240.879 334.337C241.573 334.31 242.233 334.185 242.901 334.087C243.58 334.003 244.205 333.81 244.862 333.688C245.469 333.472 246.129 333.343 246.705 333.07C249.099 332.141 251.162 330.638 252.721 328.571C255.95 324.489 257.387 318.488 258.074 312.427C258.078 312.415 258.089 312.339 258.089 312.332C258.153 311.744 258.688 311.319 259.276 311.387C259.705 311.437 260.043 311.725 260.172 312.104C261.272 315.351 261.605 318.697 261.344 322.149C261.067 325.578 260.054 329.129 258.032 332.277C256.041 335.437 252.957 338.013 249.573 339.587C246.182 341.245 242.552 341.855 239.062 342.064C235.587 342.238 232.112 342.064 228.562 341.241C225.041 340.391 221.461 338.851 218.471 336.34C216.988 335.088 215.661 333.635 214.56 332.042C213.472 330.449 212.603 328.73 211.943 326.966C211.275 325.203 210.843 323.389 210.585 321.572C210.445 320.666 210.365 319.752 210.331 318.834C210.312 318.371 210.308 317.912 210.316 317.438C210.327 316.941 210.331 316.558 210.392 315.89C210.577 313.739 212.474 312.142 214.629 312.328C216.635 312.499 218.16 314.16 218.206 316.129C218.206 316.159 218.21 316.307 218.213 316.573Z" fill="#000072"/>
<path d="M218.213 315.89C218.27 316.558 218.278 316.941 218.286 317.438C218.297 317.916 218.289 318.375 218.27 318.837C218.236 319.755 218.157 320.666 218.02 321.576C217.758 323.393 217.33 325.206 216.662 326.97C216.002 328.727 215.133 330.449 214.041 332.046C212.941 333.635 211.617 335.088 210.134 336.34C207.141 338.851 203.564 340.391 200.04 341.241C196.485 342.068 193.018 342.238 189.54 342.064C186.054 341.855 182.42 341.245 179.028 339.587C175.649 338.013 172.565 335.433 170.569 332.281C168.547 329.129 167.535 325.578 167.261 322.149C167 318.697 167.33 315.351 168.434 312.108C168.619 311.547 169.23 311.247 169.792 311.437C170.201 311.573 170.467 311.93 170.512 312.332C170.516 312.339 170.524 312.415 170.527 312.427C171.214 318.488 172.652 324.493 175.884 328.571C177.447 330.638 179.503 332.141 181.9 333.074C182.473 333.347 183.137 333.472 183.743 333.692C184.4 333.813 185.026 334.003 185.701 334.087C186.368 334.185 187.028 334.31 187.726 334.337C188.409 334.401 189.1 334.443 189.805 334.428C192.631 334.443 195.507 334.128 198.094 333.472C200.681 332.77 202.987 331.632 204.85 330.073C206.678 328.488 208.085 326.451 209.011 324.072C209.466 322.885 209.83 321.625 210.05 320.321C210.168 319.676 210.251 319.016 210.312 318.363C210.346 318.033 210.365 317.707 210.376 317.392C210.392 317.1 210.388 316.69 210.388 316.573C210.392 316.531 210.399 316.193 210.399 316.148C210.441 313.989 212.228 312.271 214.39 312.313C216.408 312.355 218.035 313.929 218.213 315.89Z" fill="#000072"/>
<path d="M153.609 333.601C153.609 333.525 153.609 333.457 153.609 333.385C153.609 332.85 153.655 332.33 153.746 331.822C154.03 332.11 154.326 332.383 154.641 332.645C154.281 332.941 153.935 333.263 153.609 333.601Z" fill="#B2B2D4"/>
<path d="M275.072 333.601C274.749 333.263 274.404 332.941 274.04 332.645C274.351 332.383 274.651 332.11 274.935 331.822C275.026 332.33 275.076 332.85 275.076 333.385C275.076 333.457 275.076 333.525 275.072 333.601Z" fill="#B2B2D4"/>
<path d="M259.056 312.267C259.056 312.267 254.372 323.503 238.147 323.503C221.927 323.503 223.004 302.113 223.004 302.113C222.42 302.113 219.507 302.113 214.265 302.113C209.022 302.113 206.109 302.113 205.525 302.113C205.525 302.113 206.606 323.503 190.386 323.503C174.161 323.503 169.481 312.267 169.481 312.267C169.481 312.267 166.233 338.282 188.462 338.282C210.695 338.282 214.265 322.836 214.265 322.836C214.265 322.836 217.842 338.282 240.071 338.282C262.3 338.282 259.056 312.267 259.056 312.267Z" fill="white"/>
<path d="M233.607 301.513C232.287 293.703 214.341 293.581 214.341 293.581C214.341 293.581 196.394 293.703 195.074 301.513C193.75 309.324 203.446 319.061 214.341 319.061C225.235 319.061 234.927 309.324 233.607 301.513Z" fill="#000072"/>
<path d="M218.213 316.573C218.213 316.69 218.21 317.1 218.229 317.388C218.236 317.707 218.259 318.033 218.289 318.359C218.354 319.012 218.437 319.676 218.551 320.321C218.775 321.622 219.135 322.881 219.594 324.072C220.516 326.451 221.92 328.484 223.756 330.073C225.618 331.628 227.921 332.766 230.508 333.468C233.091 334.128 235.97 334.443 238.796 334.424C239.502 334.439 240.192 334.398 240.879 334.337C241.573 334.31 242.233 334.185 242.901 334.087C243.58 334.003 244.205 333.81 244.862 333.688C245.469 333.472 246.129 333.343 246.705 333.07C249.099 332.141 251.162 330.638 252.721 328.571C255.95 324.489 257.387 318.488 258.074 312.427C258.078 312.415 258.089 312.339 258.089 312.332C258.153 311.744 258.688 311.319 259.276 311.387C259.705 311.437 260.043 311.725 260.172 312.104C261.272 315.351 261.605 318.697 261.344 322.149C261.067 325.578 260.054 329.129 258.032 332.277C256.041 335.437 252.957 338.013 249.573 339.587C246.182 341.245 242.552 341.855 239.062 342.064C235.587 342.238 232.112 342.064 228.562 341.241C225.041 340.391 221.461 338.851 218.471 336.34C216.988 335.088 215.661 333.635 214.56 332.042C213.472 330.449 212.603 328.73 211.943 326.966C211.275 325.203 210.843 323.389 210.585 321.572C210.445 320.666 210.365 319.752 210.331 318.834C210.312 318.371 210.308 317.912 210.316 317.438C210.327 316.941 210.331 316.558 210.392 315.89C210.577 313.739 212.474 312.142 214.629 312.328C216.635 312.499 218.16 314.16 218.206 316.129C218.206 316.159 218.21 316.307 218.213 316.573Z" fill="#000072"/>
<path d="M218.213 315.89C218.27 316.558 218.278 316.941 218.286 317.438C218.297 317.916 218.289 318.375 218.27 318.837C218.236 319.755 218.157 320.666 218.02 321.576C217.758 323.393 217.33 325.206 216.662 326.97C216.002 328.727 215.133 330.449 214.041 332.046C212.941 333.635 211.617 335.088 210.134 336.34C207.141 338.851 203.564 340.391 200.04 341.241C196.485 342.068 193.018 342.238 189.54 342.064C186.054 341.855 182.42 341.245 179.028 339.587C175.649 338.013 172.565 335.433 170.569 332.281C168.547 329.129 167.535 325.578 167.261 322.149C167 318.697 167.33 315.351 168.434 312.108C168.619 311.547 169.23 311.247 169.792 311.437C170.201 311.573 170.467 311.93 170.512 312.332C170.516 312.339 170.524 312.415 170.527 312.427C171.214 318.488 172.652 324.493 175.884 328.571C177.447 330.638 179.503 332.141 181.9 333.074C182.473 333.347 183.137 333.472 183.743 333.692C184.4 333.813 185.026 334.003 185.701 334.087C186.368 334.185 187.028 334.31 187.726 334.337C188.409 334.401 189.1 334.443 189.805 334.428C192.631 334.443 195.507 334.128 198.094 333.472C200.681 332.77 202.987 331.632 204.85 330.073C206.678 328.488 208.085 326.451 209.011 324.072C209.466 322.885 209.83 321.625 210.05 320.321C210.168 319.676 210.251 319.016 210.312 318.363C210.346 318.033 210.365 317.707 210.376 317.392C210.392 317.1 210.388 316.69 210.388 316.573C210.392 316.531 210.399 316.193 210.399 316.148C210.441 313.989 212.228 312.271 214.39 312.313C216.408 312.355 218.035 313.929 218.213 315.89Z" fill="#000072"/>
<path d="M239.092 334.432C238.993 334.432 238.895 334.432 238.796 334.428C238.724 334.428 238.648 334.428 238.572 334.428C235.818 334.428 233.026 334.113 230.508 333.468C227.921 332.77 225.618 331.632 223.756 330.073C221.92 328.488 220.516 326.451 219.594 324.072C219.135 322.885 218.775 321.625 218.551 320.321C218.452 319.763 218.373 319.198 218.316 318.629C220.584 318.143 222.731 317.274 224.67 316.129C226.418 321.239 230.31 326.989 238.99 326.989C249.899 326.989 255.358 319.808 257.657 315.476C256.852 320.457 255.407 325.18 252.721 328.571C251.159 330.638 249.099 332.141 246.701 333.074C246.129 333.347 245.465 333.472 244.862 333.688C244.202 333.81 243.58 334.003 242.904 334.09C242.233 334.189 241.573 334.31 240.879 334.337C240.287 334.394 239.695 334.432 239.092 334.432ZM189.513 334.432C188.91 334.432 188.314 334.394 187.726 334.337C187.028 334.31 186.368 334.189 185.701 334.09C185.022 334.003 184.404 333.81 183.743 333.688C183.137 333.472 182.473 333.347 181.9 333.074C179.503 332.141 177.443 330.638 175.884 328.571C173.228 325.222 171.787 320.567 170.971 315.655C173.327 320.002 178.786 326.989 189.547 326.989C198.264 326.989 202.156 321.185 203.894 316.057C205.84 317.225 208.006 318.117 210.289 318.614C210.232 319.183 210.153 319.759 210.05 320.321C209.83 321.625 209.462 322.885 209.011 324.072C208.085 326.451 206.682 328.488 204.85 330.073C202.987 331.632 200.681 332.77 198.094 333.468C195.579 334.113 192.783 334.428 190.033 334.428C189.957 334.428 189.881 334.428 189.805 334.428C189.71 334.432 189.612 334.432 189.513 334.432Z" fill="#B2B2D4"/>
<path d="M218.316 318.633C218.305 318.541 218.301 318.45 218.289 318.359C218.286 318.348 218.286 318.34 218.286 318.329C218.293 318.037 218.293 317.737 218.286 317.441C218.278 316.941 218.27 316.558 218.213 315.89C218.035 313.929 216.404 312.355 214.39 312.313C214.371 312.313 214.344 312.313 214.322 312.313C214.31 312.313 214.299 312.313 214.287 312.313C212.277 312.313 210.566 313.853 210.392 315.89C210.335 316.558 210.323 316.941 210.312 317.441C210.312 317.737 210.312 318.037 210.316 318.333C210.312 318.34 210.312 318.352 210.312 318.359C210.308 318.443 210.297 318.53 210.285 318.614C208.006 318.117 205.84 317.225 203.894 316.053C205.263 311.998 205.29 308.36 205.29 308.36C205.885 308.36 208.878 308.36 214.265 308.36C219.655 308.36 222.648 308.36 223.243 308.36C223.243 308.36 223.27 312.04 224.67 316.133C222.731 317.275 220.581 318.147 218.316 318.633Z" fill="#000072"/>
<path d="M237.738 338.282C225.091 338.282 219.23 332.801 216.533 327.304C216.575 327.19 216.617 327.08 216.662 326.966C217.33 325.203 217.758 323.393 218.02 321.576C218.16 320.666 218.236 319.752 218.274 318.837C218.278 318.667 218.282 318.5 218.286 318.329C218.286 318.337 218.286 318.352 218.289 318.359C218.301 318.45 218.305 318.541 218.316 318.633C218.377 319.194 218.452 319.763 218.555 320.324C218.771 321.625 219.139 322.881 219.59 324.072C220.516 326.451 221.92 328.488 223.756 330.069C225.618 331.632 227.921 332.766 230.508 333.472C233.023 334.109 235.822 334.428 238.572 334.428C238.648 334.428 238.724 334.428 238.796 334.428C238.895 334.428 238.993 334.428 239.092 334.428C239.695 334.428 240.291 334.394 240.879 334.337C241.573 334.31 242.233 334.185 242.904 334.087C243.58 334.003 244.202 333.81 244.858 333.688C245.465 333.476 246.129 333.347 246.701 333.074C249.099 332.141 251.162 330.638 252.721 328.571C255.407 325.18 256.849 320.453 257.657 315.476C258.654 313.606 259.06 312.267 259.06 312.267C259.06 312.267 259.094 312.351 259.151 312.48C259.455 314.877 261.795 338.282 237.738 338.282ZM210.32 318.329C210.308 318.033 210.308 317.741 210.316 317.441C210.327 316.941 210.331 316.561 210.392 315.89C210.566 313.853 212.273 312.313 214.287 312.313C214.299 312.313 214.31 312.313 214.322 312.313C214.318 312.313 214.318 312.313 214.314 312.313C212.186 312.313 210.445 314.016 210.403 316.148C210.399 316.19 210.392 316.531 210.392 316.573C210.388 316.69 210.395 317.1 210.38 317.392C210.365 317.699 210.346 318.014 210.32 318.329Z" fill="#000072"/>
<path d="M190.867 338.282C165.513 338.282 169.481 312.267 169.481 312.267C169.481 312.267 169.909 313.69 170.975 315.655C171.783 320.567 173.228 325.222 175.884 328.571C177.443 330.638 179.506 332.141 181.9 333.074C182.473 333.347 183.14 333.476 183.743 333.688C184.404 333.81 185.026 334.003 185.701 334.087C186.372 334.185 187.029 334.31 187.726 334.337C188.314 334.394 188.91 334.428 189.513 334.428C189.612 334.428 189.707 334.428 189.805 334.428C189.881 334.428 189.957 334.428 190.033 334.428C192.783 334.428 195.579 334.109 198.097 333.472C200.681 332.766 202.987 331.632 204.85 330.069C206.682 328.488 208.085 326.451 209.015 324.072C209.466 322.881 209.83 321.625 210.05 320.324C210.153 319.755 210.229 319.186 210.289 318.61C210.297 318.53 210.304 318.443 210.312 318.359C210.316 318.352 210.316 318.34 210.32 318.329C210.346 318.014 210.365 317.699 210.38 317.392C210.395 317.1 210.388 316.69 210.392 316.573C210.392 316.531 210.399 316.19 210.403 316.148C210.445 314.016 212.186 312.313 214.314 312.313C214.318 312.313 214.318 312.313 214.322 312.313C214.344 312.313 214.367 312.313 214.394 312.313C216.408 312.355 218.035 313.929 218.214 315.89C218.27 316.561 218.278 316.941 218.286 317.441C218.293 317.741 218.293 318.033 218.286 318.329C218.282 318.5 218.278 318.667 218.274 318.837C218.236 319.752 218.16 320.666 218.02 321.576C217.758 323.393 217.33 325.203 216.662 326.966C216.617 327.08 216.575 327.19 216.533 327.304C214.875 323.936 214.416 320.56 214.303 318.439C214.325 317.984 214.333 317.586 214.333 317.256C214.333 316.607 214.303 316.235 214.303 316.235C214.303 316.235 214.268 316.614 214.268 317.271C214.268 317.593 214.28 317.988 214.303 318.439C214.007 324.019 211.264 338.282 190.867 338.282Z" fill="#000072"/>
<path d="M214.303 318.439C214.28 317.991 214.268 317.597 214.268 317.271C214.268 316.614 214.303 316.235 214.303 316.235C214.303 316.235 214.329 316.607 214.329 317.259C214.329 317.586 214.325 317.984 214.303 318.439Z" fill="#000072"/>
<path d="M212.417 304.013C208.119 304.013 204.633 302.867 204.633 301.452C204.633 300.041 208.119 298.896 212.417 298.896C216.711 298.896 220.197 300.041 220.197 301.452C220.197 302.867 216.711 304.013 212.417 304.013Z" fill="#6666AA"/>
<path d="M112.156 373.727C112.156 373.727 120.823 378.503 119.052 395.926C118.407 402.257 119.424 408.671 122.42 414.281C127.614 423.985 138.489 435.35 160.346 431.052C200.692 423.12 196.03 349.563 112.156 373.727Z" fill="white"/>
<path d="M151.254 431.989C135.363 431.989 126.836 422.54 122.417 414.285C119.993 409.748 118.866 404.684 118.862 399.563C118.866 404.684 119.993 409.748 122.417 414.285C126.836 422.54 135.363 431.989 151.254 431.989Z" fill="#7C7CB6"/>
<path d="M112.152 373.731C112.186 373.719 112.216 373.712 112.251 373.7C112.22 373.708 112.182 373.719 112.152 373.731Z" fill="#000072"/>
<path d="M151.254 431.989C135.363 431.989 126.836 422.54 122.42 414.285C119.993 409.748 118.866 404.684 118.862 399.567C118.862 398.353 118.923 397.139 119.048 395.929C119.211 394.313 119.287 392.807 119.287 391.396C119.283 377.661 112.152 373.731 112.152 373.731C112.182 373.719 112.22 373.708 112.251 373.7C113.942 373.215 115.589 372.782 117.212 372.376C119.978 375.123 123.118 380.081 124.469 388.889C125.429 395.174 128.023 401.138 132.329 405.815C137.393 411.311 145.184 416.887 155.953 416.887C161.044 416.887 166.802 415.643 173.247 412.548C178.224 410.162 182.112 406.824 184.942 402.955C184.32 415.81 175.516 428.074 160.346 431.056C157.073 431.697 154.053 431.989 151.254 431.989Z" fill="#B2B2D4"/>
<path d="M122.955 396.324C122.36 402.173 123.373 407.742 125.88 412.434C132.753 425.278 144.092 430.244 159.588 427.201C169.416 425.271 176.999 418.587 179.87 409.323C182.715 400.147 180.322 390.201 173.623 383.362C167.364 376.974 152.172 367.919 119.355 375.874C121.806 379.872 123.968 386.344 122.955 396.324ZM151.292 435.911C132.625 435.911 123.168 424.004 118.961 416.136C115.71 410.063 114.394 402.939 115.145 395.531C116.586 381.325 110.323 377.202 110.263 377.167C108.871 376.397 108.074 374.869 108.252 373.291C108.431 371.709 109.542 370.393 111.067 369.956C152.058 358.148 171.37 369.846 179.229 377.865C187.95 386.768 191.068 399.711 187.366 411.649C183.626 423.715 173.805 432.406 161.101 434.906C157.581 435.6 154.315 435.911 151.292 435.911Z" fill="#000072"/>
<path d="M144.611 430.145C144.589 430.13 144.672 429.937 144.71 429.808C144.721 429.777 144.775 429.625 144.869 429.352L145.211 428.393C145.624 427.198 145.852 426.53 145.897 426.397C146.337 425.043 146.804 423.659 147.183 422.217C147.358 421.5 147.597 420.776 147.745 420.036C147.775 419.926 148.006 419.031 148.033 418.917C148.12 418.541 148.185 418.162 148.287 417.779C148.655 416.25 148.947 414.668 149.395 412.98C149.395 412.977 149.406 412.942 149.41 412.939C149.543 412.419 150.07 412.112 150.586 412.252C150.84 412.317 151.041 412.48 151.166 412.684C152.096 414.221 152.79 415.886 153.23 417.616C153.719 419.346 153.924 421.136 154 422.945C154.045 424.751 153.913 426.579 153.541 428.385C153.374 429.288 153.112 430.183 152.816 431.075C152.646 431.515 152.498 431.958 152.285 432.398C152.187 432.618 152.084 432.842 151.967 433.07C151.838 433.309 151.75 433.483 151.542 433.836C151.508 433.889 151.439 433.908 151.386 433.878C150.935 433.631 148.674 432.387 144.611 430.145Z" fill="#000072"/>
<path d="M165.869 425.574C165.847 425.563 165.922 425.366 165.953 425.229C165.964 425.199 166.01 425.047 166.093 424.77L166.393 423.799C166.749 422.585 166.947 421.91 166.988 421.773C167.364 420.4 167.77 418.997 168.085 417.544C168.229 416.819 168.434 416.083 168.551 415.336C168.574 415.222 168.767 414.319 168.79 414.206C168.858 413.826 168.908 413.447 168.995 413.06C169.291 411.512 169.511 409.923 169.886 408.22C169.886 408.212 169.89 408.174 169.894 408.17C170.008 407.647 170.524 407.321 171.043 407.431C171.298 407.488 171.506 407.639 171.643 407.84C172.64 409.335 173.407 410.97 173.923 412.673C174.488 414.38 174.772 416.163 174.928 417.965C175.057 419.77 175 421.603 174.712 423.42C174.586 424.334 174.363 425.233 174.108 426.136C173.96 426.587 173.828 427.035 173.638 427.486C173.547 427.71 173.456 427.937 173.35 428.173C173.232 428.419 173.149 428.597 172.955 428.954C172.929 429.011 172.86 429.03 172.803 429.003C172.341 428.776 170.031 427.634 165.869 425.574Z" fill="#000072"/>
<path d="M316.525 373.727C316.525 373.727 307.861 378.503 309.629 395.925C310.274 402.257 309.261 408.675 306.261 414.281C301.071 423.989 290.192 435.353 268.335 431.052C227.989 423.124 232.655 349.567 316.525 373.727Z" fill="white"/>
<path d="M277.424 431.989C293.322 431.989 301.845 422.536 306.261 414.281C308.684 409.748 309.815 404.684 309.819 399.567C309.815 404.684 308.684 409.748 306.261 414.281C301.845 422.536 293.322 431.989 277.424 431.989Z" fill="#7C7CB6"/>
<path d="M316.525 373.727C316.495 373.719 316.457 373.708 316.427 373.697C316.461 373.712 316.495 373.719 316.525 373.727Z" fill="#000072"/>
<path d="M277.424 431.989C274.628 431.989 271.605 431.7 268.339 431.052C253.165 428.074 244.361 415.81 243.739 402.955C246.569 406.824 250.457 410.158 255.43 412.544C261.879 415.639 267.637 416.887 272.728 416.887C283.493 416.887 291.285 411.307 296.349 405.815C300.658 401.134 303.249 395.174 304.212 388.889C305.559 380.081 308.704 375.123 311.465 372.376C313.092 372.782 314.739 373.215 316.427 373.697C316.457 373.708 316.495 373.719 316.525 373.727C316.525 373.727 309.398 377.657 309.394 391.4C309.394 392.804 309.466 394.31 309.629 395.925C309.754 397.136 309.819 398.353 309.819 399.567C309.815 404.68 308.685 409.748 306.261 414.281C301.845 422.54 293.318 431.989 277.424 431.989Z" fill="#B2B2D4"/>
<path d="M255.058 383.362C248.363 390.201 245.969 400.147 248.814 409.324C251.686 418.591 259.265 425.267 269.093 427.202C284.585 430.244 295.928 425.278 302.801 412.43C305.308 407.742 306.321 402.173 305.726 396.324C304.713 386.344 306.875 379.868 309.326 375.874C300.176 373.655 292.4 372.76 285.803 372.76C268.737 372.76 259.576 378.757 255.058 383.362ZM277.389 435.911C274.366 435.911 271.1 435.596 267.58 434.906C254.872 432.406 245.055 423.712 241.315 411.653C237.616 399.711 240.735 386.768 249.452 377.873C257.315 369.846 276.627 358.148 317.614 369.953C319.143 370.396 320.254 371.709 320.429 373.291C320.603 374.842 319.844 376.344 318.494 377.126C318.107 377.372 312.102 381.424 313.54 395.527C314.291 402.936 312.971 410.063 309.724 416.136C305.513 424.004 296.056 435.911 277.389 435.911Z" fill="#000072"/>
<path d="M277.139 433.836C276.931 433.487 276.84 433.309 276.714 433.07C276.597 432.838 276.494 432.618 276.392 432.398C276.183 431.955 276.032 431.515 275.865 431.071C275.569 430.179 275.303 429.288 275.14 428.385C274.768 426.579 274.632 424.751 274.681 422.942C274.753 421.132 274.962 419.342 275.451 417.616C275.891 415.886 276.582 414.221 277.515 412.684C277.792 412.225 278.387 412.081 278.839 412.354C279.062 412.491 279.21 412.7 279.275 412.935C279.275 412.939 279.286 412.976 279.286 412.98C279.734 414.668 280.026 416.246 280.394 417.779C280.492 418.162 280.561 418.541 280.648 418.917C280.675 419.027 280.906 419.926 280.936 420.036C281.084 420.776 281.319 421.5 281.498 422.217C281.877 423.655 282.344 425.043 282.78 426.401C282.825 426.534 283.057 427.198 283.47 428.393L283.812 429.352C283.906 429.622 283.96 429.773 283.971 429.804C284.009 429.937 284.092 430.13 284.07 430.141C283.391 430.517 277.974 433.502 277.295 433.878C277.242 433.904 277.17 433.889 277.139 433.836Z" fill="#000072"/>
<path d="M255.726 428.954C255.532 428.594 255.449 428.412 255.335 428.169C255.225 427.934 255.138 427.71 255.043 427.486C254.853 427.031 254.724 426.583 254.573 426.132C254.318 425.233 254.095 424.33 253.969 423.416C253.681 421.599 253.628 419.767 253.753 417.965C253.909 416.159 254.193 414.376 254.758 412.673C255.274 410.966 256.041 409.331 257.038 407.84C257.338 407.393 257.937 407.275 258.381 407.571C258.594 407.715 258.734 407.931 258.787 408.167C258.787 408.17 258.795 408.208 258.795 408.212C259.166 409.919 259.39 411.509 259.686 413.052C259.773 413.443 259.823 413.826 259.891 414.206C259.914 414.316 260.103 415.222 260.13 415.336C260.244 416.083 260.452 416.815 260.596 417.54C260.911 418.993 261.313 420.396 261.693 421.769C261.734 421.906 261.932 422.581 262.292 423.795L262.588 424.766C262.675 425.043 262.721 425.199 262.728 425.229C262.762 425.362 262.838 425.559 262.812 425.57C262.118 425.912 256.572 428.658 255.878 429.003C255.821 429.03 255.756 429.003 255.726 428.954Z" fill="#000072"/>
<path d="M259.955 234.5C260.581 238.229 265.907 240.448 271.847 239.454C277.795 238.464 282.108 234.637 281.49 230.912C280.868 227.179 275.542 224.96 269.598 225.954C263.654 226.948 259.337 230.771 259.955 234.5Z" fill="white"/>
<path d="M172.652 231.135C172.03 234.864 166.708 237.083 160.76 236.093C154.812 235.1 150.499 231.276 151.121 227.547C151.743 223.818 157.069 221.595 163.009 222.589C168.957 223.583 173.274 227.41 172.652 231.135Z" fill="white"/>
<path d="M135.405 271.565C133.782 284.807 140.64 296.548 150.719 297.784C160.805 299.021 170.296 289.287 171.92 276.049C173.547 262.806 166.689 251.069 156.606 249.829C146.527 248.596 137.032 258.326 135.405 271.565Z" fill="#000072"/>
<path d="M153.34 269.285C152.87 273.154 154.869 276.583 157.816 276.944C160.76 277.304 163.533 274.463 164.007 270.598C164.481 266.732 162.482 263.299 159.534 262.939C156.591 262.578 153.818 265.42 153.34 269.285Z" fill="white"/>
<path d="M297.631 271.565C299.254 284.807 292.396 296.548 282.317 297.784C272.231 299.021 262.74 289.287 261.116 276.049C259.489 262.806 266.343 251.069 276.43 249.829C286.509 248.596 296.003 258.326 297.631 271.565Z" fill="#000072"/>
<path d="M269.742 269.626C269.268 273.496 271.267 276.925 274.214 277.285C277.158 277.646 279.931 274.804 280.409 270.939C280.879 267.074 278.88 263.641 275.933 263.28C272.989 262.92 270.216 265.761 269.742 269.626Z" fill="white"/>
<path d="M242.373 172.862L233.133 207.469H242.373L235.773 232.463L260.854 197.857H247.654L256.894 172.862H242.373Z" fill="white"/>
<path d="M166.271 136.556H263.733C263.733 136.67 263.73 136.735 263.73 136.75C264.466 100.349 266.214 64.0543 268.976 28.1656C269.552 20.651 267.371 13.3451 263.624 10.2725C248.166 -2.40865 181.839 -2.40865 166.378 10.2725C162.63 13.3451 160.452 20.651 161.029 28.1656C163.787 64.0354 165.535 100.307 166.271 136.685C166.271 136.678 166.271 136.647 166.271 136.598V136.556Z" fill="#101F3E"/>
<path d="M261.791 100.303C258.472 102.124 264.693 112.07 262.668 116.342C258.707 124.683 269.613 124.858 263.574 127.1C259.132 128.75 254.554 129.47 250.461 130.297C239.669 132.478 228.653 132.911 217.899 132.915C217.827 132.915 217.755 132.915 217.682 132.915C217.527 132.915 217.333 132.915 217.125 132.915C216.51 132.915 215.805 132.911 215.805 132.911C215.805 132.911 215.103 132.915 214.488 132.915C214.28 132.915 214.086 132.915 213.931 132.915C213.859 132.915 213.787 132.915 213.715 132.915C202.96 132.911 191.945 132.478 181.153 130.297C177.06 129.47 172.481 128.75 168.039 127.1C162 124.858 170.63 120.511 166.67 112.169C164.644 107.898 170.486 102.504 167.167 100.683C162.171 97.9402 139.779 108.03 139.923 113.743C140.215 125.434 145.583 136.23 150.521 142.758C156.822 151.089 164.591 155.754 172.079 159.119C185.708 165.242 199.937 166.751 213.931 166.751C214.538 166.751 215.759 166.736 215.759 166.736C215.759 166.736 217.076 166.751 217.682 166.751C231.676 166.751 245.905 165.242 259.534 159.119C267.022 155.754 274.787 151.089 281.092 142.758C286.031 136.23 291.398 125.434 291.69 113.743C291.835 108.03 272.477 97.5609 267.481 100.303" fill="#101F3E"/>
<path d="M164.906 109.548C164.906 121.671 164.906 128.404 164.906 129.751C164.906 133.605 167.997 136.731 171.81 136.731C180.417 136.731 249.254 136.731 257.861 136.731C261.674 136.731 264.761 133.605 264.761 129.751C264.761 128.404 264.761 121.671 264.761 109.548H164.906Z" fill="#5A3114"/>
<path d="M289.858 345.315C289.858 345.315 284.377 346.081 282.878 329.231C281.384 312.377 273.247 303.539 264.029 304.169C264.029 304.169 281.93 293.058 294.972 308.99C308.009 324.922 295.92 345.163 300.434 354.339C300.434 354.339 293.12 351.896 297.077 337.918C301.033 323.936 291.964 304.449 278.558 305.8C278.558 305.8 286.126 310.283 286.801 323.587C287.48 336.89 285.739 338.79 289.858 345.315Z" fill="#967E72"/>
<path d="M286.429 353.091C282.757 366.053 280.72 373.253 280.314 374.694C280.314 374.694 287.43 376.291 291.675 375.809C291.675 375.809 295.977 371.826 296.208 360.556C296.208 360.556 293.048 356.3 286.429 353.091Z" fill="#5A3114"/>
<path d="M242.184 340.615C231.612 340.683 226.229 341.032 226.039 341.658C229.241 343.748 224.108 340.797 223.384 343.183C222.655 345.569 232.446 347.212 228.888 346.286C228.607 347.212 227.875 353.835 227.594 354.76C240.469 361.247 261.628 371.147 278.277 373.42C278.949 371.246 284.339 353.85 285.014 351.676C285.014 351.676 281.103 347.894 253.036 338.54" fill="#351F17"/>
<path d="M231.285 347.136C228.084 345.042 225.057 346.1 225.785 343.714C226.513 341.328 226.392 340.63 229.95 341.556C230.223 340.664 229.366 341.104 229.639 340.213C225.508 338.946 226.066 340.384 221.464 339.124C217.462 338.028 213.282 331.541 208.931 330.843C208.931 330.843 203.617 331.784 203.067 337.891C203.067 337.891 216.67 349.184 230.443 356.498C230.629 355.898 230.906 352.776 231.285 347.136Z" fill="#5A3114"/>
<path d="M231.035 338.016C231.035 342.773 222.193 348.156 214.102 348.156C206.014 348.156 199.448 344.291 199.448 339.534C199.448 336.059 202.566 329.648 207.224 329.421C211.882 329.197 211.92 330.912 214.102 330.912C222.193 330.912 231.035 333.26 231.035 338.016Z" fill="#000072"/>
</svg>
