<svg width="50" height="50" viewBox="0 0 79 79" fill="none" xmlns="http://www.w3.org/2000/svg">
<path d="M62.5417 0H16.4583C7.37004 0 0 7.37004 0 16.4583V62.5417C0 71.63 7.37004 79 16.4583 79H62.5417C71.6333 79 79 71.63 79 62.5417V16.4583C79 7.37004 71.6333 0 62.5417 0Z" fill="#001936"/>
<path d="M61.4424 24.8162C61.443 24.8161 61.4436 24.816 61.4441 24.8158L64.6831 41.9141L61.4487 59.1953H18.7719L15.7541 42.2639L19.027 24.638L19.0554 24.4855L18.9999 24.4439C19.0119 24.4391 19.0251 24.4341 19.0395 24.429C19.1221 24.3997 19.2313 24.3716 19.3671 24.3469C19.914 24.2476 20.8093 24.219 21.8954 24.325C24.0665 24.537 26.9326 25.2801 29.2075 26.988C32.0321 29.1086 34.4268 32.3061 36.2732 35.1056C36.957 36.1424 37.5624 37.1195 38.0866 37.9656C38.2697 38.2611 38.4429 38.5406 38.6061 38.8011C38.9201 39.3024 39.1982 39.7352 39.4367 40.0721C39.6694 40.4007 39.8828 40.6652 40.0687 40.8048L40.2188 40.9174L40.3689 40.8047C40.4264 40.7615 40.4546 40.7027 40.4626 40.686L40.4632 40.6847C40.4763 40.6576 40.4876 40.6277 40.4972 40.5999C40.5169 40.5436 40.539 40.4691 40.5635 40.3838C40.5735 40.3493 40.584 40.3123 40.5953 40.2727C40.641 40.1126 40.6983 39.9118 40.773 39.6726C40.9589 39.0778 41.2512 38.2517 41.7231 37.2906C42.6667 35.3691 44.3303 32.9037 47.3034 30.6716L47.1533 30.4717L47.3034 30.6716C49.5685 28.9711 53.3171 27.3953 56.4435 26.2994C58.0026 25.7529 59.3978 25.3289 60.3625 25.071C60.8464 24.9416 61.2161 24.8556 61.4424 24.8162ZM40.0127 40.4679C40.0103 40.4728 40.0105 40.4713 40.0137 40.4657C40.0132 40.4667 40.0129 40.4675 40.0127 40.4679ZM18.903 24.3673C18.9031 24.3673 18.9034 24.3677 18.904 24.3685L18.903 24.3673Z" fill="rgba(170, 43, 255, 0.9)" stroke="rgba(170, 43, 255, 0.9)" stroke-width="0.5"/>
<path d="M53.7098 31.905C53.6493 31.9503 53.5768 32.0048 53.5095 32.0552C53.4659 32.0881 53.5527 32.0228 53.7098 31.905Z" fill="rgba(0,0,0,0.7)"/>
<path d="M18.5625 20.7812V59.3359H16.9219C14.1983 59.3359 12 57.1374 12 54.4141V21.6016C12 21.4702 12 21.339 12.0328 21.2078L18.5625 20.7812Z" fill="rgba(170, 43, 255, 0.9)"/>
<path d="M68 21.6018V54.4143C68 57.1376 65.8017 59.3362 63.0781 59.3362H61.4375V24.0628L67.9672 21.2081C68 21.3392 68 21.4705 68 21.6018Z" fill="rgba(170, 43, 255, 0.9)"/>
<path d="M67.9672 21.2078C35.5039 45.5649 72.616 17.6377 40 42.1094C37.1516 39.9722 50.2093 49.8514 12.0328 21.2078C12.2297 18.6483 14.3298 16.6797 16.9219 16.6797L29.8709 20.6492L40 33.9063L47.323 22.6719L63.0782 16.6797C65.6702 16.6797 67.7703 18.6483 67.9672 21.2078Z" fill="rgba(0,0,0, 0.6)"/>
<path d="M40 33.5943L17.6747 16.9297H62.3253L40 33.5943Z" fill="rgba(170, 43, 255, 0.9)" stroke="rgba(170, 43, 255, 0.9)" stroke-width="0.5"/>
</svg>
