<svg width="50" height="50" viewBox="0 0 79 79" fill="none" xmlns="http://www.w3.org/2000/svg">
<path fill-rule="evenodd" clip-rule="evenodd" d="M62.5417 79H16.4583C7.37004 79 0 71.63 0 62.5417V16.4583C0 7.37004 7.37004 0 16.4583 0H62.5417C71.6333 0 79 7.37004 79 16.4583V62.5417C79 71.63 71.6333 79 62.5417 79ZM53.5093 62.0545C54.217 62.5581 55.1255 62.6832 55.9386 62.3738C56.7483 62.0677 57.3474 61.3731 57.5285 60.5305C59.4343 51.5705 64.0624 28.8844 65.7971 20.7342C65.9255 20.1187 65.7083 19.4801 65.2277 19.0686C64.7438 18.6605 64.0723 18.542 63.4765 18.7625C54.2763 22.1661 25.9383 32.7982 14.355 37.0872C13.6209 37.3571 13.1436 38.0648 13.1667 38.8417C13.193 39.6152 13.7164 40.29 14.4669 40.5171C19.6611 42.0675 26.4815 44.2301 26.4815 44.2301C26.4815 44.2301 29.6645 53.855 31.3268 58.7464C31.5342 59.3619 32.018 59.8458 32.65 60.0104C33.2853 60.175 33.9568 60.0038 34.4308 59.5561C37.1004 57.038 41.2248 53.144 41.2248 53.144C41.2248 53.144 49.0623 58.8912 53.5093 62.0545V62.0545ZM29.3485 43.0155L33.0319 55.1683L33.8515 47.4724C33.8515 47.4724 48.0847 34.6349 56.2019 27.3143C56.4389 27.1003 56.4718 26.7415 56.2743 26.488C56.0768 26.2346 55.718 26.1753 55.4481 26.3465C46.0438 32.3538 29.3485 43.0155 29.3485 43.0155V43.0155Z" fill="#001936"/>
</svg>
