<svg width="50" height="50" viewBox="0 0 79 79" fill="none" xmlns="http://www.w3.org/2000/svg">
<path d="M62.5417 0H16.4583C7.37004 0 0 7.37004 0 16.4583V62.5417C0 71.63 7.37004 79 16.4583 79H62.5417C71.6333 79 79 71.63 79 62.5417V16.4583C79 7.37004 71.6333 0 62.5417 0ZM62.0841 30.4051C62.7721 45.6028 51.4389 62.5483 31.3729 62.5483C25.2701 62.5483 19.592 60.7576 14.8092 57.693C20.5433 58.3645 26.2642 56.7747 30.8067 53.2197C26.0766 53.1308 22.0871 50.007 20.7145 45.7147C22.4097 46.0372 24.0753 45.9418 25.5927 45.527C20.3952 44.4869 16.8105 39.8028 16.9258 34.7962C18.3807 35.606 20.0495 36.0931 21.8172 36.1491C17.008 32.9331 15.6453 26.5802 18.4728 21.7217C23.802 28.259 31.7646 32.5612 40.7443 33.0121C39.1675 26.2543 44.2993 19.7467 51.2743 19.7467C54.3783 19.7467 57.1894 21.0568 59.1578 23.1602C61.62 22.6763 63.934 21.7777 66.0243 20.54C65.2145 23.0647 63.5028 25.1812 61.2744 26.5177C63.46 26.2543 65.5437 25.675 67.4792 24.8159C66.0341 26.9785 64.2007 28.8811 62.0841 30.4051Z" fill="#001936"/>
</svg>
